<svg width="144" height="165" viewBox="0 0 144 165" fill="none" xmlns="http://www.w3.org/2000/svg">
<path d="M9.5 105H71.7509H134.5L139.5 55H72.2491H71.7509H5L9.5 105Z" fill="#023E73"/>
<path d="M13.5 148L72.5 165L131 148L134.5 110H72.5H72H10L13.5 148Z" fill="#BF6415"/>
<path d="M4.5 50H72.2491H139L144 0H72.2491H71.7509H0L4.5 50Z" fill="#8C503A"/>
<path d="M59.79 24.84H53.43V32H52.31V18H53.43V23.74H59.79V18H60.91V32H59.79V24.84ZM65.9078 19H62.5078V18H70.5478V19H67.0278V32H65.9078V19ZM81.7147 21.3L78.0747 32H76.8547L73.2347 21.3V32H72.1147V18H73.2347L77.4547 30.28L81.7147 18H82.8347V32H81.7147V21.3ZM86.0014 18H87.1214V31H93.2214V32H86.0014V18Z" fill="#F5F5F5"/>
<path d="M39.698 84.46C39.778 85.06 40.078 85.5133 40.598 85.82C41.118 86.1133 41.698 86.26 42.338 86.26C42.938 86.26 43.4846 86.1267 43.978 85.86C44.4713 85.58 44.718 85.1333 44.718 84.52C44.718 84.12 44.598 83.7933 44.358 83.54C44.1313 83.2733 43.8446 83.06 43.498 82.9C43.1513 82.74 42.6846 82.5667 42.098 82.38C41.4446 82.1667 40.9113 81.9667 40.498 81.78C40.0846 81.5933 39.7246 81.3333 39.418 81C39.1113 80.6533 38.9313 80.22 38.878 79.7L38.858 79.46C38.858 79.02 38.978 78.5933 39.218 78.18C39.4713 77.7533 39.8513 77.4067 40.358 77.14C40.878 76.8733 41.5246 76.74 42.298 76.74C42.7246 76.74 43.098 76.7867 43.418 76.88C43.7513 76.96 44.0113 77.0467 44.198 77.14C44.3846 77.2333 44.498 77.2933 44.538 77.32L44.158 78.24C44.118 78.2133 44.018 78.16 43.858 78.08C43.7113 78 43.498 77.92 43.218 77.84C42.938 77.76 42.6313 77.72 42.298 77.72C41.658 77.72 41.1113 77.8733 40.658 78.18C40.2046 78.4733 39.978 78.8867 39.978 79.42C39.978 79.9267 40.1846 80.3133 40.598 80.58C41.0113 80.8467 41.6446 81.1133 42.498 81.38C43.218 81.62 43.798 81.8467 44.238 82.06C44.678 82.2733 45.0513 82.58 45.358 82.98C45.678 83.3667 45.838 83.8733 45.838 84.5C45.838 85.3 45.538 85.9667 44.938 86.5C44.3513 87.0333 43.4846 87.3 42.338 87.3C41.578 87.3 40.918 87.1733 40.358 86.92C39.8113 86.6533 39.3913 86.3067 39.098 85.88C38.818 85.4533 38.6646 84.98 38.638 84.46H39.698ZM53.9313 86.3C53.4513 86.6067 52.9046 86.84 52.2913 87C51.6779 87.16 51.0646 87.24 50.4513 87.24C49.4646 87.24 48.6779 87 48.0913 86.52C47.5179 86.0267 47.2313 85.2933 47.2313 84.32V80.22C47.2313 79.14 47.5646 78.3 48.2313 77.7C48.9113 77.1 49.8046 76.8 50.9113 76.8C52.0179 76.8 52.8779 77.1 53.4913 77.7C54.1179 78.2867 54.4313 79.1067 54.4313 80.16V82.76L48.3513 83.1V84.32C48.3513 84.96 48.5579 85.44 48.9713 85.76C49.3846 86.08 49.9246 86.24 50.5913 86.24C51.5246 86.24 52.4913 85.9733 53.4913 85.44L53.9313 86.3ZM53.3113 80.02C53.3113 79.1933 53.0513 78.6133 52.5313 78.28C52.0113 77.9333 51.4646 77.76 50.8913 77.76C50.1579 77.76 49.5513 77.96 49.0713 78.36C48.5913 78.76 48.3513 79.3867 48.3513 80.24V82L53.3113 81.76V80.02ZM68.1431 80.14C68.1431 79.34 67.9298 78.7533 67.5031 78.38C67.0898 78.0067 66.5498 77.82 65.8831 77.82C65.3631 77.82 64.7831 77.9333 64.1431 78.16L63.4031 78.52C63.6298 78.9733 63.7431 79.4933 63.7431 80.08V87H62.6431V80.14C62.6431 79.3267 62.4298 78.74 62.0031 78.38C61.5898 78.0067 61.0431 77.82 60.3631 77.82C59.9498 77.82 59.5231 77.8867 59.0831 78.02C58.6431 78.14 58.2431 78.3 57.8831 78.5V87H56.7631V76.98H57.8831L57.7831 77.62C58.6631 77.1 59.5631 76.84 60.4831 76.84C60.9631 76.84 61.4098 76.92 61.8231 77.08C62.2498 77.24 62.6098 77.4733 62.9031 77.78C63.0898 77.6733 63.3698 77.5267 63.7431 77.34C64.5298 76.98 65.2898 76.8 66.0231 76.8C66.9698 76.8 67.7431 77.0933 68.3431 77.68C68.9431 78.2533 69.2431 79.0533 69.2431 80.08V87H68.1431V80.14ZM78.3502 87C76.9102 87.1467 75.8702 87.22 75.2302 87.22C73.8302 87.22 72.7168 86.96 71.8902 86.44C71.0635 85.92 70.6502 84.98 70.6502 83.62V81.96C70.6502 80.64 71.1102 79.7533 72.0302 79.3C72.4702 79.0733 73.0302 78.96 73.7102 78.96C74.3368 78.96 74.9702 79.0667 75.6102 79.28C76.2502 79.48 76.7902 79.7467 77.2302 80.08C77.2302 79.3467 77.0168 78.7667 76.5902 78.34C76.1635 77.9 75.3435 77.68 74.1302 77.68L74.1902 76.82C75.4702 76.82 76.4102 77.0267 77.0102 77.44C77.6235 77.84 77.9968 78.32 78.1302 78.88C78.2768 79.44 78.3502 80.16 78.3502 81.04V87ZM77.2302 80.94C76.6835 80.6867 76.0968 80.4667 75.4702 80.28C74.8568 80.0933 74.2902 80 73.7702 80C72.4235 80 71.7502 80.6733 71.7502 82.02V83.76C71.7502 84.6267 72.0502 85.26 72.6502 85.66C73.2502 86.0467 74.1035 86.24 75.2102 86.24C75.7835 86.24 76.4568 86.1867 77.2302 86.08V80.94ZM86.6303 80.14C86.6303 79.3267 86.3903 78.74 85.9103 78.38C85.4436 78.0067 84.837 77.82 84.0903 77.82C83.637 77.82 83.177 77.8867 82.7103 78.02C82.2436 78.14 81.8303 78.3 81.4703 78.5V87H80.3503V76.98H81.4703L81.3903 77.66C81.7103 77.38 82.117 77.1733 82.6103 77.04C83.1036 76.8933 83.617 76.82 84.1503 76.82C84.8836 76.82 85.5103 76.94 86.0303 77.18C86.5636 77.42 86.977 77.78 87.2703 78.26C87.577 78.74 87.7303 79.3467 87.7303 80.08V87H86.6303V80.14ZM92.0703 87.26C91.3236 87.0467 90.7836 86.7067 90.4503 86.24C90.117 85.7733 89.9503 85.1467 89.9503 84.36V73H91.0703V76.98H93.4703L92.9903 78.04H91.0703V84.36C91.0703 85.4267 91.5103 86.1067 92.3903 86.4L92.0703 87.26ZM96.1736 74.14C96.0003 74.14 95.8403 74.0733 95.6936 73.94C95.5603 73.7933 95.4936 73.6333 95.4936 73.46C95.4936 73.2867 95.5603 73.1333 95.6936 73C95.8269 72.8667 95.9869 72.8 96.1736 72.8C96.3603 72.8 96.5136 72.8667 96.6336 73C96.7669 73.12 96.8336 73.2733 96.8336 73.46C96.8336 73.6467 96.7669 73.8067 96.6336 73.94C96.5003 74.0733 96.3469 74.14 96.1736 74.14ZM95.5936 76.98H96.7136V87H95.5936V76.98ZM105.586 86.88C104.759 87.0933 103.959 87.2 103.186 87.2C102.466 87.2 101.866 87.12 101.386 86.96C100.599 86.6933 100.026 86.2867 99.6658 85.74C99.3191 85.18 99.1458 84.4 99.1458 83.4V80.84C99.1458 79.52 99.4924 78.52 100.186 77.84C100.879 77.1467 101.772 76.8 102.866 76.8C103.732 76.8 104.626 77.0133 105.546 77.44L105.226 78.26C104.466 77.9533 103.732 77.8 103.026 77.8C102.199 77.8 101.532 78.04 101.026 78.52C100.519 78.9867 100.266 79.72 100.266 80.72V83.62C100.266 84.54 100.539 85.2067 101.086 85.62C101.646 86.0333 102.386 86.24 103.306 86.24C103.906 86.24 104.586 86.1533 105.346 85.98L105.586 86.88Z" fill="#F5F5F5"/>
<path d="M50.8549 128H51.9749V142H50.8549V128ZM62.0123 142C60.5723 142.147 59.5323 142.22 58.8923 142.22C57.4923 142.22 56.3789 141.96 55.5523 141.44C54.7256 140.92 54.3123 139.98 54.3123 138.62V136.96C54.3123 135.64 54.7723 134.753 55.6923 134.3C56.1323 134.073 56.6923 133.96 57.3723 133.96C57.9989 133.96 58.6323 134.067 59.2723 134.28C59.9123 134.48 60.4523 134.747 60.8923 135.08C60.8923 134.347 60.6789 133.767 60.2523 133.34C59.8256 132.9 59.0056 132.68 57.7923 132.68L57.8523 131.82C59.1323 131.82 60.0723 132.027 60.6723 132.44C61.2856 132.84 61.6589 133.32 61.7923 133.88C61.9389 134.44 62.0123 135.16 62.0123 136.04V142ZM60.8923 135.94C60.3456 135.687 59.7589 135.467 59.1323 135.28C58.5189 135.093 57.9523 135 57.4323 135C56.0856 135 55.4123 135.673 55.4123 137.02V138.76C55.4123 139.627 55.7123 140.26 56.3123 140.66C56.9123 141.047 57.7656 141.24 58.8723 141.24C59.4456 141.24 60.1189 141.187 60.8923 141.08V135.94ZM67.9279 145.34C68.8212 145.007 69.2679 144.313 69.2679 143.26V141.02C69.0146 141.447 68.6346 141.76 68.1279 141.96C67.6212 142.147 67.0746 142.24 66.4879 142.24C65.3146 142.24 64.4079 141.927 63.7679 141.3C63.1412 140.66 62.8279 139.72 62.8279 138.48V131.98H63.9079V138.68C63.9079 139.533 64.1412 140.173 64.6079 140.6C65.0746 141.013 65.7012 141.22 66.4879 141.22C67.3146 141.22 67.9812 141.013 68.4879 140.6C68.9946 140.187 69.2479 139.547 69.2479 138.68V134.74C69.2479 134.1 69.2679 133.627 69.3079 133.32C69.3479 133 69.4679 132.707 69.6679 132.44C69.8812 132.16 70.2279 131.947 70.7079 131.8L71.0079 132.56C70.5546 132.76 70.3279 133.227 70.3279 133.96V143.22C70.3279 144.033 70.1679 144.673 69.8479 145.14C69.5279 145.607 68.9879 145.96 68.2279 146.2L67.9279 145.34ZM80.229 138.32C80.229 139.44 79.9223 140.367 79.309 141.1C78.6957 141.833 77.769 142.2 76.529 142.2C75.289 142.2 74.349 141.833 73.709 141.1C73.0823 140.353 72.769 139.427 72.769 138.32V135.68C72.769 134.413 73.089 133.447 73.729 132.78C74.3823 132.1 75.3157 131.76 76.529 131.76C77.689 131.76 78.5957 132.113 79.249 132.82C79.9023 133.513 80.229 134.467 80.229 135.68V138.32ZM79.109 135.68C79.109 134.68 78.8757 133.947 78.409 133.48C77.9557 133.013 77.329 132.78 76.529 132.78C75.7023 132.78 75.0557 133.013 74.589 133.48C74.1223 133.947 73.889 134.68 73.889 135.68V138.52C73.889 139.32 74.1223 139.967 74.589 140.46C75.069 140.953 75.7157 141.2 76.529 141.2C77.3557 141.2 77.989 140.96 78.429 140.48C78.8823 139.987 79.109 139.333 79.109 138.52V135.68ZM88.0565 140.98C87.7365 141.38 87.3298 141.687 86.8365 141.9C86.3565 142.113 85.8698 142.22 85.3765 142.22C82.8698 142.22 81.6165 141 81.6165 138.56V131.98H82.7365V138.7C82.7365 139.553 82.9698 140.187 83.4365 140.6C83.9165 141.013 84.5632 141.22 85.3765 141.22C86.1765 141.22 86.8032 141.02 87.2565 140.62C87.7232 140.207 87.9565 139.567 87.9565 138.7V131.98H89.0765V142H87.9765L88.0565 140.98ZM92.8418 142.26C92.0951 142.047 91.5551 141.707 91.2218 141.24C90.8885 140.773 90.7218 140.147 90.7218 139.36V128H91.8418V131.98H94.2418L93.7618 133.04H91.8418V139.36C91.8418 140.427 92.2818 141.107 93.1618 141.4L92.8418 142.26Z" fill="#F5F5F5"/>
</svg>
