<svg width="500" height="500" viewBox="0 0 500 500" fill="none" xmlns="http://www.w3.org/2000/svg">
<path d="M418.81 241.79C512.4 294.63 512.4 380.31 418.81 433.16C325.22 486.01 173.48 486 79.88 433.16C-13.72 380.32 -13.71 294.64 79.88 241.79C173.47 188.94 325.22 188.94 418.81 241.79Z" fill="#E6E6E6"/>
<path opacity="0.8" d="M418.81 241.79C512.4 294.63 512.4 380.31 418.81 433.16C325.22 486.01 173.48 486 79.88 433.16C-13.72 380.32 -13.71 294.64 79.88 241.79C173.47 188.94 325.22 188.94 418.81 241.79Z" fill="#E6E6E6"/>
<path opacity="0.1" d="M270.44 324.08L315.73 297.94C316.048 297.779 316.399 297.695 316.755 297.695C317.111 297.695 317.462 297.779 317.78 297.94L384 336.25C384.124 336.293 384.231 336.373 384.306 336.48C384.382 336.587 384.423 336.714 384.423 336.845C384.423 336.976 384.382 337.103 384.306 337.21C384.231 337.317 384.124 337.397 384 337.44L338.71 363.59C338.392 363.751 338.041 363.835 337.685 363.835C337.329 363.835 336.978 363.751 336.66 363.59L270.42 325.28C270.293 325.237 270.184 325.155 270.107 325.046C270.03 324.937 269.99 324.806 269.992 324.673C269.994 324.539 270.039 324.41 270.119 324.303C270.2 324.197 270.312 324.119 270.44 324.08V324.08Z" fill="black"/>
<g opacity="0.1">
<path d="M63 371.19L44 360.19C43.7517 360.107 43.5359 359.947 43.383 359.735C43.2301 359.522 43.1478 359.267 43.1478 359.005C43.1478 358.743 43.2301 358.488 43.383 358.275C43.5359 358.063 43.7517 357.903 44 357.82L274.83 224.56C275.467 224.237 276.171 224.068 276.885 224.068C277.599 224.068 278.303 224.237 278.94 224.56L297.94 235.56C298.188 235.643 298.404 235.803 298.557 236.015C298.71 236.228 298.792 236.483 298.792 236.745C298.792 237.007 298.71 237.262 298.557 237.475C298.404 237.687 298.188 237.847 297.94 237.93L67.1 371.19C66.4645 371.512 65.7622 371.679 65.05 371.679C64.3377 371.679 63.6355 371.512 63 371.19V371.19Z" fill="black"/>
<path d="M260.17 222.33L301.09 198.69C301.598 198.433 302.16 198.298 302.73 198.298C303.3 198.298 303.862 198.433 304.37 198.69L354.64 227.69C354.84 227.756 355.014 227.883 355.138 228.054C355.261 228.224 355.328 228.429 355.328 228.64C355.328 228.851 355.261 229.056 355.138 229.226C355.014 229.397 354.84 229.524 354.64 229.59L313.72 253.23C313.212 253.487 312.65 253.622 312.08 253.622C311.51 253.622 310.948 253.487 310.44 253.23L260.17 224.23C259.97 224.164 259.796 224.037 259.672 223.866C259.549 223.696 259.482 223.491 259.482 223.28C259.482 223.069 259.549 222.864 259.672 222.694C259.796 222.523 259.97 222.396 260.17 222.33Z" fill="black"/>
</g>
<path opacity="0.1" d="M159.37 419.5L210.95 389.55C211.569 389.234 212.255 389.069 212.95 389.069C213.645 389.069 214.331 389.234 214.95 389.55L275.87 424.73C276.112 424.809 276.324 424.963 276.473 425.17C276.623 425.376 276.704 425.625 276.704 425.88C276.704 426.135 276.623 426.384 276.473 426.59C276.324 426.797 276.112 426.951 275.87 427.03L224.27 457C223.651 457.316 222.965 457.481 222.27 457.481C221.575 457.481 220.889 457.316 220.27 457L159.37 421.8C159.128 421.721 158.916 421.567 158.767 421.36C158.617 421.154 158.536 420.905 158.536 420.65C158.536 420.395 158.617 420.146 158.767 419.94C158.916 419.733 159.128 419.579 159.37 419.5V419.5Z" fill="black"/>
<path opacity="0.1" d="M94 404.57L82.65 398C82.4017 397.917 82.1859 397.757 82.033 397.545C81.8801 397.332 81.7978 397.077 81.7978 396.815C81.7978 396.553 81.8801 396.298 82.033 396.085C82.1859 395.873 82.4017 395.713 82.65 395.63L151.73 355.75C152.367 355.427 153.071 355.258 153.785 355.258C154.499 355.258 155.203 355.427 155.84 355.75L167.14 362.27C167.388 362.353 167.604 362.513 167.757 362.725C167.91 362.938 167.992 363.193 167.992 363.455C167.992 363.717 167.91 363.972 167.757 364.185C167.604 364.397 167.388 364.557 167.14 364.64L98.06 404.57C97.4297 404.885 96.7347 405.049 96.03 405.049C95.3253 405.049 94.6303 404.885 94 404.57V404.57Z" fill="black"/>
<path opacity="0.1" d="M182.18 354.09L170.88 347.57C170.632 347.487 170.416 347.327 170.263 347.115C170.11 346.902 170.028 346.647 170.028 346.385C170.028 346.123 170.11 345.868 170.263 345.655C170.416 345.443 170.632 345.283 170.88 345.2L246.07 301.71C246.707 301.387 247.411 301.218 248.125 301.218C248.839 301.218 249.543 301.387 250.18 301.71L261.48 308.23C261.728 308.313 261.944 308.473 262.097 308.685C262.25 308.898 262.332 309.153 262.332 309.415C262.332 309.677 262.25 309.932 262.097 310.145C261.944 310.357 261.728 310.517 261.48 310.6L186.29 354.09C185.653 354.413 184.949 354.582 184.235 354.582C183.521 354.582 182.817 354.413 182.18 354.09V354.09Z" fill="black"/>
<path opacity="0.1" d="M400.4 381.58C394.78 381.58 389.03 380.93 384.01 378.4C382.42 377.59 380.71 376.22 380.92 374.4C381.1 372.81 382.76 371.82 384.31 371.4C387.44 370.53 390.76 370.89 393.98 370.51C399.08 369.9 403.76 367.44 408.7 366C409.693 365.707 410.693 365.457 411.7 365.25C415.588 364.486 419.549 364.15 423.51 364.25C425.14 364.213 426.769 364.35 428.37 364.66C430.37 365.09 432.37 365.5 434.37 365.87C442.27 367.35 450.37 368.27 458.37 366.94C460.45 366.59 462.59 366.1 464.65 366.57C466.11 366.91 468.32 368.29 468.35 370.01C468.35 371.35 466.35 373.1 465.4 373.93C459.23 379.41 450.62 381.3 442.4 381.52C434.18 381.74 425.92 380.52 417.67 380.62C411.98 380.71 406.32 381.46 400.67 381.52L400.4 381.58Z" fill="black"/>
<path d="M67.83 332.93C68.56 324.64 64.07 306.93 56.41 295.4C48.75 283.87 35.9 274.81 26 277.25C16.78 279.53 16.72 291.36 26.9 300.1C37.08 308.84 52.55 320 56.14 333.92L64.71 351.31L67.83 332.93Z" fill="#8C503A"/>
<path opacity="0.1" d="M67.83 332.93C68.56 324.64 64.07 306.93 56.41 295.4C48.75 283.87 35.9 274.81 26 277.25C16.78 279.53 16.72 291.36 26.9 300.1C37.08 308.84 52.55 320 56.14 333.92L64.71 351.31L67.83 332.93Z" fill="black"/>
<path d="M67.45 344.33C67.3192 344.307 67.1997 344.241 67.1094 344.144C67.0192 344.046 66.9632 343.922 66.95 343.79C63.88 315 43 290 29.73 283.68C29.5845 283.611 29.4722 283.487 29.4179 283.335C29.3636 283.183 29.3715 283.016 29.44 282.87C29.4733 282.797 29.5208 282.731 29.5799 282.677C29.6389 282.623 29.7082 282.581 29.7838 282.554C29.8593 282.527 29.9394 282.515 30.0195 282.52C30.0996 282.524 30.178 282.545 30.25 282.58C43.76 289 65 314.43 68.15 343.67C68.1668 343.83 68.1195 343.991 68.0183 344.116C67.9171 344.242 67.7703 344.322 67.61 344.34L67.45 344.33Z" fill="white"/>
<path d="M61.63 362.08C60.71 357.3 55.69 349.08 47.03 341.94C37.46 334.01 24.85 329.65 22.35 323.94C19.35 317.05 25.44 311.33 35.8 313.55C46.16 315.77 63.3 331.66 64.36 353.42L61.63 362.08Z" fill="#8C503A"/>
<path d="M64.09 357.37C63.9735 357.35 63.8652 357.298 63.7783 357.218C63.6913 357.138 63.6294 357.034 63.6 356.92C57.05 331.92 39.29 321.76 30.81 319.92C30.6543 319.884 30.5189 319.789 30.4329 319.654C30.3469 319.519 30.3171 319.356 30.35 319.2C30.3665 319.121 30.3987 319.046 30.4446 318.98C30.4905 318.914 30.5493 318.858 30.6174 318.815C30.6856 318.772 30.7616 318.743 30.8411 318.731C30.9206 318.718 31.0018 318.721 31.08 318.74C40.45 320.8 58.08 331.11 64.78 356.65C64.8198 356.805 64.797 356.97 64.7166 357.108C64.6361 357.246 64.5045 357.348 64.35 357.39C64.2629 357.402 64.1742 357.396 64.09 357.37V357.37Z" fill="white"/>
<path d="M312.08 249.12V220.32L349.49 198.73V227.52L312.08 249.12Z" fill="#8C503A"/>
<path d="M312.08 220.32L265.32 193.33V222.12L312.08 249.12V220.32Z" fill="#8C503A"/>
<path opacity="0.15" d="M312.08 220.32L265.32 193.33V222.12L312.08 249.12V220.32Z" fill="black"/>
<path d="M312.08 220.32L350.6 198.08L302.73 170.43L264.21 192.68L312.08 220.32Z" fill="#8C503A"/>
<path opacity="0.45" d="M312.08 220.32L350.6 198.08L302.73 170.43L264.21 192.68L312.08 220.32Z" fill="white"/>
<path d="M312.08 220.32V227.52L350.6 205.29V198.08L312.08 220.32Z" fill="#8C503A"/>
<path opacity="0.2" d="M312.08 227.52L349.49 205.93V207.51L312.08 229.11V227.52Z" fill="black"/>
<path d="M264.21 192.68L312.08 220.32V227.52L264.21 199.89V192.68Z" fill="#8C503A"/>
<path opacity="0.2" d="M264.21 192.68L312.08 220.32V227.52L264.21 199.89V192.68Z" fill="black"/>
<path opacity="0.2" d="M312.08 227.52L265.32 200.53V202.11L312.08 229.11V227.52Z" fill="black"/>
<path d="M324.4 224.7L337.18 217.32C337.73 217 338.18 217.26 338.18 217.9V225.46C338.162 225.807 338.062 226.144 337.888 226.445C337.714 226.746 337.471 227.001 337.18 227.19L324.4 234.57C323.85 234.89 323.4 234.63 323.4 233.99V226.43C323.418 226.083 323.518 225.746 323.692 225.445C323.866 225.144 324.109 224.889 324.4 224.7Z" fill="#455A64"/>
<path d="M325.22 225.56L336.36 219.13C336.73 218.92 337.02 219.13 337.02 219.51V225.17C337.008 225.4 336.942 225.624 336.827 225.824C336.712 226.023 336.552 226.193 336.36 226.32L325.22 232.75C324.85 232.96 324.56 232.75 324.56 232.37V226.71C324.572 226.48 324.638 226.256 324.753 226.056C324.868 225.857 325.028 225.687 325.22 225.56V225.56Z" fill="#F5F5F5"/>
<g opacity="0.5">
<path d="M325.53 227.05C325.494 227.051 325.459 227.039 325.431 227.018C325.402 226.996 325.382 226.966 325.373 226.931C325.364 226.897 325.366 226.86 325.38 226.827C325.394 226.794 325.419 226.767 325.45 226.75L336 220.68C336.037 220.659 336.081 220.653 336.122 220.664C336.143 220.67 336.162 220.68 336.179 220.693C336.195 220.705 336.209 220.722 336.22 220.74C336.231 220.758 336.237 220.779 336.24 220.8C336.243 220.821 336.241 220.842 336.236 220.862C336.23 220.883 336.22 220.902 336.207 220.919C336.195 220.935 336.178 220.949 336.16 220.96L325.61 227L325.53 227.05Z" fill="#455A64"/>
<path d="M325.53 228.44C325.494 228.441 325.459 228.429 325.431 228.408C325.402 228.386 325.382 228.356 325.373 228.321C325.364 228.287 325.366 228.25 325.38 228.217C325.394 228.184 325.419 228.157 325.45 228.14L336 222.07C336.037 222.049 336.081 222.043 336.122 222.054C336.164 222.066 336.199 222.093 336.22 222.13C336.241 222.167 336.247 222.211 336.236 222.252C336.224 222.294 336.197 222.329 336.16 222.35L325.64 228.42L325.53 228.44Z" fill="#455A64"/>
<path d="M325.53 229.84C325.494 229.841 325.459 229.829 325.431 229.808C325.402 229.786 325.382 229.756 325.373 229.721C325.364 229.687 325.366 229.65 325.38 229.617C325.394 229.585 325.419 229.557 325.45 229.54L336 223.46C336.037 223.439 336.081 223.433 336.122 223.444C336.143 223.45 336.162 223.46 336.179 223.473C336.195 223.486 336.209 223.502 336.22 223.52C336.231 223.538 336.237 223.559 336.24 223.58C336.243 223.601 336.241 223.622 336.236 223.642C336.23 223.663 336.22 223.682 336.207 223.699C336.195 223.715 336.178 223.73 336.16 223.74L325.64 229.81L325.53 229.84Z" fill="#455A64"/>
<path d="M325.53 231.23C325.494 231.231 325.459 231.219 325.431 231.198C325.402 231.176 325.382 231.146 325.373 231.111C325.364 231.077 325.366 231.04 325.38 231.007C325.394 230.975 325.419 230.947 325.45 230.93L336 224.85C336.037 224.829 336.081 224.823 336.122 224.834C336.164 224.846 336.199 224.873 336.22 224.91C336.241 224.947 336.247 224.991 336.236 225.032C336.224 225.074 336.197 225.109 336.16 225.13L325.64 231.2L325.53 231.23Z" fill="#455A64"/>
</g>
<path d="M312.08 216.71V187.91L349.49 166.31V195.11L312.08 216.71Z" fill="#8C503A"/>
<path d="M312.08 187.91L265.32 160.91V189.71L312.08 216.71V187.91Z" fill="#8C503A"/>
<path opacity="0.15" d="M312.08 187.91L265.32 160.91V189.71L312.08 216.71V187.91Z" fill="black"/>
<path d="M312.08 187.91L350.6 165.66L302.73 138.02L264.21 160.26L312.08 187.91Z" fill="#8C503A"/>
<path opacity="0.6" d="M312.08 187.91L350.6 165.66L302.73 138.02L264.21 160.26L312.08 187.91Z" fill="white"/>
<path d="M312.08 187.91V195.11L350.6 172.87V165.66L312.08 187.91Z" fill="#8C503A"/>
<path opacity="0.2" d="M312.08 195.11L349.49 173.51V175.09L312.08 196.69V195.11Z" fill="black"/>
<path d="M264.21 160.26L312.08 187.91V195.11L264.21 167.47V160.26Z" fill="#8C503A"/>
<path opacity="0.2" d="M264.21 160.26L312.08 187.91V195.11L264.21 167.47V160.26Z" fill="black"/>
<path opacity="0.2" d="M312.08 195.11L265.32 168.11V169.69L312.08 196.69V195.11Z" fill="black"/>
<path d="M324.4 192.28L337.18 184.9C337.73 184.58 338.18 184.84 338.18 185.48V193C338.162 193.347 338.062 193.684 337.888 193.985C337.714 194.286 337.471 194.541 337.18 194.73L324.4 202.11C323.85 202.43 323.4 202.17 323.4 201.53V194C323.42 193.655 323.521 193.319 323.694 193.021C323.868 192.722 324.11 192.468 324.4 192.28V192.28Z" fill="#455A64"/>
<path d="M325.22 193.14L336.36 186.71C336.73 186.5 337.02 186.71 337.02 187.09V192.75C337.008 192.98 336.942 193.204 336.827 193.404C336.712 193.603 336.552 193.773 336.36 193.9L325.22 200.33C324.85 200.54 324.56 200.33 324.56 199.95V194.29C324.572 194.06 324.638 193.836 324.753 193.636C324.868 193.437 325.028 193.267 325.22 193.14V193.14Z" fill="#F5F5F5"/>
<g opacity="0.5">
<path d="M325.53 194.64C325.494 194.641 325.459 194.629 325.431 194.608C325.402 194.586 325.382 194.556 325.373 194.521C325.364 194.487 325.366 194.45 325.38 194.417C325.394 194.385 325.419 194.357 325.45 194.34L336 188.26C336.037 188.239 336.081 188.233 336.122 188.244C336.164 188.256 336.199 188.283 336.22 188.32C336.241 188.357 336.247 188.401 336.236 188.442C336.224 188.484 336.197 188.519 336.16 188.54L325.64 194.61L325.53 194.64Z" fill="#455A64"/>
<path d="M325.53 196C325.494 196.001 325.459 195.989 325.431 195.968C325.402 195.946 325.382 195.916 325.373 195.881C325.364 195.847 325.366 195.81 325.38 195.777C325.394 195.745 325.419 195.717 325.45 195.7L336 189.65C336.037 189.629 336.081 189.623 336.122 189.634C336.143 189.64 336.162 189.65 336.179 189.663C336.195 189.676 336.209 189.692 336.22 189.71C336.231 189.728 336.237 189.749 336.24 189.77C336.243 189.791 336.241 189.812 336.236 189.832C336.23 189.853 336.22 189.872 336.207 189.889C336.195 189.906 336.178 189.92 336.16 189.93L325.61 196H325.53Z" fill="#455A64"/>
<path d="M325.53 197.42C325.494 197.421 325.459 197.409 325.431 197.388C325.402 197.366 325.382 197.336 325.373 197.301C325.364 197.267 325.366 197.23 325.38 197.197C325.394 197.165 325.419 197.137 325.45 197.12L336 191C336.018 190.989 336.039 190.983 336.06 190.98C336.081 190.977 336.102 190.979 336.122 190.984C336.143 190.99 336.162 191 336.179 191.013C336.195 191.025 336.209 191.042 336.22 191.06C336.231 191.078 336.237 191.099 336.24 191.12C336.243 191.141 336.241 191.162 336.236 191.182C336.23 191.203 336.22 191.222 336.207 191.239C336.195 191.255 336.178 191.269 336.16 191.28L325.64 197.35L325.53 197.42Z" fill="#455A64"/>
<path d="M325.53 198.81C325.494 198.811 325.459 198.799 325.431 198.778C325.402 198.756 325.382 198.726 325.373 198.691C325.364 198.657 325.366 198.62 325.38 198.587C325.394 198.554 325.419 198.527 325.45 198.51L336 192.43C336.037 192.409 336.081 192.403 336.122 192.414C336.164 192.426 336.199 192.453 336.22 192.49C336.241 192.527 336.247 192.571 336.236 192.612C336.224 192.654 336.197 192.689 336.16 192.71L325.64 198.78L325.53 198.81Z" fill="#455A64"/>
</g>
<path d="M64.94 187.87C63.94 187.27 60.87 184.51 60.87 183.23V171.23C60.9082 170.537 61.1091 169.862 61.4566 169.261C61.8041 168.66 62.2883 168.149 62.87 167.77L280.17 42.27C281.27 41.63 282.68 41.19 286.24 43.44C286.79 43.8256 287.245 44.3311 287.57 44.9184C287.896 45.5057 288.084 46.1594 288.12 46.83V58.83C288.082 59.5233 287.881 60.1978 287.533 60.7989C287.186 61.4001 286.702 61.9109 286.12 62.29L68.81 187.8C68.2155 188.114 67.5556 188.284 66.8833 188.296C66.2111 188.308 65.5454 188.162 64.94 187.87V187.87Z" fill="#8C503A"/>
<path opacity="0.5" d="M288.09 46.51C287.95 45.51 287.09 45.1 286.09 45.68L68.81 171.14C68.2242 171.517 67.74 172.032 67.4 172.64L61.46 169.22C61.7976 168.613 62.2825 168.1 62.87 167.73L280.17 42.28C281.27 41.64 282.8 41.28 286.23 43.45C286.735 43.8034 287.161 44.2579 287.481 44.7846C287.802 45.3114 288.009 45.8989 288.09 46.51V46.51Z" fill="white"/>
<path d="M68.43 366.18H68.35C68.2897 366.211 68.2259 366.234 68.16 366.25H68.01C67.9194 366.281 67.8254 366.301 67.73 366.31C67.6703 366.319 67.6097 366.319 67.55 366.31H67.25C66.4618 366.374 65.6702 366.237 64.95 365.91C61.2 364.31 60.88 362.55 60.88 361.27V197.71L66.88 201.13V364.85C66.88 365.75 67.33 366.28 67.99 366.28C68.0795 366.294 68.1705 366.294 68.26 366.28V366.28L68.43 366.18Z" fill="#E6E6E6"/>
<path opacity="0.1" d="M67.4 172.63C67.0361 173.235 66.8362 173.924 66.82 174.63V201.16L60.82 197.74V171.19C60.8154 171.11 60.8154 171.03 60.82 170.95C60.8376 170.782 60.8643 170.615 60.9 170.45C61.0092 170.016 61.1775 169.599 61.4 169.21L67.4 172.63Z" fill="#263238"/>
<path d="M288.12 237.09C288.083 237.783 287.882 238.458 287.534 239.06C287.187 239.661 286.702 240.171 286.12 240.55L68.81 366C67.71 366.64 66.81 366.12 66.81 364.85V185.28L72.31 182.1C73.41 181.46 75.2 171.77 76.31 171.1L124 143.6C125.11 142.96 127.71 150.12 128.81 149.48L288.09 57.48V237.09H288.12Z" fill="#F0F0F0"/>
<path d="M76.32 231.77L117.32 208.09C118.42 207.45 119.32 207.97 119.32 209.24V325.91C119.282 326.603 119.081 327.278 118.733 327.879C118.386 328.48 117.902 328.991 117.32 329.37L76.32 353C75.22 353.64 74.32 353.12 74.32 351.85V235.24C74.3566 234.545 74.5569 233.868 74.9044 233.265C75.252 232.662 75.737 232.15 76.32 231.77V231.77Z" fill="#FAFAFA"/>
<path d="M128.83 240.44L198.83 199.98C199.93 199.34 200.83 199.86 200.83 201.13V278.8C200.792 279.493 200.591 280.168 200.243 280.769C199.896 281.37 199.412 281.881 198.83 282.26L128.88 322.72C127.78 323.36 126.88 322.84 126.88 321.57V243.9C126.913 243.211 127.106 242.539 127.444 241.939C127.783 241.338 128.258 240.825 128.83 240.44V240.44Z" fill="#FAFAFA"/>
<path d="M208.67 194L278.67 153.54C279.77 152.9 280.67 153.42 280.67 154.69V232.37C280.632 233.063 280.431 233.738 280.083 234.339C279.736 234.94 279.252 235.451 278.67 235.83L208.72 276.29C207.62 276.93 206.72 276.41 206.72 275.14V197.44C206.756 196.755 206.95 196.087 207.289 195.49C207.627 194.893 208.1 194.383 208.67 194V194Z" fill="#FAFAFA"/>
<path d="M76.32 201.45L278.62 84.65C279.72 84.01 280.62 84.53 280.62 85.8V107.17C280.582 107.863 280.381 108.538 280.033 109.139C279.686 109.74 279.202 110.251 278.62 110.63L76.32 227.44C75.22 228.08 74.32 227.56 74.32 226.29V204.92C74.3566 204.225 74.5569 203.548 74.9044 202.945C75.252 202.342 75.737 201.83 76.32 201.45V201.45Z" fill="#455A64"/>
<path d="M205.6 137.94V141.67C205.6 142.43 206.14 142.74 206.8 142.36L265.62 108.36V101.86L206.8 135.86C206.451 136.088 206.16 136.396 205.952 136.757C205.743 137.118 205.623 137.523 205.6 137.94V137.94Z" fill="#FAFAFA"/>
<path d="M271.92 98.27C272.58 97.89 273.12 98.2 273.12 98.96V102.69C273.098 103.107 272.978 103.512 272.769 103.874C272.561 104.235 272.27 104.542 271.92 104.77L265.62 108.41V101.91L271.92 98.27Z" fill="#8C503A"/>
<path d="M271.45 103.38L270.75 103.16C270.823 102.862 270.859 102.557 270.86 102.25C270.891 101.966 270.849 101.679 270.737 101.416C270.625 101.153 270.447 100.924 270.22 100.75C270.068 100.662 269.896 100.616 269.72 100.616C269.544 100.616 269.372 100.662 269.22 100.75C268.774 101.093 268.415 101.536 268.172 102.043C267.929 102.55 267.808 103.108 267.82 103.67C267.789 103.954 267.831 104.241 267.943 104.504C268.055 104.767 268.233 104.996 268.46 105.17C268.596 105.25 268.752 105.291 268.91 105.29C269.115 105.286 269.315 105.227 269.49 105.12C270.025 104.75 270.425 104.217 270.63 103.6L271.33 103.82H271.41C271.474 103.822 271.536 103.801 271.585 103.761C271.634 103.72 271.666 103.663 271.676 103.6C271.686 103.538 271.672 103.473 271.638 103.42C271.604 103.366 271.551 103.327 271.49 103.31L271.45 103.38ZM269.19 104.73C269.114 104.775 269.028 104.799 268.94 104.799C268.852 104.799 268.766 104.775 268.69 104.73C268.555 104.603 268.45 104.447 268.385 104.274C268.319 104.101 268.293 103.915 268.31 103.73C268.302 103.259 268.4 102.792 268.598 102.365C268.795 101.937 269.086 101.559 269.45 101.26C269.546 101.199 269.656 101.165 269.77 101.16C269.832 101.143 269.898 101.143 269.96 101.16C270.095 101.287 270.2 101.443 270.265 101.616C270.331 101.789 270.357 101.975 270.34 102.16C270.364 102.648 270.273 103.134 270.075 103.58C269.877 104.026 269.577 104.42 269.2 104.73H269.19Z" fill="#FAFAFA"/>
<path d="M126.83 204.92V230.62C126.83 231.89 127.73 232.41 128.83 231.77L278.62 145.29C279.202 144.911 279.686 144.4 280.033 143.799C280.381 143.198 280.582 142.523 280.62 141.83V116.13C280.62 114.86 279.72 114.34 278.62 114.98L128.83 201.45C128.247 201.83 127.762 202.342 127.414 202.945C127.067 203.548 126.867 204.225 126.83 204.92Z" fill="#FAFAFA"/>
<path d="M288.11 57.52V73.37L66.82 201.13V185.28L70.93 182.9C72.03 182.26 72.4 181.29 72.93 179.44L74.32 174.6C74.76 172.92 75.22 171.77 76.32 171.14L124 143.6C125.11 142.96 126 142.89 126.82 144.29L128.53 147.39C129.16 148.47 129.47 149.11 130.53 148.47L288.11 57.52Z" fill="#E0E0E0"/>
<path d="M278.73 54C279.91 53.32 280.87 53.87 280.87 55.23C280.829 55.9714 280.614 56.6927 280.242 57.3355C279.87 57.9783 279.352 58.5245 278.73 58.93C277.55 59.61 276.59 59.06 276.59 57.7C276.631 56.9586 276.846 56.2373 277.218 55.5945C277.59 54.9517 278.108 54.4054 278.73 54V54Z" fill="white"/>
<path d="M269.68 59.2C270.86 58.52 271.82 59.07 271.82 60.43C271.779 61.1714 271.564 61.8927 271.192 62.5355C270.82 63.1783 270.302 63.7245 269.68 64.13C268.5 64.81 267.54 64.26 267.54 62.9C267.581 62.1586 267.796 61.4373 268.168 60.7945C268.54 60.1517 269.058 59.6055 269.68 59.2V59.2Z" fill="white"/>
<path d="M260.62 64.42C261.8 63.74 262.76 64.29 262.76 65.65C262.719 66.3914 262.504 67.1127 262.132 67.7555C261.76 68.3983 261.242 68.9445 260.62 69.35C259.44 70.03 258.48 69.48 258.48 68.12C258.521 67.3785 258.736 66.6572 259.108 66.0145C259.48 65.3717 259.998 64.8254 260.62 64.42V64.42Z" fill="white"/>
<path d="M93.07 180.19V177.09C93.1082 176.397 93.3091 175.722 93.6566 175.121C94.0041 174.52 94.4883 174.009 95.07 173.63L274.86 69.88C275.96 69.24 276.86 69.76 276.86 71.03V74.13C276.822 74.8233 276.621 75.4978 276.273 76.099C275.926 76.7001 275.442 77.2109 274.86 77.59L95.07 181.34C94 182 93.07 181.47 93.07 180.19Z" fill="#FAFAFA"/>
<path d="M272.27 78.17C272.217 78.1802 272.163 78.1802 272.11 78.17C272.011 78.123 271.931 78.0444 271.882 77.9465C271.833 77.8486 271.818 77.7372 271.84 77.63L272.02 76.15L271.33 75.65C271.269 75.6029 271.22 75.5422 271.187 75.4727C271.154 75.4032 271.138 75.3269 271.14 75.25C271.14 75.1293 271.167 75.01 271.219 74.901C271.271 74.792 271.346 74.696 271.44 74.62L272.5 73.8C272.505 73.7736 272.505 73.7464 272.5 73.72L272.97 72.17C273 72.0438 273.066 71.9291 273.16 71.8402C273.254 71.7513 273.372 71.6921 273.5 71.67C273.586 71.6633 273.672 71.6838 273.745 71.7287C273.819 71.7736 273.877 71.8405 273.91 71.92L274.31 72.76L275.2 72.42C275.281 72.3855 275.372 72.3775 275.458 72.3973C275.544 72.417 275.622 72.4635 275.68 72.53C275.753 72.6377 275.792 72.7648 275.792 72.895C275.792 73.0251 275.753 73.1523 275.68 73.26L275 74.65C274.993 74.6796 274.993 74.7104 275 74.74L275.18 76.04C275.192 76.1586 275.177 76.2783 275.138 76.3907C275.098 76.503 275.034 76.6052 274.95 76.69C274.898 76.7482 274.833 76.7931 274.759 76.821C274.686 76.8488 274.608 76.8588 274.53 76.85L273.67 76.74L272.74 77.93C272.689 78.0069 272.619 78.0693 272.536 78.1113C272.454 78.1533 272.362 78.1735 272.27 78.17V78.17ZM271.76 75.17L272.45 75.67C272.524 75.7283 272.581 75.8056 272.614 75.8937C272.648 75.9817 272.657 76.0772 272.64 76.17L272.52 77.17L273.15 76.37C273.203 76.2927 273.275 76.2308 273.359 76.1904C273.443 76.15 273.537 76.1326 273.63 76.14L274.49 76.25C274.498 76.2172 274.498 76.1828 274.49 76.15L274.31 74.85C274.29 74.6878 274.322 74.5233 274.4 74.38L275.07 73.12L274.38 73.38C274.278 73.4208 274.163 73.4207 274.061 73.3798C273.959 73.3389 273.876 73.2602 273.83 73.16L273.52 72.5L273.1 73.88C273.057 74.0369 272.966 74.1766 272.84 74.28L271.78 75.1C271.77 75.1188 271.763 75.1391 271.76 75.16V75.17Z" fill="#455A64"/>
<g opacity="0.3">
<path d="M76 188.12L72.86 189.93L74.06 187.63C74.1082 187.545 74.1335 187.448 74.1335 187.35C74.1335 187.252 74.1082 187.155 74.06 187.07C73.97 186.96 73.81 187.07 73.7 187.24L72 190.51C71.9969 190.55 71.9969 190.59 72 190.63V190.63C71.9932 190.686 71.9932 190.744 72 190.8C71.9925 190.846 71.9925 190.894 72 190.94V190.94C71.9959 190.963 71.9959 190.987 72 191.01V191.01L73.7 192.32C73.7244 192.339 73.7543 192.349 73.785 192.349C73.8157 192.349 73.8456 192.339 73.87 192.32C73.9564 192.261 74.0228 192.178 74.06 192.08C74.15 191.87 74.14 191.63 74.06 191.55L72.86 190.63L76 188.89C76.0791 188.826 76.1427 188.746 76.186 188.654C76.2293 188.562 76.2512 188.461 76.25 188.36C76.24 188.14 76.13 188 76 188.12Z" fill="black"/>
<path d="M78.61 186.6L81.75 184.79L80.55 183.87C80.45 183.79 80.43 183.55 80.55 183.34C80.67 183.13 80.8 183.02 80.91 183.1L82.61 184.41C82.6141 184.433 82.6141 184.457 82.61 184.48C82.6175 184.526 82.6175 184.574 82.61 184.62C82.6168 184.676 82.6168 184.734 82.61 184.79C82.6131 184.83 82.6131 184.87 82.61 184.91V184.91L80.91 188.19C80.8719 188.268 80.8131 188.334 80.74 188.38C80.7141 188.404 80.6802 188.417 80.645 188.417C80.6098 188.417 80.5759 188.404 80.55 188.38C80.5018 188.295 80.4765 188.198 80.4765 188.1C80.4765 188.002 80.5018 187.905 80.55 187.82L81.75 185.52L78.61 187.33C78.47 187.41 78.36 187.33 78.36 187.09C78.3646 186.995 78.3893 186.903 78.4324 186.818C78.4755 186.734 78.536 186.659 78.61 186.6Z" fill="black"/>
<path d="M88.9 177.56C88.9 177.37 88.72 177.4 88.63 177.56L88.2 178.61C87.47 178.53 86.58 179.25 85.98 180.52C85.2 182.17 85.2 184.11 85.98 184.86C86.1692 185.035 86.4134 185.139 86.6707 185.153C86.9279 185.168 87.1822 185.092 87.39 184.94C88.0175 184.521 88.5078 183.926 88.8 183.23C88.8493 183.147 88.8753 183.052 88.8753 182.955C88.8753 182.858 88.8493 182.763 88.8 182.68C88.7 182.59 88.54 182.68 88.44 182.89C87.86 184.12 86.92 184.66 86.33 184.11C85.74 183.56 85.75 182.11 86.33 180.87C86.74 180 87.33 179.48 87.86 179.45L87.54 180.24C87.46 180.45 87.54 180.64 87.66 180.55L88.94 179.71C88.9896 179.667 89.0283 179.613 89.0526 179.552C89.077 179.491 89.0864 179.425 89.08 179.36L88.9 177.56Z" fill="black"/>
<path d="M123.64 150L124.78 147.58C124.847 147.466 124.882 147.337 124.882 147.205C124.882 147.073 124.847 146.944 124.78 146.83C124.64 146.7 124.43 146.83 124.29 147.11L123.15 149.53L122.01 148.43C121.87 148.3 121.66 148.43 121.52 148.71C121.453 148.824 121.418 148.953 121.418 149.085C121.418 149.217 121.453 149.346 121.52 149.46L122.66 150.56L121.52 153C121.453 153.114 121.418 153.243 121.418 153.375C121.418 153.507 121.453 153.636 121.52 153.75C121.554 153.778 121.596 153.793 121.64 153.793C121.684 153.793 121.726 153.778 121.76 153.75C121.868 153.676 121.951 153.571 122 153.45L123.14 151.03L124.28 152.13C124.314 152.158 124.356 152.173 124.4 152.173C124.444 152.173 124.486 152.158 124.52 152.13C124.628 152.056 124.711 151.951 124.76 151.83C124.827 151.716 124.862 151.587 124.862 151.455C124.862 151.323 124.827 151.194 124.76 151.08L123.64 150Z" fill="black"/>
<path d="M279.22 68.79C279.067 68.7921 278.917 68.7432 278.795 68.651C278.673 68.5588 278.585 68.4285 278.545 68.2807C278.505 68.1329 278.515 67.976 278.574 67.8347C278.633 67.6933 278.737 67.5756 278.87 67.5L284.5 64.25C284.579 64.2047 284.666 64.1753 284.756 64.1636C284.846 64.1519 284.938 64.1581 285.025 64.1818C285.113 64.2055 285.195 64.2462 285.267 64.3016C285.339 64.3571 285.4 64.4262 285.445 64.505C285.49 64.5838 285.52 64.6707 285.531 64.7609C285.543 64.851 285.537 64.9425 285.513 65.0303C285.49 65.118 285.449 65.2003 285.393 65.2723C285.338 65.3443 285.269 65.4047 285.19 65.45L279.56 68.7C279.456 68.7588 279.339 68.7899 279.22 68.79Z" fill="black"/>
<path d="M279.22 72C279.067 72.0021 278.917 71.9531 278.795 71.8609C278.673 71.7687 278.585 71.6385 278.545 71.4907C278.505 71.3429 278.515 71.186 278.574 71.0447C278.633 70.9033 278.737 70.7856 278.87 70.71L284.5 67.46C284.579 67.4147 284.666 67.3853 284.756 67.3736C284.846 67.3619 284.938 67.3681 285.025 67.3918C285.113 67.4154 285.195 67.4562 285.267 67.5116C285.339 67.5671 285.4 67.6362 285.445 67.715C285.49 67.7938 285.52 67.8807 285.531 67.9708C285.543 68.061 285.537 68.1525 285.513 68.2403C285.49 68.328 285.449 68.4103 285.393 68.4823C285.338 68.5543 285.269 68.6147 285.19 68.66L279.56 71.91C279.456 71.9688 279.339 71.9998 279.22 72Z" fill="black"/>
<path d="M279.22 75.29C279.067 75.2921 278.917 75.2432 278.795 75.151C278.673 75.0588 278.585 74.9285 278.545 74.7807C278.505 74.6329 278.515 74.476 278.574 74.3347C278.633 74.1933 278.737 74.0756 278.87 74L284.5 70.75C284.579 70.7047 284.666 70.6753 284.756 70.6636C284.846 70.6519 284.938 70.6581 285.025 70.6818C285.113 70.7055 285.195 70.7462 285.267 70.8016C285.339 70.8571 285.4 70.9262 285.445 71.005C285.49 71.0838 285.52 71.1707 285.531 71.2609C285.543 71.351 285.537 71.4425 285.513 71.5303C285.49 71.618 285.449 71.7003 285.393 71.7723C285.338 71.8443 285.269 71.9047 285.19 71.95L279.56 75.2C279.456 75.2588 279.339 75.2899 279.22 75.29V75.29Z" fill="black"/>
</g>
<path d="M66.82 185.28V201.13L60.86 197.71V181.88L66.82 185.28Z" fill="#E0E0E0"/>
<path opacity="0.15" d="M66.82 185.28V201.13L60.86 197.71V181.88L66.82 185.28Z" fill="black"/>
<path d="M105.25 263.17V288.24L88.39 298V272.9L105.25 263.17M105.25 262.31C105.099 262.311 104.95 262.353 104.82 262.43L88 272.15C87.8685 272.226 87.7595 272.335 87.6839 272.467C87.6084 272.599 87.5691 272.748 87.57 272.9V298C87.5691 298.151 87.6082 298.3 87.6833 298.432C87.7584 298.563 87.8669 298.673 87.9978 298.749C88.1286 298.825 88.2773 298.865 88.4287 298.865C88.5801 298.865 88.7289 298.826 88.86 298.75L105.68 289C105.812 288.924 105.921 288.815 105.996 288.683C106.072 288.551 106.111 288.402 106.11 288.25V263.17C106.11 263.057 106.088 262.945 106.045 262.841C106.001 262.737 105.938 262.642 105.858 262.562C105.778 262.482 105.683 262.419 105.579 262.375C105.475 262.332 105.363 262.31 105.25 262.31V262.31Z" fill="#8C503A"/>
<path d="M102.72 268.87V276.13L102.19 276.42V274.2C102.19 273.31 101.76 272.78 101.19 272.78C100.921 272.788 100.659 272.868 100.43 273.01L97.94 274.45V285.25C97.94 286.38 98.38 287.08 98.94 287.08C99.1238 287.079 99.3037 287.027 99.46 286.93L101 286V286.77L92.57 291.64V290.87L94.14 289.97C94.6491 289.547 95.0551 289.014 95.3272 288.411C95.5992 287.808 95.7302 287.151 95.71 286.49V275.7L93.22 277.14C92.6851 277.504 92.2434 277.989 91.9307 278.555C91.6179 279.121 91.443 279.753 91.42 280.4V282.63L90.89 282.95V275.69L102.69 268.88M102.69 268.02C102.539 268.021 102.39 268.063 102.26 268.14L90.46 274.95C90.3285 275.026 90.2194 275.135 90.1439 275.267C90.0684 275.399 90.0291 275.548 90.03 275.7V282.96C90.0287 283.114 90.0686 283.265 90.1454 283.398C90.2223 283.53 90.3333 283.64 90.467 283.716C90.6007 283.791 90.7522 283.83 90.9057 283.827C91.0592 283.824 91.2092 283.78 91.34 283.7L91.87 283.38C91.9982 283.304 92.1043 283.195 92.1779 283.066C92.2516 282.936 92.2902 282.789 92.29 282.64V280.4C92.3118 279.903 92.4466 279.418 92.684 278.982C92.9213 278.545 93.2551 278.168 93.66 277.88L94.86 277.19V286.49C94.8776 287.001 94.7858 287.51 94.591 287.982C94.3961 288.455 94.1026 288.88 93.73 289.23L92.16 290.13C92.0285 290.206 91.9194 290.315 91.8439 290.447C91.7684 290.579 91.7291 290.728 91.73 290.88V291.65C91.7291 291.801 91.7681 291.95 91.8433 292.082C91.9184 292.213 92.0268 292.323 92.1577 292.399C92.2886 292.475 92.4373 292.515 92.5887 292.515C92.7401 292.515 92.8889 292.476 93.02 292.4L101.45 287.53C101.582 287.454 101.691 287.345 101.766 287.213C101.842 287.081 101.881 286.932 101.88 286.78V286C101.881 285.849 101.842 285.7 101.767 285.568C101.692 285.437 101.583 285.327 101.452 285.251C101.321 285.175 101.173 285.135 101.021 285.135C100.87 285.135 100.721 285.174 100.59 285.25L99.02 286.15H98.96C98.7833 285.848 98.7096 285.497 98.75 285.15V274.85L100.81 273.66C100.909 273.596 101.022 273.558 101.14 273.55C101.24 273.55 101.32 273.8 101.32 274.11V276.34C101.32 276.49 101.359 276.637 101.434 276.767C101.509 276.897 101.616 277.006 101.745 277.082C101.875 277.157 102.022 277.198 102.171 277.199C102.321 277.201 102.469 277.163 102.6 277.09L103.13 276.8C103.263 276.725 103.374 276.617 103.452 276.485C103.529 276.353 103.57 276.203 103.57 276.05V268.79C103.57 268.562 103.479 268.343 103.318 268.182C103.157 268.021 102.938 267.93 102.71 267.93L102.69 268.02Z" fill="#8C503A"/>
<path d="M152.36 273C152.297 273.014 152.232 273.014 152.17 273C152.118 272.975 152.072 272.941 152.034 272.898C151.996 272.856 151.967 272.806 151.948 272.752C151.93 272.698 151.922 272.641 151.926 272.584C151.929 272.527 151.945 272.471 151.97 272.42L156.97 262.27C157.045 262.151 157.145 262.05 157.262 261.973C157.379 261.895 157.511 261.843 157.65 261.82C157.78 261.803 157.913 261.814 158.039 261.852C158.164 261.89 158.281 261.954 158.38 262.04L162.64 264.84L163.2 264.95L162.8 264.79L167.87 252.45C167.944 252.32 168.047 252.209 168.169 252.124C168.292 252.04 168.433 251.983 168.58 251.96C168.716 251.943 168.853 251.957 168.983 252C169.113 252.044 169.231 252.115 169.33 252.21L175.65 258.72C175.73 258.802 175.773 258.913 175.771 259.027C175.769 259.141 175.722 259.25 175.64 259.33C175.558 259.41 175.447 259.453 175.333 259.451C175.219 259.449 175.11 259.402 175.03 259.32L168.72 252.82L163.6 265.11C163.541 265.239 163.456 265.353 163.35 265.447C163.244 265.54 163.119 265.61 162.984 265.652C162.849 265.693 162.706 265.706 162.566 265.688C162.426 265.671 162.291 265.623 162.17 265.55L157.76 262.66L152.76 272.79C152.719 272.859 152.66 272.915 152.59 272.952C152.519 272.989 152.44 273.006 152.36 273Z" fill="#8C503A"/>
<path d="M175.17 243.42V266.16L152.43 279.3V256.55L175.17 243.41M175.81 242.09C175.747 242.091 175.685 242.108 175.63 242.14L174.77 242.64L152 255.83C151.882 255.904 151.785 256.007 151.72 256.13C151.646 256.247 151.605 256.382 151.6 256.52V280.34C151.6 280.52 151.69 280.62 151.82 280.62C151.88 280.618 151.938 280.601 151.99 280.57L175.67 266.89C175.784 266.815 175.878 266.714 175.946 266.596C176.014 266.478 176.053 266.346 176.06 266.21V242.38C176.06 242.2 175.97 242.1 175.84 242.1L175.81 242.09Z" fill="#8C503A"/>
<path d="M159.56 259.56C159.34 259.563 159.122 259.508 158.93 259.4C158.701 259.25 158.517 259.04 158.397 258.794C158.278 258.547 158.227 258.273 158.25 258C158.279 257.373 158.457 256.761 158.77 256.217C159.084 255.672 159.522 255.21 160.05 254.87C160.268 254.697 160.533 254.593 160.811 254.572C161.089 254.551 161.367 254.615 161.608 254.754C161.85 254.893 162.044 255.101 162.166 255.352C162.287 255.603 162.33 255.884 162.29 256.16C162.26 256.788 162.08 257.4 161.765 257.945C161.45 258.489 161.01 258.951 160.48 259.29C160.202 259.458 159.885 259.551 159.56 259.56ZM160.98 255.45C160.806 255.46 160.637 255.515 160.49 255.61C160.093 255.874 159.763 256.226 159.525 256.639C159.287 257.052 159.149 257.514 159.12 257.99C159.103 258.112 159.116 258.237 159.16 258.352C159.204 258.468 159.276 258.57 159.37 258.65C159.485 258.69 159.608 258.701 159.729 258.682C159.849 258.662 159.963 258.614 160.06 258.54C160.456 258.276 160.786 257.923 161.024 257.511C161.262 257.098 161.401 256.635 161.43 256.16C161.448 256.038 161.434 255.913 161.39 255.798C161.346 255.682 161.274 255.58 161.18 255.5C161.125 255.469 161.063 255.452 161 255.45H160.98Z" fill="#8C503A"/>
<path d="M247.58 202.15C250.34 202.15 252.12 204.87 252.12 209.09C251.992 212.97 250.884 216.754 248.9 220.09C248.186 221.336 247.356 222.511 246.42 223.6C245.41 224.81 244.207 225.844 242.86 226.66C241.92 227.264 240.836 227.609 239.72 227.66C236.96 227.66 235.18 224.94 235.18 220.72C235.308 216.84 236.416 213.056 238.4 209.72C239.813 207.059 241.878 204.798 244.4 203.15C245.341 202.547 246.424 202.202 247.54 202.15M247.54 201.29C246.276 201.331 245.045 201.703 243.97 202.37C241.301 204.087 239.112 206.454 237.61 209.25C235.547 212.719 234.397 216.655 234.27 220.69C234.27 225.57 236.5 228.49 239.67 228.49C240.934 228.449 242.165 228.077 243.24 227.41C244.673 226.546 245.954 225.451 247.03 224.17C250.644 219.948 252.745 214.641 253 209.09C253 204.21 250.77 201.29 247.6 201.29H247.54Z" fill="#8C503A"/>
<path d="M241.32 212L248.01 212.6L247.86 212.8L241.06 221.25V212.78C241.044 212.64 241.058 212.498 241.101 212.363C241.145 212.229 241.216 212.105 241.31 212M241.31 211.14C240.7 211.14 240.21 211.86 240.21 212.78V222C240.21 222.54 240.37 222.82 240.63 222.82C240.89 222.82 241.09 222.65 241.38 222.29L248.54 213.38C249.19 212.58 249.19 211.88 248.54 211.82L241.38 211.18L241.31 211.14Z" fill="#8C503A"/>
<path d="M275.73 323.95L336.56 359.13V321.83L275.73 286.64V323.95Z" fill="#EBEBEB"/>
<path d="M378.72 334.79L336.56 359.13V321.83L378.72 297.48V334.79Z" fill="#F5F5F5"/>
<path d="M275.73 286.64L317.9 262.3L378.72 297.48L336.56 321.83L275.73 286.64Z" fill="#FAFAFA"/>
<path opacity="0.1" d="M307.43 317.49L336.56 334.31L354.03 324.22L336.56 335.35L307.43 317.49Z" fill="black"/>
<path opacity="0.1" d="M289.95 316.8L336.56 343.7L371.51 323.53L336.56 344.72L289.95 316.8Z" fill="black"/>
<path opacity="0.1" d="M281.58 300.49C281.58 300.49 280.58 305.93 281.1 308.69C281.1 308.69 288.73 308.5 301.6 312.05L281.58 300.49Z" fill="black"/>
<path d="M281.58 300.49L301.6 312.05L279.45 305.65L281.58 300.49Z" fill="#FAFAFA"/>
<path opacity="0.1" d="M307.43 332.73L329.38 352.91C329.38 352.91 329.99 350.14 334.2 348.19L307.43 332.73Z" fill="black"/>
<path d="M307.43 332.73L328.04 350.09L334.2 348.19L307.43 332.73Z" fill="#FAFAFA"/>
<path opacity="0.1" d="M371.7 312.32L371.51 312.05L357.64 320.05L373.25 318.77C373.525 316.504 372.975 314.214 371.7 312.32V312.32Z" fill="black"/>
<path d="M357.64 320.05L371.51 312.05L376.13 314.48L357.64 320.05Z" fill="#FAFAFA"/>
<g opacity="0.3">
<path d="M286.45 289.24C286.334 289.237 286.221 289.197 286.129 289.125C286.038 289.053 285.972 288.953 285.941 288.841C285.911 288.728 285.918 288.609 285.961 288.501C286.004 288.392 286.081 288.301 286.18 288.24L321.18 268.06C321.241 268.016 321.311 267.986 321.384 267.971C321.458 267.956 321.534 267.956 321.607 267.972C321.681 267.988 321.75 268.019 321.811 268.063C321.871 268.108 321.922 268.164 321.96 268.229C321.998 268.294 322.021 268.366 322.03 268.441C322.038 268.515 322.031 268.591 322.008 268.662C321.985 268.734 321.948 268.8 321.899 268.857C321.849 268.913 321.788 268.958 321.72 268.99L286.72 289.17C286.638 289.217 286.545 289.241 286.45 289.24V289.24Z" fill="#455A64"/>
<path d="M292.27 292.6C292.153 292.597 292.041 292.557 291.949 292.485C291.858 292.413 291.792 292.313 291.761 292.201C291.731 292.088 291.738 291.969 291.781 291.861C291.824 291.752 291.901 291.661 292 291.6L327 271.42C327.061 271.376 327.131 271.346 327.204 271.331C327.278 271.316 327.354 271.316 327.427 271.332C327.501 271.348 327.57 271.379 327.631 271.423C327.691 271.468 327.742 271.524 327.78 271.589C327.818 271.654 327.841 271.726 327.85 271.801C327.858 271.875 327.851 271.951 327.828 272.022C327.805 272.094 327.768 272.16 327.719 272.217C327.669 272.273 327.608 272.318 327.54 272.35L292.54 292.53C292.458 292.577 292.365 292.601 292.27 292.6V292.6Z" fill="#455A64"/>
<path d="M298.1 296C297.984 295.997 297.871 295.957 297.779 295.885C297.688 295.813 297.622 295.713 297.591 295.601C297.561 295.488 297.568 295.369 297.611 295.261C297.654 295.152 297.731 295.061 297.83 295L332.83 274.82C332.891 274.776 332.961 274.746 333.034 274.731C333.108 274.716 333.184 274.716 333.257 274.732C333.331 274.748 333.4 274.779 333.461 274.823C333.521 274.868 333.572 274.924 333.61 274.989C333.648 275.054 333.672 275.126 333.68 275.201C333.688 275.275 333.681 275.351 333.658 275.422C333.635 275.494 333.598 275.56 333.549 275.617C333.499 275.673 333.438 275.718 333.37 275.75L298.37 295.93C298.288 295.977 298.195 296.001 298.1 296V296Z" fill="#455A64"/>
<path d="M303.93 299.33C303.813 299.327 303.701 299.287 303.609 299.215C303.518 299.143 303.452 299.043 303.421 298.931C303.391 298.818 303.398 298.699 303.441 298.591C303.484 298.482 303.561 298.391 303.66 298.33L338.66 278.15C338.721 278.106 338.791 278.076 338.864 278.061C338.938 278.046 339.014 278.046 339.087 278.062C339.161 278.078 339.23 278.109 339.291 278.153C339.351 278.198 339.402 278.254 339.44 278.319C339.478 278.384 339.501 278.456 339.51 278.531C339.518 278.605 339.511 278.681 339.488 278.752C339.465 278.824 339.428 278.89 339.379 278.947C339.329 279.003 339.268 279.048 339.2 279.08L304.2 299.26C304.118 299.307 304.025 299.331 303.93 299.33V299.33Z" fill="#455A64"/>
<path d="M309.75 302.69C309.633 302.687 309.521 302.647 309.429 302.575C309.338 302.503 309.272 302.403 309.241 302.291C309.211 302.178 309.218 302.059 309.261 301.951C309.304 301.842 309.381 301.751 309.48 301.69L344.48 281.51C344.541 281.466 344.611 281.436 344.684 281.421C344.758 281.406 344.834 281.406 344.907 281.422C344.981 281.438 345.05 281.469 345.111 281.513C345.171 281.558 345.222 281.614 345.26 281.679C345.298 281.744 345.321 281.816 345.33 281.891C345.338 281.965 345.331 282.041 345.308 282.112C345.285 282.184 345.248 282.25 345.199 282.307C345.149 282.363 345.088 282.408 345.02 282.44L310.02 302.62C309.938 302.667 309.845 302.691 309.75 302.69V302.69Z" fill="#455A64"/>
<path d="M315.58 306.06C315.463 306.057 315.351 306.017 315.259 305.945C315.168 305.873 315.102 305.773 315.071 305.661C315.041 305.548 315.048 305.429 315.091 305.321C315.134 305.212 315.211 305.121 315.31 305.06L350.31 284.88C350.371 284.836 350.441 284.806 350.514 284.791C350.588 284.776 350.664 284.776 350.737 284.792C350.811 284.808 350.88 284.839 350.941 284.883C351.001 284.928 351.052 284.984 351.09 285.049C351.128 285.114 351.151 285.186 351.16 285.261C351.168 285.335 351.161 285.411 351.138 285.482C351.115 285.554 351.078 285.62 351.029 285.677C350.979 285.733 350.918 285.778 350.85 285.81L315.85 305.99C315.768 306.037 315.675 306.061 315.58 306.06V306.06Z" fill="#455A64"/>
<path d="M321.4 309.42C321.283 309.417 321.171 309.377 321.079 309.305C320.988 309.233 320.922 309.133 320.891 309.021C320.861 308.908 320.868 308.789 320.911 308.681C320.954 308.572 321.031 308.481 321.13 308.42L356.13 288.24C356.191 288.196 356.261 288.166 356.334 288.151C356.408 288.136 356.484 288.136 356.557 288.152C356.631 288.168 356.7 288.199 356.761 288.243C356.821 288.288 356.872 288.344 356.91 288.409C356.948 288.474 356.971 288.546 356.98 288.621C356.988 288.695 356.981 288.771 356.958 288.842C356.935 288.914 356.898 288.98 356.849 289.037C356.799 289.093 356.738 289.138 356.67 289.17L321.67 309.35C321.588 309.397 321.495 309.421 321.4 309.42V309.42Z" fill="#455A64"/>
<path d="M327.23 312.78C327.114 312.777 327.001 312.737 326.909 312.665C326.818 312.593 326.752 312.493 326.721 312.381C326.691 312.268 326.698 312.149 326.741 312.041C326.784 311.932 326.861 311.841 326.96 311.78L361.96 291.6C362.021 291.556 362.091 291.526 362.164 291.511C362.238 291.496 362.314 291.496 362.387 291.512C362.461 291.528 362.53 291.559 362.591 291.603C362.651 291.648 362.702 291.704 362.74 291.769C362.778 291.834 362.802 291.906 362.81 291.981C362.818 292.055 362.811 292.131 362.788 292.202C362.765 292.274 362.728 292.34 362.679 292.397C362.629 292.453 362.568 292.498 362.5 292.53L327.5 312.71C327.418 312.757 327.325 312.781 327.23 312.78V312.78Z" fill="#455A64"/>
<path d="M333.05 316.15C332.933 316.147 332.821 316.107 332.729 316.035C332.638 315.963 332.572 315.863 332.541 315.751C332.511 315.638 332.518 315.519 332.561 315.411C332.604 315.302 332.681 315.211 332.78 315.15L367.78 294.97C367.841 294.926 367.911 294.896 367.984 294.881C368.058 294.866 368.134 294.866 368.207 294.882C368.281 294.898 368.35 294.929 368.411 294.973C368.471 295.018 368.522 295.074 368.56 295.139C368.598 295.204 368.621 295.276 368.63 295.351C368.638 295.425 368.631 295.501 368.608 295.572C368.585 295.644 368.548 295.71 368.499 295.767C368.449 295.823 368.388 295.868 368.32 295.9L333.32 316.08C333.238 316.127 333.145 316.151 333.05 316.15Z" fill="#455A64"/>
</g>
<path d="M249.81 237.55L180.11 277.8C179.636 278.109 179.241 278.525 178.958 279.015C178.675 279.505 178.511 280.055 178.48 280.62V347C178.511 347.565 178.675 348.115 178.958 348.605C179.241 349.095 179.636 349.511 180.11 349.82L182.79 351.37C183.295 351.626 183.854 351.76 184.42 351.76C184.986 351.76 185.545 351.626 186.05 351.37L255.75 311.12C256.224 310.811 256.619 310.395 256.902 309.905C257.185 309.415 257.349 308.865 257.38 308.3V241.92C257.349 241.355 257.185 240.805 256.902 240.315C256.619 239.825 256.224 239.409 255.75 239.1L253.07 237.55C252.565 237.294 252.006 237.16 251.44 237.16C250.874 237.16 250.315 237.294 249.81 237.55Z" fill="#8C503A"/>
<path opacity="0.3" d="M249.81 237.55L180.11 277.8C179.636 278.109 179.241 278.525 178.958 279.015C178.675 279.505 178.511 280.055 178.48 280.62V347C178.511 347.565 178.675 348.115 178.958 348.605C179.241 349.095 179.636 349.511 180.11 349.82L182.79 351.37C183.295 351.626 183.854 351.76 184.42 351.76C184.986 351.76 185.545 351.626 186.05 351.37L255.75 311.12C256.224 310.811 256.619 310.395 256.902 309.905C257.185 309.415 257.349 308.865 257.38 308.3V241.92C257.349 241.355 257.185 240.805 256.902 240.315C256.619 239.825 256.224 239.409 255.75 239.1L253.07 237.55C252.565 237.294 252.006 237.16 251.44 237.16C250.874 237.16 250.315 237.294 249.81 237.55Z" fill="black"/>
<path d="M257.32 241.43C257.12 240.75 256.49 240.54 255.75 240.98L186.05 281.23C185.567 281.53 185.171 281.95 184.9 282.45L179 279C179.267 278.501 179.66 278.08 180.14 277.78L249.85 237.53C250.356 237.277 250.914 237.145 251.48 237.145C252.046 237.145 252.604 237.277 253.11 237.53L255.78 239.08C256.182 239.348 256.526 239.694 256.79 240.098C257.055 240.501 257.235 240.955 257.32 241.43V241.43Z" fill="#8C503A"/>
<path opacity="0.2" d="M257.32 241.43C257.12 240.75 256.49 240.54 255.75 240.98L186.05 281.23C185.567 281.53 185.171 281.95 184.9 282.45L179 279C179.267 278.501 179.66 278.08 180.14 277.78L249.85 237.53C250.356 237.277 250.914 237.145 251.48 237.145C252.046 237.145 252.604 237.277 253.11 237.53L255.78 239.08C256.182 239.348 256.526 239.694 256.79 240.098C257.055 240.501 257.235 240.955 257.32 241.43V241.43Z" fill="black"/>
<path d="M255.75 241L186 281.23C185.526 281.539 185.131 281.955 184.848 282.445C184.565 282.935 184.401 283.485 184.37 284.05V350.46C184.37 351.46 185.1 351.92 186 351.4L255.7 311.15C256.174 310.841 256.569 310.425 256.852 309.935C257.135 309.445 257.299 308.895 257.33 308.33V241.92C257.38 240.88 256.65 240.45 255.75 241Z" fill="#8C503A"/>
<path d="M214.87 321.17C213.116 321.18 211.39 320.725 209.87 319.85C205.68 317.43 203.28 311.95 203.28 304.85C203.412 297.789 205.343 290.877 208.89 284.77C210.043 282.771 211.382 280.886 212.89 279.14C214.786 276.892 217.043 274.975 219.57 273.47C224.06 270.88 228.46 270.56 231.97 272.58C236.16 275 238.56 280.48 238.56 287.58C238.427 294.641 236.497 301.552 232.95 307.66C230.416 312.296 226.731 316.202 222.25 319C220.022 320.357 217.477 321.105 214.87 321.17ZM214.7 280.68C213.297 282.312 212.051 284.073 210.98 285.94C207.643 291.678 205.825 298.173 205.7 304.81C205.7 311.06 207.7 315.81 211.07 317.75C213.79 319.32 217.33 319 221.07 316.86C225.166 314.283 228.533 310.699 230.85 306.45C234.187 300.712 236.005 294.217 236.13 287.58C236.13 281.33 234.13 276.58 230.76 274.64C228.04 273.07 224.5 273.38 220.76 275.53C218.467 276.901 216.419 278.645 214.7 280.69V280.68Z" fill="white"/>
<path d="M230.23 292.42L216.55 309.42C215.31 310.96 214.31 310.71 214.31 308.87V291.35C214.31 289.51 215.31 288.1 216.55 288.21L230.23 289.43C231.46 289.54 231.46 290.88 230.23 292.42Z" fill="white"/>
<path d="M159.87 291.86V352.36C159.851 352.707 159.75 353.044 159.577 353.344C159.403 353.645 159.161 353.9 158.87 354.09L98.72 388.85C98.17 389.16 97.72 388.91 97.72 388.27V385.11L156.66 351.06V292.56L158.86 291.29C159.42 291 159.87 291.23 159.87 291.86Z" fill="#263238"/>
<path d="M156.67 292.55V351.05L97.73 385.11V327.77C97.7367 327.417 97.8367 327.072 98.02 326.77C98.1842 326.463 98.4254 326.205 98.72 326.02L156.67 292.55Z" fill="#8C503A"/>
<path opacity="0.8" d="M156.67 292.55V351.05L97.73 385.11V327.77C97.7367 327.417 97.8367 327.072 98.02 326.77C98.1842 326.463 98.4254 326.205 98.72 326.02L156.67 292.55Z" fill="white"/>
<path d="M142.13 317.57C142.068 317.514 142.001 317.463 141.93 317.42L138.19 315.26C137.911 315.101 137.581 315.055 137.269 315.131C136.956 315.208 136.685 315.4 136.51 315.67L123.23 348.41L114.41 342.61C114.354 342.561 114.294 342.518 114.23 342.48L110.54 340.35C110.261 340.179 109.927 340.123 109.608 340.194C109.289 340.265 109.01 340.457 108.83 340.73L95.85 366.72V384L99.6 386.17L157.47 352.74C157.796 352.551 158.066 352.279 158.254 351.953C158.441 351.627 158.54 351.257 158.54 350.88V334.49L142.13 317.57Z" fill="#8C503A"/>
<path opacity="0.15" d="M142.13 317.57C142.068 317.514 142.001 317.463 141.93 317.42L138.19 315.26C137.911 315.101 137.581 315.055 137.269 315.131C136.956 315.208 136.685 315.4 136.51 315.67L123.23 348.41L114.41 342.61C114.354 342.561 114.294 342.518 114.23 342.48L110.54 340.35C110.261 340.179 109.927 340.123 109.608 340.194C109.289 340.265 109.01 340.457 108.83 340.73L95.85 366.72V384L99.6 386.17L157.47 352.74C157.796 352.551 158.066 352.279 158.254 351.953C158.441 351.627 158.54 351.257 158.54 350.88V334.49L142.13 317.57Z" fill="black"/>
<path d="M99.6 386.19V368.89L112.46 342.82C112.56 342.671 112.69 342.545 112.842 342.45C112.994 342.354 113.164 342.293 113.342 342.268C113.519 342.244 113.7 342.257 113.872 342.307C114.044 342.357 114.204 342.444 114.34 342.56L126.68 350.68L140.19 317.79C140.292 317.634 140.428 317.503 140.586 317.405C140.745 317.308 140.923 317.246 141.108 317.225C141.294 317.204 141.481 317.224 141.658 317.284C141.834 317.343 141.995 317.441 142.13 317.57L158.55 334.49V350.9C158.55 351.277 158.451 351.647 158.264 351.973C158.076 352.299 157.806 352.571 157.48 352.76L99.6 386.19Z" fill="#8C503A"/>
<path opacity="0.15" d="M126.68 350.68L122.79 360.15L125.26 349.75L126.68 350.68Z" fill="black"/>
<path d="M162.29 288.14C162.292 288.1 162.292 288.06 162.29 288.02C162.23 287.723 162.11 287.442 161.939 287.193C161.767 286.943 161.546 286.732 161.29 286.57L159.53 285.57C159.22 285.413 158.878 285.331 158.53 285.331C158.183 285.331 157.84 285.413 157.53 285.57L93.1 322.78C92.8043 322.967 92.5602 323.225 92.39 323.53C92.2067 323.832 92.1067 324.177 92.1 324.53V400.2C92.1191 400.547 92.2196 400.884 92.3933 401.184C92.5671 401.485 92.8092 401.74 93.1 401.93L94.85 402.93C95.122 403.068 95.4193 403.149 95.7237 403.168C96.028 403.187 96.333 403.143 96.62 403.04H96.69L96.85 402.96L161.3 365.74C161.59 365.55 161.832 365.294 162.006 364.994C162.179 364.693 162.28 364.356 162.3 364.01V288.3C162.3 288.25 162.29 288.19 162.29 288.14ZM159.87 352.36C159.851 352.707 159.75 353.044 159.577 353.344C159.403 353.645 159.161 353.9 158.87 354.09L98.72 388.85C98.17 389.17 97.72 388.91 97.72 388.27V327.77C97.7267 327.417 97.8267 327.072 98.01 326.77C98.1769 326.462 98.4218 326.204 98.72 326.02L158.86 291.27C159.41 290.95 159.86 291.21 159.86 291.85L159.87 352.36Z" fill="#37474F"/>
<path d="M96.62 403C96.333 403.103 96.028 403.147 95.7237 403.128C95.4193 403.109 95.122 403.028 94.85 402.89L93.1 401.89C92.8086 401.701 92.5661 401.446 92.3923 401.145C92.2185 400.844 92.1183 400.507 92.1 400.16V324.52C92.1067 324.167 92.2067 323.822 92.39 323.52L96.14 325.68C95.9567 325.982 95.8567 326.327 95.85 326.68V402.35C95.85 402.91 96.18 403.18 96.62 403Z" fill="#263238"/>
<path d="M162.29 288.14V288.02C162.17 287.6 161.78 287.46 161.29 287.73L96.85 325C96.5569 325.187 96.3131 325.442 96.139 325.743C95.965 326.044 95.8659 326.383 95.85 326.73V402.41C95.85 402.96 96.19 403.22 96.62 403.1H96.69L96.85 403.02L161.3 365.8C161.59 365.61 161.832 365.354 162.006 365.054C162.179 364.753 162.28 364.416 162.3 364.07V288.3C162.3 288.247 162.297 288.193 162.29 288.14V288.14ZM159.87 352.37C159.851 352.717 159.75 353.054 159.577 353.354C159.403 353.655 159.161 353.91 158.87 354.1L98.72 388.85C98.17 389.16 97.72 388.91 97.72 388.27V327.77C97.7267 327.417 97.8267 327.072 98.01 326.77C98.1742 326.463 98.4154 326.205 98.71 326.02L156.66 292.54L158.86 291.27C159.42 290.95 159.86 291.21 159.86 291.85L159.87 352.37Z" fill="#455A64"/>
<path d="M121.26 326.76L122.72 324.29L119.72 322.56C119.263 322.35 118.758 322.265 118.257 322.314C117.756 322.364 117.278 322.545 116.87 322.84C115.701 323.611 114.729 324.646 114.034 325.862C113.339 327.078 112.94 328.441 112.87 329.84C112.819 330.335 112.899 330.834 113.1 331.288C113.302 331.742 113.619 332.136 114.02 332.43V332.43L116.91 334.11L118.3 331.75C119.787 330.439 120.822 328.693 121.26 326.76V326.76Z" fill="#8C503A"/>
<path opacity="0.15" d="M121.26 326.76L122.72 324.29L119.72 322.56C119.263 322.35 118.758 322.265 118.257 322.314C117.756 322.364 117.278 322.545 116.87 322.84C115.701 323.611 114.729 324.646 114.034 325.862C113.339 327.078 112.94 328.441 112.87 329.84C112.819 330.335 112.899 330.834 113.1 331.288C113.302 331.742 113.619 332.136 114.02 332.43V332.43L116.91 334.11L118.3 331.75C119.787 330.439 120.822 328.693 121.26 326.76V326.76Z" fill="black"/>
<path d="M119.82 324.54C122.05 323.25 123.82 324.3 123.82 326.87C123.75 328.269 123.351 329.632 122.656 330.848C121.961 332.064 120.99 333.099 119.82 333.87C117.59 335.16 115.82 334.11 115.82 331.54C115.89 330.141 116.289 328.778 116.984 327.562C117.679 326.346 118.651 325.311 119.82 324.54Z" fill="#8C503A"/>
<path d="M270.16 425.21L221.56 453.27L166.82 421.6L215.43 393.54L270.16 425.21Z" fill="#8C503A"/>
<path opacity="0.5" d="M270.16 425.21L221.56 453.27L166.82 421.6L215.43 393.54L270.16 425.21Z" fill="black"/>
<path d="M215.43 355.5V393.54L166.82 421.6V383.56L215.43 355.5Z" fill="#8C503A"/>
<path opacity="0.23" d="M215.43 355.5V393.54L166.82 421.6V383.56L215.43 355.5Z" fill="black"/>
<path d="M270.16 387.17V425.21L215.43 393.54V355.5L270.16 387.17Z" fill="#8C503A"/>
<path opacity="0.4" d="M270.16 387.17V425.21L215.43 393.54V355.5L270.16 387.17Z" fill="black"/>
<path d="M215.43 355.5L215.5 334.44L270.1 366.15L270.16 387.17L215.43 355.5Z" fill="#8C503A"/>
<path opacity="0.2" d="M215.43 355.5L215.5 334.44L270.1 366.15L270.16 387.17L215.43 355.5Z" fill="black"/>
<path d="M166.82 383.56L161.03 364.45L209.63 336.39L215.43 355.5L166.82 383.56Z" fill="#8C503A"/>
<path opacity="0.1" d="M166.82 383.56L161.03 364.45L209.63 336.39L215.43 355.5L166.82 383.56Z" fill="black"/>
<path d="M178.41 420.13C178.132 419.939 177.898 419.69 177.725 419.4C177.553 419.11 177.445 418.786 177.41 418.45L173.33 351.45C173.327 351.122 173.404 350.797 173.556 350.506C173.708 350.215 173.929 349.966 174.2 349.78L215.87 325.86C216.163 325.711 216.487 325.633 216.815 325.633C217.144 325.633 217.467 325.711 217.76 325.86C218.038 326.051 218.272 326.3 218.445 326.59C218.617 326.88 218.725 327.204 218.76 327.54L222.84 394.54C222.843 394.868 222.766 395.193 222.614 395.484C222.462 395.775 222.241 396.024 221.97 396.21L180.3 420.14C180.007 420.288 179.682 420.364 179.354 420.362C179.025 420.36 178.702 420.281 178.41 420.13V420.13Z" fill="#F0F0F0"/>
<path d="M179.88 420C179.58 420 179.54 419.63 179.53 419.52L175.45 352.52C175.446 352.237 175.512 351.957 175.643 351.705C175.774 351.454 175.965 351.239 176.2 351.08L217.87 327.16C217.957 327.106 218.057 327.075 218.16 327.07C218.46 327.07 218.5 327.44 218.51 327.55L222.59 394.55C222.594 394.833 222.528 395.113 222.397 395.365C222.266 395.616 222.075 395.831 221.84 395.99L180.17 419.91C180.083 419.964 179.983 419.995 179.88 420V420Z" fill="#FAFAFA"/>
<path d="M218.16 327.38C218.22 327.38 218.26 327.53 218.26 327.63L222.34 394.63C222.343 394.867 222.289 395.101 222.181 395.312C222.073 395.523 221.914 395.704 221.72 395.84L180 419.71C179.952 419.743 179.898 419.764 179.84 419.77C179.78 419.77 179.74 419.62 179.74 419.52L175.66 352.52C175.657 352.283 175.711 352.049 175.819 351.838C175.928 351.627 176.086 351.446 176.28 351.31L218 327.44C218.048 327.407 218.103 327.386 218.16 327.38M218.16 326.88C218.015 326.884 217.874 326.925 217.75 327L176.08 350.92C175.809 351.106 175.588 351.355 175.436 351.646C175.284 351.937 175.207 352.262 175.21 352.59L179.29 419.59C179.29 420.04 179.56 420.3 179.89 420.3C180.035 420.296 180.176 420.255 180.3 420.18L222 396.22C222.271 396.034 222.492 395.785 222.644 395.494C222.796 395.203 222.873 394.878 222.87 394.55L218.79 327.55C218.79 327.1 218.52 326.84 218.19 326.84L218.16 326.88Z" fill="#EBEBEB"/>
<path d="M180.17 420.2C179.889 420.316 179.585 420.368 179.281 420.355C178.977 420.341 178.68 420.261 178.41 420.12C178.132 419.929 177.898 419.68 177.725 419.39C177.553 419.1 177.445 418.776 177.41 418.44L173.33 351.44C173.311 351.093 173.387 350.747 173.55 350.44L175.45 351.55C175.281 351.855 175.201 352.202 175.22 352.55L179.3 419.55C179.32 420.13 179.71 420.39 180.17 420.2Z" fill="#E0E0E0"/>
<path d="M197.12 345.48L211.81 336.94C212.27 336.68 212.67 336.94 212.7 337.46V337.8C212.706 338.09 212.639 338.377 212.504 338.634C212.369 338.891 212.172 339.11 211.93 339.27L197.24 347.81C196.78 348.07 196.38 347.81 196.35 347.29V346.95C196.344 346.66 196.411 346.373 196.546 346.116C196.681 345.859 196.878 345.64 197.12 345.48V345.48Z" fill="#E0E0E0"/>
<path d="M197.47 351.31L212.16 342.77C212.62 342.51 213.02 342.77 213.05 343.29V343.63C213.056 343.92 212.989 344.207 212.854 344.464C212.719 344.721 212.522 344.94 212.28 345.1L197.59 353.64C197.13 353.9 196.73 353.64 196.7 353.12V352.78C196.694 352.49 196.761 352.203 196.896 351.946C197.031 351.689 197.228 351.47 197.47 351.31V351.31Z" fill="#E0E0E0"/>
<path d="M197.83 357.14L212.52 348.6C212.98 348.34 213.38 348.6 213.41 349.12V349.46C213.416 349.75 213.349 350.037 213.214 350.294C213.079 350.551 212.882 350.77 212.64 350.93L198 359.48C197.54 359.74 197.14 359.48 197.11 358.96V358.62C197.097 358.333 197.156 358.047 197.281 357.788C197.407 357.53 197.596 357.307 197.83 357.14V357.14Z" fill="#E0E0E0"/>
<path d="M183 377.66L213.21 360.27C213.67 360.01 214.07 360.27 214.1 360.79V361.13C214.106 361.42 214.039 361.707 213.904 361.964C213.769 362.221 213.572 362.44 213.33 362.6L183.15 380C182.69 380.26 182.29 380 182.26 379.48V379.14C182.249 378.851 182.311 378.564 182.44 378.305C182.57 378.046 182.762 377.825 183 377.66V377.66Z" fill="#E0E0E0"/>
<path d="M182.66 371.83L212.87 354.44C213.33 354.18 213.73 354.44 213.76 354.96V355.3C213.766 355.59 213.699 355.877 213.564 356.134C213.429 356.391 213.232 356.61 212.99 356.77L182.8 374.16C182.34 374.42 181.94 374.16 181.91 373.64V373.3C181.902 373.012 181.966 372.726 182.097 372.469C182.228 372.212 182.422 371.993 182.66 371.83V371.83Z" fill="#E0E0E0"/>
<path d="M183.37 383.53L213.58 366.14C214.04 365.88 214.44 366.14 214.47 366.66V367C214.476 367.29 214.409 367.577 214.274 367.834C214.139 368.091 213.942 368.31 213.7 368.47L183.49 385.86C183.03 386.12 182.63 385.86 182.6 385.34V385C182.594 384.71 182.661 384.423 182.796 384.166C182.931 383.909 183.128 383.69 183.37 383.53V383.53Z" fill="#E0E0E0"/>
<path d="M183.73 389.36L213.94 372C214.4 371.74 214.8 372 214.83 372.52V372.86C214.836 373.15 214.769 373.437 214.634 373.694C214.499 373.951 214.302 374.17 214.06 374.33L183.85 391.72C183.39 391.98 182.99 391.72 182.96 391.2V390.86C182.949 390.565 183.014 390.272 183.149 390.009C183.283 389.746 183.484 389.523 183.73 389.36V389.36Z" fill="#E0E0E0"/>
<path d="M184.08 395.19L214.29 377.8C214.75 377.54 215.15 377.8 215.18 378.32V378.66C215.186 378.95 215.119 379.237 214.984 379.494C214.849 379.751 214.652 379.97 214.41 380.13L184.2 397.52C183.74 397.78 183.34 397.52 183.31 397V396.66C183.304 396.37 183.371 396.083 183.506 395.826C183.641 395.569 183.838 395.35 184.08 395.19Z" fill="#E0E0E0"/>
<path d="M184.44 401L214.65 383.61C215.11 383.35 215.51 383.61 215.54 384.13V384.47C215.546 384.76 215.479 385.047 215.344 385.304C215.209 385.561 215.012 385.78 214.77 385.94L184.56 403.33C184.1 403.59 183.7 403.33 183.67 402.81V402.47C183.664 402.18 183.731 401.893 183.866 401.636C184.001 401.379 184.198 401.16 184.44 401V401Z" fill="#E0E0E0"/>
<path d="M184.79 406.85L215 389.46C215.46 389.2 215.86 389.46 215.89 389.98V390.32C215.896 390.61 215.829 390.897 215.694 391.154C215.559 391.411 215.362 391.63 215.12 391.79L184.91 409.18C184.45 409.44 184.05 409.18 184.02 408.66V408.32C184.014 408.03 184.081 407.743 184.216 407.486C184.351 407.229 184.548 407.01 184.79 406.85Z" fill="#E0E0E0"/>
<path d="M180.93 353.82L193.13 346.83L194.02 361.47L181.82 368.45L180.93 353.82Z" fill="#8C503A"/>
<path d="M182.91 355.33L183.18 359.72L183.56 359.49L183.48 358.14C183.491 357.717 183.608 357.304 183.822 356.938C184.035 356.573 184.337 356.267 184.7 356.05L186.5 355.05L186.9 361.58C186.93 362.002 186.854 362.426 186.68 362.812C186.505 363.197 186.237 363.534 185.9 363.79L184.77 364.44V364.91L190.87 361.42V360.95L189.74 361.6C189.11 361.96 188.56 361.6 188.51 360.69L188.11 354.16L189.91 353.16C190.63 352.75 191.25 353.02 191.29 353.76L191.37 355.11L191.75 354.9L191.48 350.51L182.91 355.33Z" fill="#FAFAFA"/>
<path d="M195.77 430.15C195.492 429.959 195.258 429.71 195.085 429.42C194.913 429.13 194.805 428.806 194.77 428.47L190.69 361.47C190.687 361.142 190.764 360.817 190.916 360.526C191.068 360.235 191.289 359.986 191.56 359.8L233.23 335.88C233.523 335.731 233.847 335.653 234.175 335.653C234.504 335.653 234.827 335.731 235.12 335.88C235.398 336.071 235.632 336.32 235.805 336.61C235.977 336.9 236.085 337.224 236.12 337.56L240.2 404.56C240.203 404.888 240.126 405.213 239.974 405.504C239.822 405.795 239.601 406.044 239.33 406.23L197.66 430.15C197.367 430.299 197.044 430.377 196.715 430.377C196.387 430.377 196.063 430.299 195.77 430.15V430.15Z" fill="#F0F0F0"/>
<path d="M197.24 430C196.94 430 196.9 429.63 196.89 429.52L192.81 362.52C192.806 362.237 192.872 361.957 193.003 361.705C193.134 361.454 193.325 361.239 193.56 361.08L235.23 337.16C235.317 337.106 235.417 337.075 235.52 337.07C235.82 337.07 235.86 337.44 235.87 337.55L239.95 404.55C239.955 404.834 239.889 405.114 239.758 405.365C239.627 405.617 239.435 405.832 239.2 405.99L197.53 429.91C197.443 429.964 197.343 429.995 197.24 430V430Z" fill="#FAFAFA"/>
<path d="M235.52 337.4C235.58 337.4 235.62 337.55 235.62 337.65L239.7 404.65C239.703 404.887 239.649 405.121 239.541 405.332C239.433 405.543 239.274 405.724 239.08 405.86L197.41 429.78C197.362 429.813 197.308 429.834 197.25 429.84C197.19 429.84 197.15 429.69 197.15 429.59L193.07 362.59C193.067 362.353 193.121 362.119 193.229 361.908C193.338 361.697 193.496 361.516 193.69 361.38L235.36 337.46C235.408 337.427 235.463 337.406 235.52 337.4M235.52 336.9C235.375 336.904 235.234 336.945 235.11 337.02L193.44 360.94C193.169 361.126 192.948 361.375 192.796 361.666C192.644 361.957 192.567 362.282 192.57 362.61L196.65 429.61C196.65 430.06 196.92 430.32 197.25 430.32C197.395 430.316 197.536 430.275 197.66 430.2L239.33 406.28C239.601 406.094 239.822 405.845 239.974 405.554C240.126 405.263 240.203 404.938 240.2 404.61L236.12 337.61C236.12 337.16 235.85 336.9 235.52 336.9V336.9Z" fill="#EBEBEB"/>
<path d="M197.53 430.22C197.249 430.336 196.945 430.388 196.641 430.375C196.337 430.361 196.04 430.281 195.77 430.14C195.492 429.949 195.258 429.7 195.085 429.41C194.913 429.12 194.805 428.796 194.77 428.46L190.69 361.46C190.671 361.113 190.747 360.767 190.91 360.46L192.81 361.57C192.641 361.875 192.561 362.222 192.58 362.57L196.66 429.57C196.68 430.14 197.07 430.41 197.53 430.22Z" fill="#E0E0E0"/>
<path d="M214.47 355.5L229.16 347C229.62 346.74 230.02 347 230.05 347.52V347.86C230.056 348.15 229.989 348.437 229.854 348.694C229.719 348.951 229.522 349.17 229.28 349.33L214.59 357.87C214.13 358.13 213.73 357.87 213.7 357.35V357.01C213.687 356.713 213.751 356.418 213.886 356.154C214.021 355.889 214.222 355.664 214.47 355.5V355.5Z" fill="#E0E0E0"/>
<path d="M214.83 361.33L229.52 352.79C229.98 352.53 230.38 352.79 230.41 353.31V353.65C230.416 353.94 230.349 354.227 230.214 354.484C230.079 354.741 229.882 354.96 229.64 355.12L215 363.67C214.54 363.93 214.14 363.67 214.11 363.15V362.81C214.097 362.523 214.156 362.237 214.281 361.978C214.407 361.72 214.596 361.497 214.83 361.33Z" fill="#E0E0E0"/>
<path d="M215.19 367.16L229.88 358.62C230.34 358.36 230.74 358.62 230.77 359.14V359.48C230.785 359.778 230.721 360.076 230.586 360.342C230.451 360.609 230.249 360.835 230 361L215.31 369.54C214.85 369.8 214.45 369.54 214.42 369.02V368.68C214.405 368.382 214.469 368.084 214.604 367.818C214.739 367.551 214.941 367.325 215.19 367.16Z" fill="#E0E0E0"/>
<path d="M200.37 387.68L230.58 370.29C231.04 370.03 231.44 370.29 231.47 370.81V371.15C231.476 371.44 231.409 371.727 231.274 371.984C231.139 372.241 230.942 372.46 230.7 372.62L200.51 390C200.05 390.26 199.65 390 199.62 389.48V389.14C199.613 388.853 199.679 388.57 199.81 388.315C199.941 388.06 200.133 387.842 200.37 387.68V387.68Z" fill="#E0E0E0"/>
<path d="M200 381.84L230.21 364.45C230.67 364.19 231.07 364.45 231.1 364.97V365.31C231.106 365.6 231.039 365.887 230.904 366.144C230.769 366.401 230.572 366.62 230.33 366.78L200.12 384.17C199.66 384.43 199.26 384.17 199.23 383.65V383.31C199.224 383.02 199.291 382.733 199.426 382.476C199.561 382.219 199.758 382 200 381.84V381.84Z" fill="#E0E0E0"/>
<path d="M200.73 393.55L230.94 376.16C231.4 375.9 231.8 376.16 231.83 376.68V377.02C231.836 377.31 231.769 377.597 231.634 377.854C231.499 378.111 231.302 378.33 231.06 378.49L200.85 395.88C200.39 396.14 199.99 395.88 199.96 395.36V395.02C199.954 394.73 200.021 394.443 200.156 394.186C200.291 393.929 200.488 393.71 200.73 393.55Z" fill="#E0E0E0"/>
<path d="M201.08 399.38L231.29 382C231.75 381.74 232.15 382 232.18 382.52V382.86C232.186 383.15 232.119 383.437 231.984 383.694C231.849 383.951 231.652 384.17 231.41 384.33L201.2 401.72C200.74 401.98 200.34 401.72 200.31 401.2V400.86C200.302 400.568 200.369 400.279 200.504 400.02C200.638 399.761 200.837 399.541 201.08 399.38V399.38Z" fill="#E0E0E0"/>
<path d="M201.44 405.21L231.65 387.82C232.11 387.56 232.51 387.82 232.54 388.34V388.68C232.546 388.97 232.479 389.257 232.344 389.514C232.209 389.771 232.012 389.99 231.77 390.15L201.56 407.54C201.1 407.8 200.7 407.54 200.67 407.02V406.68C200.664 406.39 200.731 406.103 200.866 405.846C201.001 405.589 201.198 405.37 201.44 405.21Z" fill="#E0E0E0"/>
<path d="M201.79 411L232 393.65C232.46 393.39 232.86 393.65 232.89 394.17V394.51C232.896 394.8 232.829 395.087 232.694 395.344C232.559 395.601 232.362 395.82 232.12 395.98L201.91 413.37C201.45 413.63 201.05 413.37 201.02 412.85V412.51C201.007 412.213 201.071 411.918 201.206 411.654C201.341 411.389 201.542 411.164 201.79 411Z" fill="#E0E0E0"/>
<path d="M202.15 416.87L232.36 399.48C232.82 399.22 233.22 399.48 233.25 400V400.34C233.256 400.63 233.189 400.917 233.054 401.174C232.919 401.431 232.722 401.65 232.48 401.81L202.29 419.2C201.83 419.46 201.43 419.2 201.4 418.68V418.34C201.392 418.052 201.456 417.766 201.587 417.509C201.718 417.252 201.912 417.033 202.15 416.87Z" fill="#E0E0E0"/>
<path d="M198.29 363.84L210.49 356.85L211.38 371.49L199.18 378.47L198.29 363.84Z" fill="#8C503A"/>
<path d="M200.27 365.35L200.54 369.74L200.92 369.51L200.84 368.16C200.851 367.737 200.968 367.324 201.182 366.958C201.395 366.593 201.697 366.287 202.06 366.07L203.86 365.07L204.26 371.6C204.29 372.022 204.214 372.446 204.04 372.832C203.865 373.217 203.597 373.554 203.26 373.81L202.13 374.46V374.93L208.23 371.44V370.97L207.1 371.62C206.47 371.98 205.92 371.62 205.87 370.71L205.47 364.18L207.27 363.18C207.99 362.77 208.61 363.04 208.65 363.78L208.73 365.13L209.11 364.92L208.84 360.53L200.27 365.35Z" fill="#FAFAFA"/>
<path d="M213.08 440.16C212.802 439.969 212.568 439.72 212.395 439.43C212.223 439.14 212.115 438.816 212.08 438.48L208 371.48C207.997 371.152 208.074 370.827 208.226 370.536C208.378 370.245 208.599 369.996 208.87 369.81L250.54 345.89C250.833 345.741 251.157 345.663 251.485 345.663C251.814 345.663 252.137 345.741 252.43 345.89C252.708 346.081 252.942 346.33 253.115 346.62C253.287 346.91 253.395 347.234 253.43 347.57L257.51 414.57C257.513 414.898 257.436 415.223 257.284 415.514C257.132 415.805 256.911 416.054 256.64 416.24L215 440.17C214.703 440.323 214.373 440.402 214.039 440.4C213.705 440.398 213.376 440.316 213.08 440.16V440.16Z" fill="#F0F0F0"/>
<path d="M214.56 440C214.26 440 214.22 439.63 214.21 439.52L210.13 372.52C210.125 372.236 210.191 371.956 210.322 371.705C210.453 371.453 210.645 371.238 210.88 371.08L252.55 347.16C252.637 347.106 252.737 347.075 252.84 347.07C253.14 347.07 253.18 347.44 253.19 347.55L257.27 414.55C257.274 414.833 257.208 415.113 257.077 415.365C256.946 415.616 256.755 415.831 256.52 415.99L214.85 440C214.763 440.054 214.663 440.085 214.56 440.09V440Z" fill="#FAFAFA"/>
<path d="M252.84 347.41C252.9 347.41 252.94 347.56 252.94 347.66L257.02 414.66C257.023 414.897 256.969 415.131 256.861 415.342C256.753 415.553 256.594 415.734 256.4 415.87L214.73 439.79C214.682 439.823 214.628 439.844 214.57 439.85C214.51 439.85 214.47 439.7 214.47 439.6L210.39 372.6C210.387 372.363 210.441 372.129 210.549 371.918C210.658 371.707 210.816 371.526 211.01 371.39L252.68 347.47C252.728 347.437 252.783 347.416 252.84 347.41M252.84 346.91C252.695 346.914 252.554 346.955 252.43 347.03L210.76 371C210.489 371.186 210.268 371.435 210.116 371.726C209.964 372.017 209.887 372.342 209.89 372.67L213.97 439.67C213.97 440.12 214.24 440.38 214.57 440.38C214.715 440.376 214.856 440.335 214.98 440.26L256.65 416.34C256.921 416.154 257.142 415.905 257.294 415.614C257.446 415.323 257.523 414.998 257.52 414.67L253.44 347.67C253.44 347.22 253.17 346.96 252.84 346.96V346.91Z" fill="#EBEBEB"/>
<path d="M214.85 440.23C214.569 440.346 214.265 440.398 213.961 440.385C213.657 440.371 213.36 440.291 213.09 440.15C212.812 439.959 212.578 439.71 212.405 439.42C212.233 439.13 212.125 438.806 212.09 438.47L208.01 371.47C207.991 371.123 208.067 370.777 208.23 370.47L210.13 371.58C209.961 371.885 209.881 372.232 209.9 372.58L213.98 439.58C214 440.15 214.39 440.42 214.85 440.23Z" fill="#E0E0E0"/>
<path d="M231.79 365.51L246.48 357C246.94 356.74 247.34 357 247.37 357.52V357.86C247.376 358.15 247.309 358.437 247.174 358.694C247.039 358.951 246.842 359.17 246.6 359.33L231.91 367.87C231.45 368.13 231.05 367.87 231.02 367.35V367.01C231.009 366.715 231.074 366.422 231.209 366.159C231.343 365.896 231.544 365.673 231.79 365.51V365.51Z" fill="#E0E0E0"/>
<path d="M232.15 371.34L246.84 362.8C247.3 362.54 247.7 362.8 247.73 363.32V363.66C247.736 363.95 247.669 364.237 247.534 364.494C247.399 364.751 247.202 364.97 246.96 365.13L232.27 373.67C231.81 373.93 231.41 373.67 231.38 373.15V372.81C231.374 372.52 231.441 372.233 231.576 371.976C231.711 371.719 231.908 371.5 232.15 371.34V371.34Z" fill="#E0E0E0"/>
<path d="M232.5 377.17L247.19 368.63C247.65 368.37 248.05 368.63 248.08 369.15V369.49C248.086 369.78 248.019 370.067 247.884 370.324C247.749 370.581 247.552 370.8 247.31 370.96L232.62 379.5C232.16 379.76 231.76 379.5 231.73 378.98V378.64C231.724 378.35 231.791 378.063 231.926 377.806C232.061 377.549 232.258 377.33 232.5 377.17V377.17Z" fill="#E0E0E0"/>
<path d="M217.69 397.68L247.9 380.29C248.36 380.03 248.76 380.29 248.79 380.81V381.15C248.796 381.44 248.729 381.727 248.594 381.984C248.459 382.241 248.262 382.46 248.02 382.62L217.83 400C217.37 400.26 216.97 400 216.94 399.48V399.14C216.933 398.853 216.999 398.57 217.13 398.315C217.261 398.06 217.453 397.842 217.69 397.68Z" fill="#E0E0E0"/>
<path d="M217.33 391.85L247.54 374.46C248 374.2 248.4 374.46 248.43 374.98V375.32C248.436 375.61 248.369 375.897 248.234 376.154C248.099 376.411 247.902 376.63 247.66 376.79L217.45 394.18C216.99 394.44 216.59 394.18 216.56 393.66V393.32C216.554 393.03 216.621 392.743 216.756 392.486C216.891 392.229 217.088 392.01 217.33 391.85V391.85Z" fill="#E0E0E0"/>
<path d="M218 403.56L248.21 386.17C248.67 385.91 249.07 386.17 249.1 386.69V387.03C249.106 387.32 249.039 387.607 248.904 387.864C248.769 388.121 248.572 388.34 248.33 388.5L218.12 405.89C217.66 406.15 217.26 405.89 217.23 405.37V405.03C217.224 404.74 217.291 404.453 217.426 404.196C217.561 403.939 217.758 403.72 218 403.56V403.56Z" fill="#E0E0E0"/>
<path d="M218.4 409.39L248.61 392C249.07 391.74 249.47 392 249.5 392.52V392.86C249.506 393.15 249.439 393.437 249.304 393.694C249.169 393.951 248.972 394.17 248.73 394.33L218.52 411.72C218.06 411.98 217.66 411.72 217.63 411.2V410.86C217.624 410.57 217.691 410.283 217.826 410.026C217.961 409.769 218.158 409.55 218.4 409.39V409.39Z" fill="#E0E0E0"/>
<path d="M218.76 415.22L249 397.83C249.46 397.57 249.86 397.83 249.89 398.35V398.69C249.896 398.98 249.829 399.267 249.694 399.524C249.559 399.781 249.362 400 249.12 400.16L218.9 417.55C218.44 417.81 218.04 417.55 218.01 417.03V416.69C218.002 416.402 218.066 416.116 218.197 415.859C218.328 415.602 218.522 415.383 218.76 415.22V415.22Z" fill="#E0E0E0"/>
<path d="M219.11 421L249.32 403.61C249.78 403.35 250.18 403.61 250.21 404.13V404.47C250.216 404.76 250.149 405.047 250.014 405.304C249.879 405.561 249.682 405.78 249.44 405.94L219.23 423.33C218.77 423.59 218.37 423.33 218.34 422.81V422.47C218.334 422.18 218.401 421.893 218.536 421.636C218.671 421.379 218.868 421.16 219.11 421Z" fill="#E0E0E0"/>
<path d="M219.47 426.88L249.68 409.49C250.14 409.23 250.54 409.49 250.57 410.01V410.35C250.576 410.64 250.509 410.927 250.374 411.184C250.239 411.441 250.042 411.66 249.8 411.82L219.59 429.21C219.13 429.47 218.73 429.21 218.7 428.69V428.35C218.694 428.06 218.761 427.773 218.896 427.516C219.031 427.259 219.228 427.04 219.47 426.88Z" fill="#E0E0E0"/>
<path d="M215.6 373.85L227.81 366.86L228.7 381.5L216.5 388.48L215.6 373.85Z" fill="#8C503A"/>
<path d="M217.59 375.36L217.86 379.75L218.24 379.52L218.16 378.17C218.171 377.747 218.288 377.334 218.502 376.968C218.715 376.603 219.017 376.297 219.38 376.08L221.18 375.08L221.58 381.61C221.61 382.032 221.534 382.456 221.36 382.842C221.185 383.227 220.917 383.564 220.58 383.82L219.45 384.47V384.94L225.55 381.45V380.98L224.42 381.63C223.79 381.99 223.24 381.63 223.19 380.72L222.79 374.19L224.59 373.19C225.31 372.78 225.93 373.05 225.97 373.79L226.05 375.14L226.43 374.93L226.16 370.54L217.59 375.36Z" fill="#FAFAFA"/>
<path d="M221.56 415.23V453.27L166.82 421.6V383.56L221.56 415.23Z" fill="#8C503A"/>
<path opacity="0.38" d="M221.56 415.23V453.27L166.82 421.6V383.56L221.56 415.23Z" fill="black"/>
<path d="M270.16 425.21V387.17L221.56 415.23V453.27L270.16 425.21Z" fill="#8C503A"/>
<path opacity="0.23" d="M270.16 425.21V387.17L221.56 415.23V453.27L270.16 425.21Z" fill="black"/>
<path opacity="0.7" d="M270.16 387.17L221.56 415.23V453.27L222.46 415.99L270.16 387.17Z" fill="white"/>
<path d="M221.56 415.23L226.12 396.81L274.28 369L270.16 387.17L221.56 415.23Z" fill="#8C503A"/>
<path opacity="0.3" d="M221.56 415.23L226.12 396.81L274.28 369L270.16 387.17L221.56 415.23Z" fill="black"/>
<path d="M166.82 383.56L155.39 367.77L210.13 399.44L221.56 415.23L166.82 383.56Z" fill="#8C503A"/>
<path opacity="0.45" d="M166.82 383.56L155.39 367.77L210.13 399.44L221.56 415.23L166.82 383.56Z" fill="black"/>
<path opacity="0.7" d="M155.39 367.77L210.13 399.44L221.56 415.23L209.52 399.99L155.39 367.77Z" fill="white"/>
<g opacity="0.7">
<path d="M235.87 442C235.831 442 235.792 441.992 235.755 441.977C235.719 441.962 235.686 441.94 235.658 441.912C235.63 441.884 235.608 441.851 235.593 441.815C235.578 441.778 235.57 441.739 235.57 441.7V435C235.57 434.92 235.602 434.844 235.658 434.788C235.714 434.732 235.79 434.7 235.87 434.7C235.95 434.7 236.026 434.732 236.082 434.788C236.138 434.844 236.17 434.92 236.17 435V441.69C236.171 441.73 236.165 441.77 236.15 441.808C236.136 441.845 236.114 441.88 236.086 441.909C236.058 441.938 236.024 441.961 235.987 441.976C235.95 441.992 235.91 442 235.87 442V442Z" fill="white"/>
<path d="M235 437.28H234.88C234.807 437.249 234.75 437.191 234.72 437.118C234.69 437.045 234.69 436.963 234.72 436.89L235.78 434.43L236.97 435.8C237.011 435.861 237.028 435.934 237.018 436.007C237.009 436.079 236.973 436.146 236.917 436.194C236.862 436.242 236.791 436.268 236.718 436.267C236.645 436.266 236.574 436.239 236.52 436.19L235.96 435.54L235.27 437.12C235.244 437.169 235.205 437.21 235.158 437.238C235.11 437.266 235.055 437.281 235 437.28V437.28Z" fill="white"/>
<path d="M238.63 440.38C238.55 440.38 238.474 440.348 238.418 440.292C238.362 440.236 238.33 440.16 238.33 440.08V433.39C238.33 433.31 238.362 433.234 238.418 433.178C238.474 433.122 238.55 433.09 238.63 433.09C238.71 433.09 238.786 433.122 238.842 433.178C238.898 433.234 238.93 433.31 238.93 433.39V440.08C238.93 440.16 238.898 440.236 238.842 440.292C238.786 440.348 238.71 440.38 238.63 440.38V440.38Z" fill="white"/>
<path d="M237.76 435.71H237.64C237.567 435.679 237.51 435.621 237.48 435.548C237.45 435.475 237.45 435.393 237.48 435.32L238.54 432.87L239.73 434.24C239.771 434.301 239.788 434.374 239.778 434.447C239.769 434.519 239.733 434.586 239.677 434.634C239.622 434.682 239.551 434.708 239.478 434.707C239.405 434.706 239.334 434.679 239.28 434.63L238.72 433.98L238.04 435.56C238.012 435.609 237.971 435.649 237.921 435.675C237.872 435.702 237.816 435.714 237.76 435.71V435.71Z" fill="white"/>
</g>
<g opacity="0.7">
<path d="M227.9 446.5C227.785 446.503 227.671 446.475 227.57 446.42C227.451 446.343 227.355 446.236 227.291 446.109C227.228 445.983 227.2 445.841 227.21 445.7V444.88C227.21 444.8 227.242 444.724 227.298 444.668C227.354 444.612 227.43 444.58 227.51 444.58C227.59 444.58 227.666 444.612 227.722 444.668C227.778 444.724 227.81 444.8 227.81 444.88V445.7C227.81 445.82 227.81 445.89 227.87 445.9C227.93 445.91 227.96 445.9 228.07 445.85C228.255 445.679 228.401 445.469 228.498 445.236C228.594 445.003 228.639 444.752 228.63 444.5V441.07C228.63 440.99 228.662 440.914 228.718 440.858C228.774 440.802 228.85 440.77 228.93 440.77C229.01 440.77 229.086 440.802 229.142 440.858C229.198 440.914 229.23 440.99 229.23 441.07V444.5C229.245 444.857 229.176 445.212 229.029 445.537C228.881 445.862 228.659 446.147 228.38 446.37C228.235 446.456 228.069 446.501 227.9 446.5V446.5Z" fill="white"/>
<path d="M224.76 443.74V443.22C224.833 441.894 225.216 440.604 225.88 439.454C226.543 438.304 227.468 437.326 228.58 436.6C228.979 436.263 229.473 436.057 229.993 436.011C230.514 435.966 231.036 436.083 231.487 436.346C231.939 436.609 232.298 437.005 232.515 437.48C232.732 437.956 232.797 438.486 232.7 439V439.17L224.76 443.74ZM230.37 436.66C229.841 436.679 229.327 436.838 228.88 437.12C227.932 437.743 227.13 438.563 226.527 439.524C225.925 440.485 225.537 441.565 225.39 442.69L232.1 438.81C232.126 438.433 232.055 438.057 231.894 437.715C231.733 437.374 231.487 437.079 231.18 436.86C230.932 436.723 230.653 436.654 230.37 436.66V436.66Z" fill="white"/>
</g>
<path d="M386 372.35C385.6 372.35 385.61 373.48 385.74 373.99C385.87 374.5 387.43 376.25 390.29 376.94C393.15 377.63 397.14 377.21 398.85 377.2C400.56 377.19 403.48 378.1 405.17 378.41C406.86 378.72 409.94 378.23 410.98 377.3C411.151 377.114 411.28 376.894 411.36 376.654C411.439 376.415 411.466 376.161 411.44 375.91C411.44 374.78 411.34 374.55 411.21 374.55L386 372.35Z" fill="#37474F"/>
<path d="M410.94 371.16C410.94 371.38 411.02 371.61 411.06 371.84C411.274 372.991 411.307 374.168 411.16 375.33C410.93 375.71 410.622 376.038 410.257 376.291C409.892 376.545 409.477 376.718 409.04 376.8C407.135 377.292 405.131 377.247 403.25 376.67C401.822 376.28 400.35 376.078 398.87 376.07C396.889 376.21 394.901 376.21 392.92 376.07C391.429 375.944 389.968 375.583 388.59 375C387.485 374.485 386.584 373.616 386.03 372.53C385.984 371.719 386.187 370.914 386.61 370.221C387.033 369.527 387.658 368.98 388.4 368.65C389.797 368.018 391.333 367.757 392.86 367.89C394.52 367.96 395.77 368.23 397.25 368.18C398.281 368.196 399.304 367.991 400.25 367.58C400.699 367.258 401.046 366.813 401.25 366.3C401.51 365.79 401.61 365.3 402.08 365.3C402.08 365.3 409.08 365.42 409.75 365.51C410.42 365.6 410.59 368.43 410.67 368.98C410.75 369.53 410.73 369.87 410.82 370.29C410.91 370.71 410.89 370.88 410.94 371.16Z" fill="#455A64"/>
<path d="M396 367.88C395.89 367.81 395.768 367.763 395.64 367.74C394.97 367.61 394.43 368.26 394.12 368.74C393.948 369.055 393.817 369.391 393.73 369.74C393.582 370.164 393.558 370.622 393.66 371.06C393.66 371.17 393.77 371.3 393.88 371.28C393.99 371.26 394.01 371.13 394.03 371.03C394.112 370.417 394.305 369.824 394.6 369.28C394.706 369.044 394.855 368.83 395.04 368.65C395.24 368.47 395.475 368.334 395.73 368.25C395.83 368.25 396.29 368.25 396.18 368.03C396.157 367.993 396.126 367.963 396.09 367.94L396 367.88Z" fill="#FAFAFA"/>
<path d="M397.93 367.95C397.613 367.908 397.292 367.987 397.03 368.17C396.764 368.4 396.569 368.702 396.47 369.04C396.291 369.388 396.187 369.77 396.164 370.161C396.142 370.552 396.202 370.944 396.34 371.31C396.46 371.52 396.64 371.42 396.72 371.24C396.784 371.012 396.82 370.777 396.83 370.54C396.925 370.026 397.083 369.526 397.3 369.05C397.376 368.858 397.477 368.676 397.6 368.51C397.684 368.4 397.789 368.308 397.91 368.24C397.969 368.207 398.033 368.183 398.1 368.17H398.29C398.29 368.07 398.19 368.02 398.09 367.99L397.93 367.95Z" fill="#FAFAFA"/>
<path d="M399.92 367.46C399.692 367.524 399.487 367.652 399.33 367.83C399.195 368.005 399.096 368.206 399.04 368.42C398.875 368.895 398.767 369.389 398.72 369.89C398.694 370.237 398.766 370.583 398.93 370.89C399 371.01 399.13 371.13 399.26 371.08C399.39 371.03 399.4 370.8 399.41 370.67C399.42 370.54 399.41 370.19 399.41 369.95C399.449 369.077 399.76 368.238 400.3 367.55C400.308 367.531 400.313 367.511 400.313 367.49C400.313 367.469 400.308 367.449 400.3 367.43C400.3 367.37 400.2 367.36 400.13 367.37L399.92 367.46Z" fill="#FAFAFA"/>
<path d="M393.9 368C393.22 368 391.74 368.85 390.96 370.94C390.487 372.476 390.327 374.091 390.49 375.69C389.063 375.464 387.746 374.788 386.73 373.76C386.347 373.409 386.035 372.988 385.81 372.52C385.725 371.96 385.754 371.39 385.895 370.841C386.036 370.293 386.286 369.779 386.63 369.33C387.278 368.671 388.059 368.157 388.921 367.822C389.783 367.488 390.707 367.34 391.63 367.39C394.36 367.34 394.58 368.07 394.58 368.07L393.9 368Z" fill="#FAFAFA"/>
<path d="M410.06 360.84C410.06 360.84 409.84 364.42 409.56 366.08C409.4 367.02 408.48 368.46 405.56 368.4C404.824 368.454 404.091 368.264 403.475 367.859C402.858 367.454 402.392 366.857 402.15 366.16C401.975 363.981 401.922 361.795 401.99 359.61L410.06 360.84Z" fill="#FFA8A7"/>
<path d="M459.25 352L454.93 341.23L445.5 344.47C445.5 344.47 452.08 353.97 452.86 355C454.14 356.75 459.25 352 459.25 352Z" fill="#FFA8A7"/>
<path d="M463.53 355C463.581 355.432 463.581 355.868 463.53 356.3L463.19 360.81C463.154 361.406 463.07 361.998 462.94 362.58C462.843 363.289 462.816 364.006 462.86 364.72C462.86 365.47 462.86 366.22 462.86 366.97C462.818 367.302 462.818 367.638 462.86 367.97C462.94 368.28 458.12 371.04 456.17 372.11L455.82 372.28C455.277 372.464 454.693 372.493 454.134 372.362C453.576 372.231 453.065 371.946 452.66 371.54C452.26 370.539 452.17 369.44 452.404 368.388C452.638 367.335 453.184 366.378 453.97 365.64C453.97 365.64 454.22 365.64 454.17 363.75C454.17 362.4 454.17 361.02 454.02 359.67C453.928 358.82 453.713 357.988 453.38 357.2C452.95 356.501 452.667 355.722 452.55 354.91C452.661 354.323 452.923 353.775 453.31 353.32C453.623 352.825 454.022 352.392 454.49 352.04C455.485 351.229 456.651 350.655 457.9 350.36C458.149 350.293 458.411 350.293 458.66 350.36C459.05 350.48 459.28 350.86 459.53 351.17C460.168 351.82 460.904 352.366 461.71 352.79C462.523 353.223 463.154 353.932 463.49 354.79C463.506 354.859 463.52 354.929 463.53 355V355Z" fill="#455A64"/>
<path d="M453.94 365.62C453.705 365.906 453.495 366.21 453.31 366.53C452.448 368.047 452.205 369.838 452.63 371.53C449.23 371.22 448.33 369.25 448.33 369.25C448.325 368.646 448.489 368.052 448.801 367.535C449.113 367.018 449.563 366.597 450.1 366.32C450.334 366.168 450.582 366.038 450.84 365.93V365.93C451.814 365.499 452.9 365.391 453.94 365.62V365.62Z" fill="#FAFAFA"/>
<path d="M464.48 355.52C465.38 355.87 465.15 358.32 464.58 360.69C464.01 363.06 463.71 363.88 463.99 365.85C464.27 367.82 464.44 368.7 463.64 369.42C462.84 370.14 456.46 373.12 456.46 373.12C457.331 370.75 457.814 368.254 457.89 365.73C458.06 361.37 458.35 358.56 460.37 356.58C460.874 356.018 461.533 355.617 462.265 355.429C462.996 355.24 463.767 355.272 464.48 355.52V355.52Z" fill="#8C503A"/>
<path opacity="0.3" d="M464.48 355.52C465.38 355.87 465.15 358.32 464.58 360.69C464.01 363.06 463.71 363.88 463.99 365.85C464.27 367.82 464.44 368.7 463.64 369.42C462.84 370.14 456.46 373.12 456.46 373.12C457.331 370.75 457.814 368.254 457.89 365.73C458.06 361.37 458.35 358.56 460.37 356.58C460.874 356.018 461.533 355.617 462.265 355.429C462.996 355.24 463.767 355.272 464.48 355.52V355.52Z" fill="black"/>
<path d="M448.33 369.25C449.887 370.456 451.718 371.256 453.66 371.58C456.51 371.9 456.66 370.81 456.95 367.43C457.24 364.05 457.37 359.43 458.69 357.33C460.01 355.23 462.25 354.33 463.13 354.57C463.31 354.48 464.18 355.13 464.47 355.57C463.777 355.54 463.086 355.658 462.443 355.917C461.8 356.176 461.219 356.569 460.74 357.07C458.96 358.81 458.64 362.48 458.55 365.82C458.46 369.16 458.32 373.02 455.66 373.43C454.367 373.568 453.06 373.445 451.816 373.067C450.572 372.689 449.417 372.064 448.42 371.23C448.278 371.11 448.162 370.962 448.08 370.795C447.997 370.628 447.951 370.446 447.942 370.26C447.934 370.074 447.964 369.888 448.031 369.714C448.097 369.541 448.199 369.382 448.33 369.25V369.25Z" fill="#37474F"/>
<path d="M454.15 364.38C454.047 364.452 453.959 364.544 453.892 364.65C453.825 364.757 453.78 364.876 453.76 365C453.747 365.356 453.834 365.708 454.01 366.018C454.187 366.327 454.447 366.581 454.76 366.75C455.12 366.96 455.43 366.87 454.85 366.17C454.461 365.646 454.22 365.028 454.15 364.38V364.38Z" fill="#FAFAFA"/>
<path d="M454.09 362C453.952 362.136 453.867 362.317 453.85 362.51C453.988 363.251 454.407 363.911 455.02 364.35C455.65 364.63 455.31 363.94 455.02 363.62C454.67 363.104 454.359 362.562 454.09 362V362Z" fill="#FAFAFA"/>
<path d="M453.93 359.44C453.85 359.481 453.782 359.541 453.73 359.614C453.678 359.687 453.643 359.771 453.63 359.86C453.63 360.13 454.9 361.1 455.3 361.06C455.7 361.02 455.8 360.9 455.3 360.56C454.8 360.22 453.93 359.44 453.93 359.44Z" fill="#FAFAFA"/>
<path d="M448.52 349.43C448.52 349.43 427.92 318.7 427.3 316.29C426.68 313.88 422.77 288.79 422.77 288.79L414.71 318.34C415.188 321.084 415.432 323.864 415.44 326.65C415.374 331.532 414.825 336.396 413.8 341.17C411.65 351.33 410.43 361.05 410.43 361.05C409.084 361.793 407.555 362.139 406.02 362.05C404.501 362.002 403.017 361.579 401.7 360.82C401.7 360.82 400.58 333.35 400.26 327.05C399.94 320.75 399.74 317.94 400.09 313.8C400.57 308.15 400.83 302.28 401.92 290.06C402.92 279.32 404.82 256.46 404.82 256.46L437.91 254.27C437.91 254.27 440.7 259.55 441.03 273.27C441.29 283.98 441.27 313.38 441.27 313.38C446.18 316.46 447.69 319.65 450.03 325.68C451.51 329.48 455.32 341.28 456.44 344.77C452.31 345.88 448.52 349.43 448.52 349.43Z" fill="#455A64"/>
<path d="M354.21 272.21L330.21 279.12L325.43 280.5C325.172 280.568 324.899 280.556 324.648 280.466C324.397 280.376 324.179 280.211 324.023 279.995C323.867 279.778 323.78 279.519 323.774 279.252C323.769 278.986 323.844 278.723 323.99 278.5V278.5L327.3 274.02L341.86 254.3L346.8 261.52L354.21 272.21Z" fill="#F28F8F"/>
<path d="M346.85 261.46L327.6 276.88L323.93 279.81C323.82 279.602 323.771 279.367 323.786 279.132C323.802 278.897 323.883 278.672 324.02 278.48V278.48L327.33 274L341.89 254.28L346.85 261.46Z" fill="#FFA8A7"/>
<path d="M330.25 279.12L325.47 280.5C325.212 280.568 324.939 280.556 324.688 280.466C324.437 280.376 324.219 280.211 324.063 279.995C323.907 279.778 323.82 279.519 323.814 279.252C323.809 278.986 323.884 278.723 324.03 278.5V278.5L327.34 274.02C327.14 274.996 327.223 276.01 327.58 276.94C327.84 277.475 328.214 277.948 328.675 278.324C329.136 278.701 329.673 278.972 330.25 279.12Z" fill="#37474F"/>
<path d="M449.26 179.55L446.91 181.19L444.06 183.19L341.92 254.24C341.208 257.671 341.822 261.244 343.64 264.24C346.21 268.86 350.72 272.29 354.19 272.24L455.57 201.68L461 197.9C457.36 200.11 445.63 181.86 449.26 179.55Z" fill="#8C503A"/>
<path opacity="0.2" d="M449.26 179.55L446.91 181.19L444.06 183.19L341.92 254.24C341.208 257.671 341.822 261.244 343.64 264.24C346.21 268.86 350.72 272.29 354.19 272.24L455.57 201.68L461 197.9C457.36 200.11 445.63 181.86 449.26 179.55Z" fill="black"/>
<path d="M446.91 181.19L444.06 183.19L341.92 254.24C341.208 257.671 341.822 261.244 343.64 264.24L448.72 190.19L446.91 181.19Z" fill="#8C503A"/>
<path d="M440.28 185.76L435 189.43C433.44 190.43 434.73 194.37 437 198.36C440 203.66 444.75 209.04 446.82 207.71L450.69 205L452.08 204C450.01 205.34 445.26 200 442.25 194.65C440.07 190.83 438.81 187.04 440.1 185.87C440.148 185.817 440.211 185.779 440.28 185.76V185.76Z" fill="#E0E0E0"/>
<path d="M442.27 194.67C440.09 190.85 438.83 187.06 440.12 185.89C440.156 185.839 440.204 185.798 440.26 185.77L435 189.43C433.44 190.43 434.73 194.37 437 198.36L442.24 194.68L442.27 194.67Z" fill="#FAFAFA"/>
<path d="M439 186.69C435.38 189.04 447.2 207.3 450.82 204.95L456.09 201.29C452.47 203.64 440.64 185.38 444.27 183.03L439 186.69Z" fill="#8C503A"/>
<path d="M449.26 179.55L444.06 183.16C440.49 185.44 451.73 203.16 455.58 201.64C455.658 201.614 455.732 201.577 455.8 201.53L461.01 197.85C457.36 200.11 445.63 181.86 449.26 179.55Z" fill="#E0E0E0"/>
<path d="M471.33 164.23L449.26 179.55C447.71 180.55 448.96 184.43 451.19 188.4C454.19 193.71 458.92 199.15 461.01 197.85L482.23 183.1C487.46 180.1 483.09 169.22 477.53 165.18C475.5 163.65 473.29 163.09 471.33 164.23Z" fill="#F28F8F"/>
<path d="M471.33 164.23L449.26 179.55C447.71 180.55 448.96 184.43 451.19 188.4L473.44 173.67C473.44 173.67 470.65 168.17 471.78 165.93C472.91 163.69 475.14 163.84 477.56 165.18C475.5 163.65 473.29 163.09 471.33 164.23Z" fill="#FFA8A7"/>
<path opacity="0.4" d="M444.24 183L439 186.69C437.45 187.69 438.73 191.62 441 195.59L446.25 191.9C444 187.94 442.7 184 444.24 183Z" fill="white"/>
<path d="M449.26 179.55L444.06 183.16C442.5 184.16 443.76 188.08 445.99 192.06L451.2 188.4C449 184.43 447.71 180.54 449.26 179.55Z" fill="#FAFAFA"/>
<path d="M415.73 209.76L416.85 221.96L427.76 221.33L426.94 207.8L415.73 209.76Z" fill="#FFA8A7"/>
<path d="M407.69 196.34C407.69 196.34 405.26 199.92 405.57 200.34C406.136 200.709 406.762 200.976 407.42 201.13L407.69 196.34Z" fill="#F28F8F"/>
<path d="M434.13 187.33C433.79 187.01 433.41 186.71 433.13 186.33C432.987 186.181 432.856 186.021 432.74 185.85C431.96 184.69 431.65 183.37 430.74 182.29C429.787 181.234 428.603 180.413 427.28 179.89C424.878 179.047 422.329 178.707 419.79 178.89C417.256 179.058 414.714 179.058 412.18 178.89C411.055 178.638 409.884 178.679 408.78 179.01C408.161 179.327 407.65 179.82 407.31 180.427C406.97 181.033 406.817 181.727 406.87 182.42C407.001 183.812 407.604 185.118 408.58 186.12C408.074 186.275 407.637 186.601 407.345 187.043C407.054 187.484 406.924 188.014 406.98 188.54C407.123 189.593 407.591 190.576 408.32 191.35C409.49 192.77 410.4 193.75 410.74 195.6C411.22 198.14 413.95 199.49 415.68 201.28C416.34 201.914 416.968 202.582 417.56 203.28L417.66 203.43C417.144 203.512 416.615 203.467 416.12 203.3C416.12 203.3 415.8 208.71 419.62 210.47C422.125 210.951 424.71 210.813 427.15 210.07C429.859 207.945 432.137 205.321 433.86 202.34C436.39 198.16 438.33 191.27 434.13 187.33Z" fill="#263238"/>
<path d="M419.55 202.34C419.317 202.666 419.019 202.94 418.675 203.145C418.331 203.35 417.948 203.481 417.55 203.53C417.034 203.614 416.505 203.569 416.01 203.4C416.01 203.4 415.77 207.5 418.22 209.7C417.72 209.9 417.22 210.06 416.86 210.18C414.66 210.83 410.45 210.54 409.64 209.77C408.43 208.62 406.46 205.58 407.57 196.86C407.815 194.111 408.699 191.457 410.15 189.11C410.24 189.73 410.484 190.317 410.86 190.819C411.235 191.32 411.73 191.719 412.3 191.98C411.988 192.406 411.772 192.896 411.669 193.414C411.565 193.932 411.576 194.466 411.7 194.98C412.123 196.187 412.857 197.26 413.83 198.09C413.88 198.15 413.946 198.195 414.02 198.22C414.285 198.266 414.558 198.228 414.8 198.11C415.58 196.97 416.65 195.65 418.74 196.35C421.21 197.19 421.07 200.14 419.55 202.34Z" fill="#FFA8A7"/>
<path d="M409.91 209.93C410.91 210.48 413.7 210.71 415.79 210.42L415.73 208.85C414.831 209.238 413.897 209.539 412.94 209.75C411.945 209.964 410.923 210.025 409.91 209.93Z" fill="#F28F8F"/>
<path d="M413.71 201.2C413.456 201.114 413.222 200.978 413.021 200.799C412.821 200.621 412.658 200.403 412.544 200.161C412.429 199.918 412.364 199.655 412.353 199.387C412.342 199.119 412.385 198.851 412.48 198.6C412.675 198.091 413.062 197.68 413.558 197.454C414.053 197.227 414.618 197.204 415.13 197.39L413.71 201.2Z" fill="#263238"/>
<path opacity="0.15" d="M422.74 288.9L425.54 276.9C425.54 276.9 430.31 277.24 436.17 272.55C436.17 272.55 435.49 276.74 427.22 278.69L424.48 290.45L425.34 305.02C425.34 305.02 422.78 289.17 422.74 288.9Z" fill="black"/>
<path d="M437.06 218.17C436.06 215.02 434.44 213.85 432.9 213.55C431.023 213.389 429.137 213.389 427.26 213.55C426.92 215.3 421.26 216.55 416.2 214.74L411.1 215.54C406.59 217.62 405.57 222.81 403.19 228.12C402.329 229.894 402.102 231.909 402.546 233.831C402.989 235.752 404.078 237.463 405.63 238.68C405.63 238.68 405.19 245.06 404.95 248.68C404.603 254.013 404.233 259.347 403.84 264.68C403.84 264.68 408.84 269.25 424.32 268.68C435.65 268.26 439.69 264.47 440.32 262.74C439.71 255.62 436.13 248.91 435.43 246.74C434.617 244.557 434.386 242.2 434.76 239.9C437.54 229.15 438.51 222.55 437.06 218.17Z" fill="#8C503A"/>
<path opacity="0.4" d="M437.06 218.17C436.06 215.02 434.44 213.85 432.9 213.55C431.023 213.389 429.137 213.389 427.26 213.55C426.92 215.3 421.26 216.55 416.2 214.74L411.1 215.54C406.59 217.62 405.57 222.81 403.19 228.12C402.329 229.894 402.102 231.909 402.546 233.831C402.989 235.752 404.078 237.463 405.63 238.68C405.63 238.68 405.19 245.06 404.95 248.68C404.603 254.013 404.233 259.347 403.84 264.68C403.84 264.68 408.84 269.25 424.32 268.68C435.65 268.26 439.69 264.47 440.32 262.74C439.71 255.62 436.13 248.91 435.43 246.74C434.617 244.557 434.386 242.2 434.76 239.9C437.54 229.15 438.51 222.55 437.06 218.17Z" fill="white"/>
<path d="M413 215.35C404.24 215.82 403.67 217.74 399.65 225.92C397.52 230.24 394.18 238.92 392.17 243.1C387.75 245.1 377.55 246.74 373.53 245.87C372.728 245.717 372.014 245.267 371.53 244.61C370.25 242.81 368.98 242.56 367.43 241.27C366.23 240.27 365.88 239.37 365.53 239.54C365.148 239.775 364.869 240.146 364.748 240.578C364.628 241.01 364.675 241.471 364.88 241.87C365.231 242.643 365.689 243.364 366.24 244.01C364.64 243.43 363.128 242.629 361.75 241.63C358.43 239.28 356.49 239.3 356.75 244.48C356.94 247.73 359.12 250.18 366.43 252.13C369.112 252.902 371.845 253.48 374.61 253.86C381.622 254.362 388.669 253.911 395.56 252.52C397.071 252.124 398.427 251.281 399.45 250.1C402.26 247.2 408.72 234.47 408.72 234.47C413.73 226.74 414.15 219.7 413 215.35Z" fill="#FFA8A7"/>
<path d="M417.71 154.38C417.598 154.315 417.505 154.222 417.44 154.11L414.04 148.23V145L424.04 141.09V144.33L422.83 147.83L428.77 144.4L429.13 146.4L425.6 158C425.565 158.103 425.507 158.197 425.43 158.276C425.354 158.354 425.262 158.414 425.159 158.452C425.057 158.491 424.948 158.506 424.839 158.497C424.73 158.488 424.625 158.455 424.53 158.4L417.71 154.38Z" fill="#8C503A"/>
<path opacity="0.3" d="M417.71 154.38C417.598 154.315 417.505 154.222 417.44 154.11L414.04 148.23V145L424.04 141.09V144.33L422.83 147.83L428.77 144.4L429.13 146.4L425.6 158C425.565 158.103 425.507 158.197 425.43 158.276C425.354 158.354 425.262 158.414 425.159 158.452C425.057 158.491 424.948 158.506 424.839 158.497C424.73 158.488 424.625 158.455 424.53 158.4L417.71 154.38Z" fill="black"/>
<path d="M428.77 144.39L429.13 146.39L425.6 158C425.554 158.134 425.47 158.252 425.359 158.34C425.247 158.428 425.113 158.482 424.972 158.496C424.831 158.509 424.688 158.482 424.562 158.417C424.436 158.353 424.331 158.253 424.26 158.13L420.42 151.48L420.86 149.01L428.77 144.39Z" fill="#8C503A"/>
<path opacity="0.2" d="M428.77 144.39L429.13 146.39L425.6 158C425.554 158.134 425.47 158.252 425.359 158.34C425.247 158.428 425.113 158.482 424.972 158.496C424.831 158.509 424.688 158.482 424.562 158.417C424.436 158.353 424.331 158.253 424.26 158.13L420.42 151.48L420.86 149.01L428.77 144.39Z" fill="black"/>
<path d="M441.16 110.92C441.099 109.796 440.774 108.702 440.211 107.728C439.648 106.753 438.863 105.925 437.92 105.31V105.31C436.917 104.801 435.809 104.536 434.685 104.536C433.561 104.536 432.453 104.801 431.45 105.31L401.13 122.69C400.186 123.304 399.401 124.132 398.838 125.107C398.275 126.082 397.95 127.176 397.89 128.3V153.3C397.951 154.424 398.276 155.518 398.839 156.492C399.402 157.467 400.187 158.295 401.13 158.91V158.91C402.133 159.419 403.241 159.684 404.365 159.684C405.489 159.684 406.597 159.419 407.6 158.91L438.23 141.31C441.14 139.65 441.16 137.99 441.16 135.92V110.92Z" fill="#8C503A"/>
<path opacity="0.2" d="M441.16 110.92C441.099 109.796 440.774 108.702 440.211 107.728C439.648 106.753 438.863 105.925 437.92 105.31V105.31C436.917 104.801 435.809 104.536 434.685 104.536C433.561 104.536 432.453 104.801 431.45 105.31L401.13 122.69C400.186 123.304 399.401 124.132 398.838 125.107C398.275 126.082 397.95 127.176 397.89 128.3V153.3C397.951 154.424 398.276 155.518 398.839 156.492C399.402 157.467 400.187 158.295 401.13 158.91V158.91C402.133 159.419 403.241 159.684 404.365 159.684C405.489 159.684 406.597 159.419 407.6 158.91L438.23 141.31C441.14 139.65 441.16 137.99 441.16 135.92V110.92Z" fill="black"/>
<path opacity="0.2" d="M397.89 153.28C397.951 154.404 398.276 155.498 398.839 156.472C399.402 157.447 400.187 158.275 401.13 158.89C402.042 159.35 403.041 159.612 404.061 159.658C405.081 159.705 406.1 159.535 407.05 159.16C405.53 159.74 404.37 158.87 404.37 157.02V132C404.41 130.873 404.737 129.775 405.32 128.81L398.85 125.08C398.267 126.045 397.94 127.143 397.9 128.27L397.89 153.28Z" fill="black"/>
<path d="M441.06 110C440.68 108.63 439.43 108.19 437.93 109L407.6 126.44C406.641 127.032 405.854 127.867 405.32 128.86L398.85 125.13C399.388 124.14 400.174 123.306 401.13 122.71L431.45 105.32C432.455 104.814 433.565 104.55 434.69 104.55C435.815 104.55 436.925 104.814 437.93 105.32V105.32C438.742 105.847 439.438 106.534 439.976 107.338C440.514 108.143 440.883 109.049 441.06 110Z" fill="#8C503A"/>
<path d="M429.24 130.87C429.24 132.4 430.31 133.02 431.64 132.25C432.338 131.796 432.919 131.183 433.336 130.462C433.753 129.741 433.994 128.932 434.04 128.1C434.04 126.57 432.97 125.95 431.64 126.72C430.942 127.175 430.361 127.787 429.944 128.508C429.527 129.229 429.286 130.038 429.24 130.87V130.87Z" fill="#FAFAFA"/>
<path d="M420.37 136C420.37 137.53 421.44 138.15 422.77 137.38C423.468 136.926 424.049 136.313 424.466 135.592C424.883 134.871 425.124 134.062 425.17 133.23C425.17 131.7 424.1 131.08 422.77 131.85C422.072 132.305 421.491 132.917 421.074 133.638C420.657 134.359 420.416 135.168 420.37 136V136Z" fill="#FAFAFA"/>
<path d="M411.49 141.12C411.49 142.65 412.56 143.27 413.89 142.5C414.588 142.046 415.169 141.433 415.586 140.712C416.003 139.991 416.244 139.182 416.29 138.35C416.29 136.82 415.22 136.2 413.89 136.97C413.192 137.425 412.611 138.037 412.194 138.758C411.777 139.479 411.536 140.288 411.49 141.12V141.12Z" fill="#FAFAFA"/>
</svg>
