<svg width="500" height="500" viewBox="0 0 500 500" fill="none" xmlns="http://www.w3.org/2000/svg">
<path d="M128.22 403.87C198.97 441.63 313.68 441.64 384.43 403.87C455.18 366.1 455.18 304.87 384.43 267.11C313.68 229.35 198.97 229.34 128.22 267.11C57.47 304.88 57.47 366.1 128.22 403.87Z" fill="#EBEBEB"/>
<path d="M405.24 310.18L394.92 304.18C394.92 304.18 392.39 282.07 394.07 264.95C396.43 240.89 411.97 211.95 430.51 218.74C449.05 225.53 422 250.08 416 270.48C410 290.88 405.24 310.18 405.24 310.18Z" fill="#8C503A"/>
<path opacity="0.1" d="M405.24 310.18L394.92 304.18C394.92 304.18 392.39 282.07 394.07 264.95C396.43 240.89 411.97 211.95 430.51 218.74C449.05 225.53 422 250.08 416 270.48C410 290.88 405.24 310.18 405.24 310.18Z" fill="black"/>
<path d="M399.87 307.47C399.774 307.468 399.681 307.432 399.61 307.368C399.538 307.304 399.492 307.216 399.48 307.12C395.97 280.12 405.58 239.32 424.97 223.83C425.01 223.791 425.057 223.761 425.11 223.742C425.162 223.722 425.218 223.714 425.273 223.717C425.329 223.721 425.383 223.736 425.432 223.761C425.482 223.787 425.526 223.822 425.561 223.865C425.595 223.909 425.621 223.959 425.635 224.013C425.65 224.067 425.653 224.123 425.644 224.178C425.636 224.233 425.616 224.285 425.586 224.332C425.556 224.379 425.516 224.419 425.47 224.45C406.28 239.77 396.79 280.26 400.27 307.01C400.284 307.115 400.257 307.221 400.193 307.305C400.129 307.389 400.035 307.445 399.93 307.46L399.87 307.47Z" fill="white"/>
<path d="M410.75 314.45L403.4 310.21C403.4 310.21 402.15 295.04 409.59 276.61C416.07 260.61 432.13 247.25 440.22 250.05C448.31 252.85 448.1 258.58 444.16 264.59C440.22 270.6 416.25 284.92 410.75 314.45Z" fill="#8C503A"/>
<path d="M406.2 314.84C406.096 314.832 405.998 314.784 405.929 314.706C405.86 314.627 405.825 314.525 405.83 314.42C408.25 276.66 427.35 258.09 438.83 255.26C438.883 255.239 438.94 255.23 438.997 255.233C439.054 255.236 439.109 255.251 439.16 255.277C439.21 255.303 439.255 255.34 439.29 255.385C439.325 255.43 439.351 255.481 439.364 255.537C439.378 255.592 439.38 255.65 439.369 255.706C439.359 255.762 439.337 255.815 439.304 255.861C439.271 255.908 439.229 255.947 439.18 255.976C439.131 256.005 439.077 256.024 439.02 256.03C426.94 259.03 408.9 279.12 406.63 314.47C406.626 314.523 406.612 314.574 406.588 314.621C406.565 314.668 406.532 314.71 406.492 314.744C406.452 314.779 406.406 314.805 406.356 314.821C406.305 314.838 406.253 314.844 406.2 314.84V314.84Z" fill="white"/>
<path d="M108 313.12C108 313.12 109.37 290.95 96.49 275.75C83.61 260.55 66.85 260.61 61.29 263.44C55.73 266.27 52.02 274.36 61.57 280.15C71.12 285.94 91.43 297.52 94.8 307.86L108 313.12Z" fill="#8C503A"/>
<path opacity="0.1" d="M108 313.12C108 313.12 109.37 290.95 96.49 275.75C83.61 260.55 66.85 260.61 61.29 263.44C55.73 266.27 52.02 274.36 61.57 280.15C71.12 285.94 91.43 297.52 94.8 307.86L108 313.12Z" fill="black"/>
<path d="M101.94 307.57C101.816 307.571 101.695 307.525 101.603 307.442C101.511 307.358 101.452 307.244 101.44 307.12C98.79 282.59 74.27 269 64.5 267.46C64.435 267.45 64.3725 267.428 64.3162 267.394C64.2598 267.36 64.2108 267.315 64.1717 267.262C64.1327 267.209 64.1046 267.149 64.0888 267.085C64.0731 267.021 64.0701 266.955 64.08 266.89C64.1022 266.76 64.174 266.643 64.2803 266.565C64.3866 266.487 64.5191 266.453 64.65 266.47C74.65 268.04 99.72 281.94 102.43 307.02C102.444 307.151 102.406 307.283 102.323 307.386C102.241 307.489 102.121 307.555 101.99 307.57H101.94Z" fill="white"/>
<path d="M97.17 301.94C93.94 294.58 90.29 291.28 79.79 293.04C69.29 294.8 70.79 294.53 57.94 291.24C52.52 289.86 46.43 289.64 41.24 291.98C36.85 293.98 33.57 297.98 37.82 302.24C42.59 307 49.72 308.63 55 312.82C56.1972 313.668 57.1493 314.816 57.76 316.15C59.15 319.69 56.37 323.68 57.18 327.39C57.99 331.1 61.89 333.08 65.55 333.32C69.21 333.56 72.82 332.46 76.47 332.04C80.12 331.62 84.22 332.04 86.73 334.75C89.43 337.63 89.5 342.21 92.01 345.26C95.78 349.84 105.01 351.1 110.01 348.26L123.1 340.72C131.75 329.06 118.1 319.82 110.95 310.72C107.49 306.35 99.11 306.37 97.17 301.94Z" fill="#8C503A"/>
<path d="M115 333.67C114.914 333.671 114.829 333.649 114.753 333.607C114.678 333.565 114.615 333.504 114.57 333.43C99.65 309.24 59 297 44.62 296C44.4891 295.99 44.3675 295.928 44.2814 295.829C44.1953 295.73 44.1517 295.601 44.16 295.47C44.1727 295.34 44.2347 295.22 44.3333 295.134C44.4319 295.049 44.5596 295.004 44.69 295.01C59.26 296.01 100.3 308.43 115.43 332.93C115.465 332.986 115.488 333.048 115.499 333.113C115.51 333.178 115.508 333.244 115.493 333.308C115.478 333.372 115.451 333.433 115.413 333.486C115.374 333.54 115.326 333.585 115.27 333.62C115.186 333.661 115.093 333.678 115 333.67Z" fill="white"/>
<path d="M67.71 322.27C67.6051 322.27 67.5028 322.237 67.4177 322.176C67.3325 322.114 67.2689 322.028 67.2357 321.928C67.2025 321.829 67.2015 321.721 67.2328 321.621C67.2641 321.521 67.3261 321.433 67.41 321.37C67.93 320.98 80.33 311.88 92.41 311.7C92.5426 311.7 92.6698 311.753 92.7636 311.846C92.8573 311.94 92.91 312.067 92.91 312.2C92.91 312.333 92.8573 312.46 92.7636 312.554C92.6698 312.647 92.5426 312.7 92.41 312.7C80.68 312.88 68.15 322.08 68.02 322.17C67.9307 322.237 67.8216 322.272 67.71 322.27V322.27Z" fill="white"/>
<path d="M114.07 342.17C114.177 343.624 114.625 345.033 115.377 346.282C116.129 347.531 117.165 348.585 118.4 349.36L239.73 419.36C241.072 420.041 242.555 420.396 244.06 420.396C245.565 420.396 247.048 420.041 248.39 419.36L414.39 323.52C415.696 322.827 416.788 321.792 417.55 320.525C418.311 319.258 418.714 317.808 418.714 316.33C418.714 314.852 418.311 313.402 417.55 312.135C416.788 310.868 415.696 309.833 414.39 309.14L293.06 239.14C291.718 238.459 290.235 238.104 288.73 238.104C287.225 238.104 285.742 238.459 284.4 239.14L118.4 335C117.167 335.772 116.132 336.823 115.38 338.069C114.628 339.314 114.179 340.719 114.07 342.17V342.17Z" fill="#37474F"/>
<path d="M164.13 308.58L118.4 335C117.094 335.693 116.002 336.728 115.24 337.995C114.479 339.262 114.076 340.712 114.076 342.19C114.076 343.668 114.479 345.118 115.24 346.385C116.002 347.652 117.094 348.687 118.4 349.38L239.73 419.38C241.065 420.076 242.555 420.42 244.06 420.38V308.58H164.13Z" fill="#263238"/>
<path d="M110 335.14C108.794 334.32 107.798 333.227 107.092 331.95C106.387 330.673 105.992 329.248 105.94 327.79V183C106.021 181.497 106.456 180.035 107.208 178.732C107.96 177.429 109.009 176.322 110.27 175.5L276.27 79.66C277.523 78.8767 278.965 78.4492 280.443 78.4234C281.92 78.3975 283.376 78.7742 284.656 79.5132C285.935 80.2521 286.99 81.3253 287.706 82.6178C288.422 83.9104 288.772 85.3733 288.72 86.85V231.64C288.639 233.142 288.204 234.605 287.452 235.908C286.7 237.211 285.651 238.318 284.39 239.14L118.4 335C117.11 335.682 115.676 336.051 114.217 336.075C112.757 336.099 111.312 335.779 110 335.14V335.14Z" fill="#455A64"/>
<path d="M126.26 189.73L107.26 178.73C106.479 180.022 106.042 181.492 105.99 183V327.79C106.042 329.248 106.437 330.673 107.142 331.95C107.848 333.227 108.844 334.32 110.05 335.14C111.362 335.776 112.805 336.094 114.263 336.067C115.721 336.041 117.152 335.672 118.44 334.99L137.34 324L126.26 189.73Z" fill="#263238"/>
<path d="M114.07 187.7V332.48C114.07 335.24 116.01 336.36 118.4 334.98L284.4 239.14C285.661 238.318 286.71 237.211 287.462 235.908C288.214 234.605 288.649 233.142 288.73 231.64V86.85C288.73 84.09 286.79 82.97 284.4 84.35L118.4 180.19C117.138 181.013 116.088 182.122 115.336 183.427C114.583 184.732 114.15 186.196 114.07 187.7Z" fill="#37474F"/>
<path d="M118.4 340L239.73 410C241.072 410.681 242.555 411.036 244.06 411.036C245.565 411.036 247.048 410.681 248.39 410L414.39 314.16C416.78 312.78 416.78 310.54 414.39 309.16L293.06 239.16C291.718 238.479 290.235 238.124 288.73 238.124C287.225 238.124 285.742 238.479 284.4 239.16L118.4 335C116 336.36 116 338.6 118.4 340Z" fill="#455A64"/>
<path d="M120.73 188.23L282.08 95.08C283.51 94.25 284.68 94.92 284.68 96.58V221.91C284.631 222.812 284.37 223.689 283.918 224.471C283.467 225.253 282.837 225.917 282.08 226.41L120.73 319.56C119.3 320.39 118.13 319.72 118.13 318.06V192.73C118.179 191.828 118.44 190.951 118.892 190.169C119.343 189.387 119.973 188.723 120.73 188.23V188.23Z" fill="white"/>
<path d="M132.48 336.23L286.57 247.23C287.241 246.89 287.983 246.713 288.735 246.713C289.487 246.713 290.229 246.89 290.9 247.23L298.78 251.78C299.041 251.869 299.268 252.037 299.429 252.261C299.589 252.485 299.676 252.754 299.676 253.03C299.676 253.306 299.589 253.575 299.429 253.799C299.268 254.023 299.041 254.191 298.78 254.28L144.67 343.27C143.999 343.61 143.257 343.787 142.505 343.787C141.753 343.787 141.011 343.61 140.34 343.27L132.48 338.73C132.219 338.641 131.992 338.473 131.831 338.249C131.671 338.025 131.584 337.756 131.584 337.48C131.584 337.204 131.671 336.935 131.831 336.711C131.992 336.487 132.219 336.319 132.48 336.23V336.23Z" fill="#263238"/>
<path d="M152.8 348L306.89 259C307.561 258.66 308.303 258.483 309.055 258.483C309.807 258.483 310.549 258.66 311.22 259L359.7 287C359.961 287.089 360.188 287.257 360.349 287.481C360.509 287.705 360.596 287.974 360.596 288.25C360.596 288.526 360.509 288.795 360.349 289.019C360.188 289.243 359.961 289.411 359.7 289.5L205.78 378.32C205.109 378.658 204.367 378.835 203.615 378.835C202.863 378.835 202.122 378.658 201.45 378.32L152.8 350.45C152.551 350.356 152.337 350.188 152.186 349.969C152.035 349.75 151.954 349.491 151.954 349.225C151.954 348.959 152.035 348.699 152.186 348.481C152.337 348.262 152.551 348.094 152.8 348V348Z" fill="#263238"/>
<path d="M290.92 299L295.74 296.21C295.95 296.09 295.93 295.89 295.74 295.77L290.16 292.55C290.041 292.489 289.909 292.458 289.775 292.458C289.641 292.458 289.509 292.489 289.39 292.55L284.57 295.34C284.36 295.46 284.38 295.66 284.57 295.78L290.15 299C290.269 299.061 290.401 299.092 290.535 299.092C290.669 299.092 290.801 299.061 290.92 299ZM281.4 288L276.58 290.79C276.38 290.91 276.39 291.11 276.58 291.23L282.16 294.45C282.279 294.511 282.411 294.542 282.545 294.542C282.679 294.542 282.811 294.511 282.93 294.45L287.75 291.66C287.96 291.54 287.94 291.34 287.75 291.22L282.17 288C282.051 287.939 281.919 287.908 281.785 287.908C281.651 287.908 281.519 287.939 281.4 288ZM265.81 297L257.65 301.71C257.45 301.83 257.46 302.03 257.65 302.15L263.23 305.37C263.349 305.431 263.481 305.462 263.615 305.462C263.749 305.462 263.881 305.431 264 305.37L272.16 300.66C272.37 300.54 272.35 300.34 272.16 300.22L266.58 297C266.462 296.941 266.332 296.91 266.2 296.91C266.068 296.91 265.938 296.941 265.82 297H265.81ZM274.35 292.07L269.53 294.86C269.33 294.98 269.34 295.18 269.53 295.3L275.11 298.52C275.229 298.581 275.361 298.612 275.495 298.612C275.629 298.612 275.761 298.581 275.88 298.52L280.7 295.73C280.91 295.61 280.89 295.41 280.7 295.29L275.12 292C275.001 291.939 274.869 291.908 274.735 291.908C274.601 291.908 274.469 291.939 274.35 292V292.07ZM255.42 303L250.6 305.79C250.39 305.91 250.41 306.11 250.6 306.23L256.18 309.45C256.299 309.511 256.431 309.542 256.565 309.542C256.699 309.542 256.831 309.511 256.95 309.45L261.77 306.66C261.97 306.54 261.96 306.34 261.77 306.22L256.19 303C256.075 302.932 255.945 302.891 255.811 302.883C255.677 302.874 255.543 302.897 255.42 302.95V303ZM248.37 307L243.55 309.79C243.34 309.91 243.36 310.11 243.55 310.23L249.13 313.45C249.249 313.511 249.381 313.542 249.515 313.542C249.649 313.542 249.781 313.511 249.9 313.45L254.72 310.66C254.93 310.54 254.91 310.34 254.72 310.22L249.14 307C249.021 306.939 248.889 306.908 248.755 306.908C248.621 306.908 248.489 306.939 248.37 307V307ZM270.31 320.1L275.13 317.31C275.33 317.19 275.32 316.99 275.13 316.87L269.55 313.65C269.431 313.589 269.299 313.558 269.165 313.558C269.031 313.558 268.899 313.589 268.78 313.65L263.96 316.44C263.75 316.56 263.77 316.76 263.96 316.88L269.54 320.1C269.659 320.165 269.792 320.201 269.928 320.205C270.063 320.208 270.198 320.179 270.32 320.12L270.31 320.1ZM263.26 324.17L268.08 321.38C268.29 321.26 268.27 321.06 268.08 320.94L262.5 317.72C262.381 317.659 262.249 317.628 262.115 317.628C261.981 317.628 261.849 317.659 261.73 317.72L256.91 320.51C256.7 320.63 256.72 320.83 256.91 320.95L262.49 324.17C262.609 324.235 262.742 324.271 262.878 324.275C263.013 324.278 263.148 324.249 263.27 324.19L263.26 324.17ZM256.21 328.24L261.03 325.45C261.24 325.33 261.22 325.13 261.03 325.01L255.45 321.79C255.331 321.729 255.199 321.698 255.065 321.698C254.931 321.698 254.799 321.729 254.68 321.79L249.86 324.58C249.65 324.7 249.67 324.9 249.86 325.02L255.44 328.24C255.558 328.304 255.689 328.339 255.823 328.342C255.956 328.346 256.089 328.318 256.21 328.26V328.24ZM249.16 332.31L253.98 329.52C254.19 329.4 254.17 329.2 253.98 329.08L248.4 325.86C248.281 325.799 248.149 325.768 248.015 325.768C247.881 325.768 247.749 325.799 247.63 325.86L242.81 328.65C242.6 328.77 242.62 328.97 242.81 329.09L248.39 332.31C248.508 332.374 248.639 332.409 248.773 332.412C248.906 332.416 249.039 332.388 249.16 332.33V332.31ZM283.87 303.07L288.69 300.28C288.89 300.16 288.88 299.96 288.69 299.84L283.11 296.62C282.991 296.559 282.859 296.528 282.725 296.528C282.591 296.528 282.459 296.559 282.34 296.62L277.52 299.41C277.31 299.53 277.33 299.73 277.52 299.85L283.1 303.07C283.218 303.134 283.349 303.169 283.483 303.172C283.616 303.176 283.749 303.148 283.87 303.09V303.07ZM277.37 316.07L288.13 309.86C288.33 309.74 288.32 309.54 288.13 309.42L274.58 301.6C274.461 301.539 274.329 301.508 274.195 301.508C274.061 301.508 273.929 301.539 273.81 301.6L268.24 304.81C268.03 304.93 268.05 305.13 268.24 305.25L275.41 309.39C275.63 309.52 275.64 309.72 275.41 309.83L271 312.37C270.79 312.49 270.81 312.69 271 312.81L276.6 316C276.719 316.061 276.851 316.092 276.985 316.092C277.119 316.092 277.251 316.061 277.37 316V316.07ZM241.37 311.07L236.55 313.86C236.35 313.98 236.36 314.18 236.55 314.3L242.13 317.52C242.249 317.581 242.381 317.612 242.515 317.612C242.649 317.612 242.781 317.581 242.9 317.52L247.72 314.73C247.92 314.61 247.91 314.41 247.72 314.29L242.14 311.07C242.013 311.004 241.871 310.971 241.727 310.975C241.584 310.978 241.444 311.018 241.32 311.09L241.37 311.07ZM234.32 315.14L229.5 317.93C229.29 318.05 229.31 318.25 229.5 318.37L235.08 321.59C235.199 321.651 235.331 321.682 235.465 321.682C235.599 321.682 235.731 321.651 235.85 321.59L240.67 318.8C240.88 318.68 240.86 318.48 240.67 318.36L235 315.18C234.887 315.123 234.763 315.091 234.637 315.088C234.511 315.084 234.385 315.109 234.27 315.16L234.32 315.14ZM199 360.81C199.119 360.871 199.251 360.902 199.385 360.902C199.519 360.902 199.651 360.871 199.77 360.81L204.59 358.02C204.79 357.9 204.78 357.7 204.59 357.58L199 354.38C198.881 354.319 198.749 354.288 198.615 354.288C198.481 354.288 198.349 354.319 198.23 354.38L193.41 357.17C193.2 357.29 193.22 357.49 193.41 357.61L199 360.81ZM177.83 347.73L173 350.52C172.79 350.64 172.81 350.84 173 350.96L178.58 354.18C178.699 354.241 178.831 354.272 178.965 354.272C179.099 354.272 179.231 354.241 179.35 354.18L184.17 351.39C184.37 351.27 184.36 351.07 184.17 350.95L178.59 347.73C178.476 347.676 178.351 347.648 178.225 347.648C178.099 347.648 177.974 347.676 177.86 347.73H177.83ZM189.18 357.28C189.299 357.341 189.431 357.372 189.565 357.372C189.699 357.372 189.831 357.341 189.95 357.28L194.77 354.49C194.97 354.37 194.96 354.17 194.77 354.05L189.19 350.83C189.071 350.769 188.939 350.738 188.805 350.738C188.671 350.738 188.539 350.769 188.42 350.83L183.6 353.62C183.39 353.74 183.41 353.94 183.6 354.06L189.18 357.28ZM211.46 363.28L216.28 360.49C216.49 360.37 216.47 360.17 216.28 360.05L210.7 356.83C210.581 356.769 210.449 356.738 210.315 356.738C210.181 356.738 210.049 356.769 209.93 356.83L205.11 359.62C204.91 359.74 204.92 359.94 205.11 360.06L210.69 363.28C210.811 363.345 210.946 363.381 211.084 363.382C211.221 363.384 211.357 363.352 211.48 363.29L211.46 363.28ZM203.64 367.34C203.759 367.401 203.891 367.432 204.025 367.432C204.159 367.432 204.291 367.401 204.41 367.34L209.23 364.55C209.43 364.43 209.42 364.23 209.23 364.11L203.65 360.89C203.531 360.829 203.399 360.798 203.265 360.798C203.131 360.798 202.999 360.829 202.88 360.89L198.06 363.68C197.86 363.8 197.87 364 198.06 364.12L203.64 367.34ZM184.89 343.66L180.07 346.45C179.86 346.57 179.88 346.77 180.07 346.89L185.65 350.11C185.769 350.171 185.901 350.202 186.035 350.202C186.169 350.202 186.301 350.171 186.42 350.11L191.24 347.32C191.45 347.2 191.43 347 191.24 346.88L185.66 343.66C185.543 343.603 185.415 343.573 185.285 343.573C185.155 343.573 185.027 343.603 184.91 343.66H184.89ZM220.15 323.3L215.33 326.09C215.13 326.21 215.14 326.41 215.33 326.53L220.91 329.75C221.029 329.811 221.161 329.842 221.295 329.842C221.429 329.842 221.561 329.811 221.68 329.75L226.5 326.96C226.7 326.84 226.69 326.64 226.5 326.52L220.92 323.3C220.803 323.244 220.674 323.216 220.544 323.218C220.414 323.22 220.286 323.251 220.17 323.31L220.15 323.3ZM192 339.59L187.18 342.38C186.97 342.5 186.99 342.7 187.18 342.82L192.76 346.04C192.879 346.101 193.011 346.132 193.145 346.132C193.279 346.132 193.411 346.101 193.53 346.04L198.35 343.25C198.56 343.13 198.54 342.93 198.35 342.81L192.77 339.59C192.651 339.529 192.519 339.498 192.385 339.498C192.251 339.498 192.119 339.529 192 339.59ZM227.26 319.23L222.39 322C222.18 322.12 222.2 322.32 222.39 322.44L227.97 325.66C228.089 325.721 228.221 325.752 228.355 325.752C228.489 325.752 228.621 325.721 228.74 325.66L233.56 322.87C233.77 322.75 233.75 322.55 233.56 322.43L228 319.25C227.881 319.185 227.748 319.149 227.612 319.145C227.477 319.142 227.342 319.171 227.22 319.23H227.26ZM213.16 327.37L208.34 330.16C208.13 330.28 208.15 330.48 208.34 330.6L213.92 333.82C214.039 333.881 214.171 333.912 214.305 333.912C214.439 333.912 214.571 333.881 214.69 333.82L219.51 331.03C219.72 330.91 219.7 330.71 219.51 330.59L213.93 327.37C213.805 327.304 213.665 327.271 213.524 327.272C213.382 327.274 213.243 327.311 213.12 327.38L213.16 327.37ZM206.11 331.44L201.29 334.23C201.08 334.35 201.1 334.55 201.29 334.67L206.87 337.89C206.989 337.951 207.121 337.982 207.255 337.982C207.389 337.982 207.521 337.951 207.64 337.89L212.46 335.1C212.66 334.98 212.65 334.78 212.46 334.66L206.88 331.44C206.754 331.372 206.612 331.338 206.469 331.34C206.325 331.341 206.185 331.379 206.06 331.45L206.11 331.44ZM199 335.52L194.18 338.31C193.97 338.43 193.99 338.63 194.18 338.75L199.76 341.97C199.879 342.031 200.011 342.062 200.145 342.062C200.279 342.062 200.411 342.031 200.53 341.97L205.35 339.18C205.55 339.06 205.54 338.86 205.35 338.74L199.77 335.52C199.651 335.459 199.519 335.428 199.385 335.428C199.251 335.428 199.119 335.459 199 335.52V335.52ZM235 340.52L239.82 337.73C240.03 337.61 240.01 337.41 239.82 337.29L234.28 334C234.161 333.939 234.029 333.908 233.895 333.908C233.761 333.908 233.629 333.939 233.51 334L228.69 336.79C228.48 336.91 228.5 337.11 228.69 337.23L234.27 340.45C234.39 340.517 234.525 340.554 234.663 340.557C234.8 340.561 234.937 340.531 235.06 340.47L235 340.52ZM297 279L292.18 281.79C291.97 281.91 291.99 282.11 292.18 282.23L297.76 285.45C297.879 285.511 298.011 285.542 298.145 285.542C298.279 285.542 298.411 285.511 298.53 285.45L303.35 282.66C303.56 282.54 303.54 282.34 303.35 282.22L297.76 279C297.642 278.941 297.512 278.91 297.38 278.91C297.248 278.91 297.118 278.941 297 279V279ZM288.46 283.93L283.64 286.72C283.43 286.84 283.45 287.04 283.64 287.16L289.22 290.38C289.339 290.441 289.471 290.472 289.605 290.472C289.739 290.472 289.871 290.441 289.99 290.38L294.81 287.59C295.01 287.47 295 287.27 294.81 287.15L289.23 283.93C289.113 283.86 288.982 283.819 288.846 283.81C288.71 283.801 288.575 283.825 288.45 283.88L288.46 283.93ZM304.05 274.93L299.23 277.72C299.03 277.84 299.04 278.04 299.23 278.16L304.81 281.38C304.929 281.441 305.061 281.472 305.195 281.472C305.329 281.472 305.461 281.441 305.58 281.38L310.4 278.59C310.6 278.47 310.59 278.27 310.4 278.15L304.82 274.93C304.699 274.853 304.56 274.808 304.416 274.799C304.273 274.791 304.13 274.818 304 274.88L304.05 274.93ZM267.55 312.57L272.37 309.78C272.58 309.66 272.56 309.46 272.37 309.34L266.79 306.12C266.671 306.059 266.539 306.028 266.405 306.028C266.271 306.028 266.139 306.059 266.02 306.12L261.2 308.91C260.99 309.03 261.01 309.23 261.2 309.35L266.78 312.57C266.902 312.621 267.034 312.644 267.166 312.635C267.298 312.626 267.426 312.587 267.54 312.52L267.55 312.57ZM311.87 270.88C311.751 270.819 311.619 270.788 311.485 270.788C311.351 270.788 311.219 270.819 311.1 270.88L306.28 273.67C306.08 273.79 306.09 273.99 306.28 274.11L311.86 277.33C311.979 277.391 312.111 277.422 312.245 277.422C312.379 277.422 312.511 277.391 312.63 277.33L317.45 274.54C317.66 274.42 317.64 274.22 317.45 274.1L311.87 270.88ZM242.11 336.4L246.93 333.61C247.14 333.49 247.12 333.29 246.93 333.17L241.33 330C241.211 329.939 241.079 329.908 240.945 329.908C240.811 329.908 240.679 329.939 240.56 330L235.74 332.79C235.53 332.91 235.55 333.11 235.74 333.23L241.32 336.45C241.446 336.506 241.584 336.531 241.721 336.523C241.859 336.514 241.992 336.472 242.11 336.4ZM328.58 286.48L333.4 283.69C333.61 283.57 333.59 283.37 333.4 283.25L327.8 280C327.681 279.939 327.549 279.908 327.415 279.908C327.281 279.908 327.149 279.939 327.03 280L322.21 282.79C322.01 282.91 322.02 283.11 322.21 283.23L327.79 286.45C327.909 286.519 328.044 286.557 328.181 286.562C328.319 286.568 328.456 286.539 328.58 286.48V286.48ZM313.58 285.95L318.4 283.16C318.6 283.04 318.59 282.84 318.4 282.72L312.82 279.5C312.701 279.439 312.569 279.408 312.435 279.408C312.301 279.408 312.169 279.439 312.05 279.5L307.23 282.29C307.02 282.41 307.04 282.61 307.23 282.73L312.81 285.95C312.927 286.007 313.055 286.037 313.185 286.037C313.315 286.037 313.443 286.007 313.56 285.95H313.58ZM319.85 275.43C319.731 275.369 319.599 275.338 319.465 275.338C319.331 275.338 319.199 275.369 319.08 275.43L314.26 278.22C314.06 278.34 314.07 278.54 314.26 278.66L319.84 281.88C319.959 281.941 320.091 281.972 320.225 281.972C320.359 281.972 320.491 281.941 320.61 281.88L325.43 279.09C325.63 278.97 325.62 278.77 325.43 278.65L319.85 275.43ZM321.33 274.57L334.88 282.39C334.999 282.451 335.131 282.482 335.265 282.482C335.399 282.482 335.531 282.451 335.65 282.39L340.47 279.6C340.68 279.48 340.66 279.28 340.47 279.16L326.92 271.34C326.801 271.279 326.669 271.248 326.535 271.248C326.401 271.248 326.269 271.279 326.15 271.34L321.33 274.13C321.08 274.24 321.1 274.44 321.32 274.57H321.33ZM304.97 283.57L300.15 286.36C299.94 286.48 299.96 286.68 300.15 286.8L305.73 290.02C305.849 290.081 305.981 290.112 306.115 290.112C306.249 290.112 306.381 290.081 306.5 290.02L311.32 287.23C311.52 287.11 311.51 286.91 311.32 286.79L305.74 283.57C305.626 283.511 305.5 283.479 305.372 283.475C305.244 283.472 305.117 283.497 305 283.55L304.97 283.57ZM251.9 314.21L247.06 317C246.85 317.12 246.87 317.32 247.06 317.44L252.64 320.66C252.759 320.721 252.891 320.752 253.025 320.752C253.159 320.752 253.291 320.721 253.41 320.66L258.23 317.87C258.44 317.75 258.42 317.55 258.23 317.43L252.65 314.21C252.534 314.148 252.404 314.114 252.272 314.11C252.14 314.107 252.01 314.134 251.89 314.19L251.9 314.21ZM320.77 290.55C320.889 290.611 321.021 290.642 321.155 290.642C321.289 290.642 321.421 290.611 321.54 290.55L326.36 287.76C326.56 287.64 326.55 287.44 326.36 287.32L320.78 284.1C320.661 284.039 320.529 284.008 320.395 284.008C320.261 284.008 320.129 284.039 320.01 284.1L315.19 286.89C314.98 287.01 315 287.21 315.19 287.33L320.77 290.55ZM258.95 310.14L254.13 312.93C253.92 313.05 253.94 313.25 254.13 313.37L259.71 316.59C259.829 316.651 259.961 316.682 260.095 316.682C260.229 316.682 260.361 316.651 260.48 316.59L265.3 313.8C265.51 313.68 265.49 313.48 265.3 313.36L259.72 310.14C259.601 310.075 259.468 310.039 259.332 310.035C259.197 310.032 259.062 310.061 258.94 310.12L258.95 310.14ZM206.1 356.76C206.219 356.821 206.351 356.852 206.485 356.852C206.619 356.852 206.751 356.821 206.87 356.76L211.69 353.97C211.89 353.85 211.88 353.65 211.69 353.53L206.11 350.31C205.991 350.249 205.859 350.218 205.725 350.218C205.591 350.218 205.459 350.249 205.34 350.31L200.52 353.1C200.31 353.22 200.33 353.42 200.52 353.54L206.1 356.76ZM195.49 346.76L190.67 349.55C190.47 349.67 190.48 349.87 190.67 349.99L196.25 353.21C196.369 353.271 196.501 353.302 196.635 353.302C196.769 353.302 196.901 353.271 197.02 353.21L201.84 350.42C202.05 350.3 202.03 350.1 201.84 349.98L196.26 346.76C196.139 346.698 196.006 346.665 195.87 346.665C195.734 346.665 195.601 346.698 195.48 346.76H195.49ZM213.92 352.69L218.74 349.9C218.95 349.78 218.93 349.58 218.74 349.46L213.16 346.24C213.041 346.179 212.909 346.148 212.775 346.148C212.641 346.148 212.509 346.179 212.39 346.24L207.53 349C207.33 349.12 207.34 349.32 207.53 349.44L213.11 352.66C213.231 352.73 213.367 352.77 213.506 352.775C213.646 352.78 213.784 352.751 213.91 352.69H213.92ZM220.97 348.62L225.79 345.83C226 345.71 225.98 345.51 225.79 345.39L220.21 342.17C220.091 342.109 219.959 342.078 219.825 342.078C219.691 342.078 219.559 342.109 219.44 342.17L214.62 344.96C214.42 345.08 214.43 345.28 214.62 345.4L220.2 348.62C220.323 348.686 220.46 348.72 220.6 348.72C220.739 348.72 220.877 348.686 221 348.62H220.97ZM228.02 344.55L232.84 341.76C233.04 341.64 233.03 341.44 232.84 341.32L227.26 338.1C227.141 338.039 227.009 338.008 226.875 338.008C226.741 338.008 226.609 338.039 226.49 338.1L221.67 340.89C221.46 341.01 221.48 341.21 221.67 341.33L227.25 344.55C227.367 344.606 227.496 344.634 227.626 344.632C227.756 344.63 227.884 344.599 228 344.54L228.02 344.55ZM202.54 342.7L197.72 345.49C197.51 345.61 197.53 345.81 197.72 345.93L203.3 349.15C203.419 349.211 203.551 349.242 203.685 349.242C203.819 349.242 203.951 349.211 204.07 349.15L208.89 346.36C209.1 346.24 209.08 346.04 208.89 345.92L203.31 342.7C203.19 342.636 203.057 342.602 202.921 342.6C202.785 342.599 202.651 342.629 202.53 342.69L202.54 342.7ZM209.59 338.63L204.77 341.42C204.56 341.54 204.58 341.74 204.77 341.86L210.35 345.08C210.469 345.141 210.601 345.172 210.735 345.172C210.869 345.172 211.001 345.141 211.12 345.08L216 342.3C216.2 342.18 216.19 341.98 216 341.86L210.42 338.64C210.294 338.564 210.15 338.522 210.003 338.519C209.855 338.515 209.71 338.55 209.58 338.62L209.59 338.63ZM237.79 322.35L233 325.12C232.79 325.24 232.81 325.44 233 325.56L238.58 328.78C238.699 328.841 238.831 328.872 238.965 328.872C239.099 328.872 239.231 328.841 239.35 328.78L244.17 325.99C244.38 325.87 244.36 325.67 244.17 325.55L238.59 322.33C238.466 322.266 238.328 322.233 238.189 322.235C238.049 322.237 237.912 322.273 237.79 322.34V322.35ZM230.74 326.42L225.92 329.21C225.72 329.33 225.73 329.53 225.92 329.65L231.5 332.87C231.619 332.931 231.751 332.962 231.885 332.962C232.019 332.962 232.151 332.931 232.27 332.87L237.09 330.08C237.29 329.96 237.28 329.76 237.09 329.64L231.51 326.42C231.39 326.356 231.257 326.322 231.121 326.32C230.985 326.319 230.851 326.349 230.73 326.41L230.74 326.42ZM244.84 318.28L240 321C239.79 321.12 239.81 321.32 240 321.44L245.58 324.66C245.699 324.721 245.831 324.752 245.965 324.752C246.099 324.752 246.231 324.721 246.35 324.66L251.17 321.87C251.38 321.75 251.36 321.55 251.17 321.43L245.59 318.21C245.469 318.16 245.339 318.139 245.209 318.148C245.079 318.156 244.953 318.195 244.84 318.26V318.28ZM216.64 334.56L211.82 337.35C211.61 337.47 211.63 337.67 211.82 337.79L217.4 341.01C217.519 341.071 217.651 341.102 217.785 341.102C217.919 341.102 218.051 341.071 218.17 341.01L222.99 338.22C223.19 338.1 223.18 337.9 222.99 337.78L217.41 334.56C217.29 334.496 217.157 334.462 217.021 334.46C216.885 334.458 216.751 334.489 216.63 334.55L216.64 334.56ZM223.69 330.49L218.87 333.28C218.67 333.4 218.68 333.6 218.87 333.72L224.45 336.94C224.569 337.001 224.701 337.032 224.835 337.032C224.969 337.032 225.101 337.001 225.22 336.94L230.04 334.15C230.25 334.03 230.23 333.83 230.04 333.71L224.46 330.49C224.34 330.426 224.207 330.392 224.071 330.39C223.935 330.388 223.801 330.419 223.68 330.48L223.69 330.49ZM218.54 359.23L223.36 356.44C223.57 356.32 223.55 356.12 223.36 356L217.78 352.78C217.661 352.719 217.529 352.688 217.395 352.688C217.261 352.688 217.129 352.719 217.01 352.78L212.19 355.57C211.98 355.69 212 355.89 212.19 356.01L217.77 359.23C217.89 359.289 218.022 359.319 218.156 359.317C218.29 359.315 218.421 359.282 218.54 359.22V359.23ZM177.16 355L171.58 351.78C171.461 351.719 171.329 351.688 171.195 351.688C171.061 351.688 170.929 351.719 170.81 351.78L166 354.59C165.79 354.71 165.81 354.91 166 355.03L171.58 358.25C171.699 358.311 171.831 358.342 171.965 358.342C172.099 358.342 172.231 358.311 172.35 358.25L177.17 355.46C177.39 355.37 177.38 355.17 177.16 355ZM187.73 358.1L182.15 354.88C182.031 354.819 181.899 354.788 181.765 354.788C181.631 354.788 181.499 354.819 181.38 354.88L174 359.19C173.79 359.31 173.81 359.51 174 359.63L179.58 362.85C179.699 362.911 179.831 362.942 179.965 362.942C180.099 362.942 180.231 362.911 180.35 362.85L187.77 358.56C188 358.47 187.94 358.27 187.72 358.14L187.73 358.1ZM168.6 348.77L163 345.59C162.881 345.529 162.749 345.498 162.615 345.498C162.481 345.498 162.349 345.529 162.23 345.59L156.31 349C156.11 349.12 156.12 349.32 156.31 349.44L161.89 352.66C162.009 352.721 162.141 352.752 162.275 352.752C162.409 352.752 162.541 352.721 162.66 352.66L168.6 349.23C168.83 349.14 168.82 348.94 168.6 348.81V348.77ZM173.15 346.14C173.269 346.201 173.401 346.232 173.535 346.232C173.669 346.232 173.801 346.201 173.92 346.14L178.74 343.35C178.95 343.23 178.93 343.03 178.74 342.91L173.16 339.69C173.041 339.629 172.909 339.598 172.775 339.598C172.641 339.598 172.509 339.629 172.39 339.69L167.57 342.48C167.36 342.6 167.38 342.8 167.57 342.92L173.15 346.14ZM197.55 361.63L192 358.45C191.881 358.389 191.749 358.358 191.615 358.358C191.481 358.358 191.349 358.389 191.23 358.45L181.95 363.81C181.75 363.93 181.76 364.13 181.95 364.25L187.53 367.47C187.649 367.531 187.781 367.562 187.915 367.562C188.049 367.562 188.181 367.531 188.3 367.47L197.58 362.11C197.78 362 197.77 361.8 197.55 361.67V361.63ZM202.18 368.16L196.6 365C196.481 364.939 196.349 364.908 196.215 364.908C196.081 364.908 195.949 364.939 195.83 365L189.89 368.43C189.68 368.55 189.7 368.75 189.89 368.87L195.47 372.09C195.589 372.151 195.721 372.182 195.855 372.182C195.989 372.182 196.121 372.151 196.24 372.09L202.18 368.66C202.41 368.53 202.4 368.33 202.18 368.2V368.16ZM225.58 315.88C225.699 315.941 225.831 315.972 225.965 315.972C226.099 315.972 226.231 315.941 226.35 315.88L231.17 313.09C231.38 312.97 231.36 312.77 231.17 312.65L225.59 309.43C225.471 309.369 225.339 309.338 225.205 309.338C225.071 309.338 224.939 309.369 224.82 309.43L220 312.25C219.79 312.37 219.81 312.57 220 312.69L225.58 315.88ZM211.48 324.02C211.599 324.081 211.731 324.112 211.865 324.112C211.999 324.112 212.131 324.081 212.25 324.02L217.07 321.23C217.28 321.11 217.26 320.91 217.07 320.79L211.49 317.57C211.371 317.509 211.239 317.478 211.105 317.478C210.971 317.478 210.839 317.509 210.72 317.57L205.9 320.36C205.69 320.48 205.71 320.68 205.9 320.8L211.48 324.02ZM180.2 342.11C180.319 342.171 180.451 342.202 180.585 342.202C180.719 342.202 180.851 342.171 180.97 342.11L185.79 339.32C185.99 339.2 185.98 339 185.79 338.88L180.21 335.66C180.091 335.599 179.959 335.568 179.825 335.568C179.691 335.568 179.559 335.599 179.44 335.66L174.62 338.45C174.42 338.57 174.43 338.77 174.62 338.89L180.2 342.11ZM218.53 320C218.649 320.061 218.781 320.092 218.915 320.092C219.049 320.092 219.181 320.061 219.3 320L224.12 317.21C224.32 317.09 224.31 316.89 224.12 316.77L218.54 313.55C218.421 313.489 218.289 313.458 218.155 313.458C218.021 313.458 217.889 313.489 217.77 313.55L212.95 316.34C212.74 316.46 212.76 316.66 212.95 316.78L218.53 320ZM204.43 328.14C204.549 328.201 204.681 328.232 204.815 328.232C204.949 328.232 205.081 328.201 205.2 328.14L210.02 325.35C210.23 325.23 210.21 325.03 210.02 324.91L204.44 321.69C204.321 321.629 204.189 321.598 204.055 321.598C203.921 321.598 203.789 321.629 203.67 321.69L198.85 324.48C198.64 324.6 198.66 324.8 198.85 324.92L204.43 328.14ZM206.06 368.74C205.941 368.679 205.809 368.648 205.675 368.648C205.541 368.648 205.409 368.679 205.29 368.74L197.86 373C197.65 373.12 197.67 373.32 197.86 373.44L203.44 376.66C203.559 376.721 203.691 376.752 203.825 376.752C203.959 376.752 204.091 376.721 204.21 376.66L211.63 372.37C211.84 372.25 211.82 372.05 211.63 371.93L206.06 368.74ZM194.3 334C194.419 334.061 194.551 334.092 194.685 334.092C194.819 334.092 194.951 334.061 195.07 334L199.89 331.21C200.1 331.09 200.08 330.89 199.89 330.77L194.31 327.55C194.191 327.489 194.059 327.458 193.925 327.458C193.791 327.458 193.659 327.489 193.54 327.55L188.72 330.34C188.51 330.46 188.53 330.66 188.72 330.78L194.3 334ZM187.25 338C187.369 338.061 187.501 338.092 187.635 338.092C187.769 338.092 187.901 338.061 188.02 338L192.84 335.21C193.05 335.09 193.03 334.89 192.84 334.77L187.26 331.55C187.141 331.489 187.009 331.458 186.875 331.458C186.741 331.458 186.609 331.489 186.49 331.55L181.67 334.34C181.47 334.46 181.48 334.66 181.67 334.78L187.25 338ZM336.69 293.3C336.571 293.239 336.439 293.208 336.305 293.208C336.171 293.208 336.039 293.239 335.92 293.3L324 300.14C323.79 300.26 323.81 300.46 324 300.58L329.58 303.8C329.699 303.861 329.831 303.892 329.965 303.892C330.099 303.892 330.231 303.861 330.35 303.8L342.29 297C342.49 296.88 342.48 296.68 342.29 296.56L336.69 293.3ZM321.1 302.3C320.981 302.239 320.849 302.208 320.715 302.208C320.581 302.208 320.449 302.239 320.33 302.3L315.51 305.09C315.3 305.21 315.32 305.41 315.51 305.53L321.09 308.75C321.209 308.811 321.341 308.842 321.475 308.842C321.609 308.842 321.741 308.811 321.86 308.75L326.68 305.96C326.89 305.84 326.87 305.64 326.68 305.52L321.1 302.3ZM225.59 355.14L230.41 352.35C230.61 352.23 230.6 352.03 230.41 351.91L224.83 348.69C224.711 348.629 224.579 348.598 224.445 348.598C224.311 348.598 224.179 348.629 224.06 348.69L219.24 351.48C219.03 351.6 219.05 351.8 219.24 351.92L224.82 355.14C224.938 355.202 225.07 355.235 225.204 355.237C225.338 355.239 225.47 355.209 225.59 355.15V355.14ZM307 310.44C306.881 310.379 306.749 310.348 306.615 310.348C306.481 310.348 306.349 310.379 306.23 310.44L301.41 313.23C301.21 313.35 301.22 313.55 301.41 313.67L306.99 316.89C307.109 316.951 307.241 316.982 307.375 316.982C307.509 316.982 307.641 316.951 307.76 316.89L312.58 314.1C312.79 313.98 312.77 313.78 312.58 313.66L307 310.44ZM343.74 289.23C343.621 289.169 343.489 289.138 343.355 289.138C343.221 289.138 343.089 289.169 342.97 289.23L338.15 292C337.95 292.12 337.96 292.32 338.15 292.44L343.73 295.66C343.849 295.721 343.981 295.752 344.115 295.752C344.249 295.752 344.381 295.721 344.5 295.66L349.32 292.87C349.53 292.75 349.51 292.55 349.32 292.43L343.74 289.23ZM356.37 288.38L342.82 280.56C342.701 280.499 342.569 280.468 342.435 280.468C342.301 280.468 342.169 280.499 342.05 280.56L337.23 283.35C337.02 283.47 337.04 283.67 337.23 283.79L350.78 291.61C350.899 291.671 351.031 291.702 351.165 291.702C351.299 291.702 351.431 291.671 351.55 291.61L356.37 288.82C356.6 288.71 356.59 288.51 356.37 288.38ZM280.65 325.66C280.531 325.599 280.399 325.568 280.265 325.568C280.131 325.568 279.999 325.599 279.88 325.66L273.94 329.09C273.73 329.21 273.75 329.41 273.94 329.53L279.52 332.75C279.639 332.811 279.771 332.842 279.905 332.842C280.039 332.842 280.171 332.811 280.29 332.75L286.23 329.32C286.44 329.2 286.42 329 286.23 328.88L280.65 325.66ZM298.46 315.38C298.341 315.319 298.209 315.288 298.075 315.288C297.941 315.288 297.809 315.319 297.69 315.38L290.27 319.67C290.07 319.79 290.08 319.99 290.27 320.11L295.85 323.33C295.969 323.391 296.101 323.422 296.235 323.422C296.369 323.422 296.501 323.391 296.62 323.33L304.04 319.04C304.25 318.92 304.23 318.72 304.04 318.6L298.46 315.38ZM264.32 335.09C264.201 335.029 264.069 334.998 263.935 334.998C263.801 334.998 263.669 335.029 263.55 335.09L223.84 358C223.63 358.12 223.65 358.32 223.84 358.44L229.42 361.66C229.539 361.721 229.671 361.752 229.805 361.752C229.939 361.752 230.071 361.721 230.19 361.66L269.9 338.73C270.11 338.61 270.09 338.41 269.9 338.29L264.32 335.09ZM222.38 359.3C222.261 359.239 222.129 359.208 221.995 359.208C221.861 359.208 221.729 359.239 221.61 359.3L215.67 362.73C215.46 362.85 215.48 363.05 215.67 363.17L221.25 366.39C221.369 366.451 221.501 366.482 221.635 366.482C221.769 366.482 221.901 366.451 222.02 366.39L228 363C228.2 362.88 228.19 362.68 228 362.56L222.38 359.3ZM272.48 330.37C272.361 330.309 272.229 330.278 272.095 330.278C271.961 330.278 271.829 330.309 271.71 330.37L265.77 333.8C265.56 333.92 265.58 334.12 265.77 334.24L271.35 337.46C271.469 337.521 271.601 337.552 271.735 337.552C271.869 337.552 272.001 337.521 272.12 337.46L278.06 334.03C278.27 333.91 278.25 333.71 278.06 333.59L272.48 330.37ZM214.22 364C214.101 363.939 213.969 363.908 213.835 363.908C213.701 363.908 213.569 363.939 213.45 364L207.51 367.43C207.31 367.55 207.32 367.75 207.51 367.87L213.09 371.09C213.209 371.151 213.341 371.182 213.475 371.182C213.609 371.182 213.741 371.151 213.86 371.09L219.8 367.66C220 367.54 219.99 367.34 219.8 367.22L214.22 364ZM288.82 320.93C288.701 320.869 288.569 320.838 288.435 320.838C288.301 320.838 288.169 320.869 288.05 320.93L282.11 324.36C281.91 324.48 281.92 324.68 282.11 324.8L287.69 328.02C287.809 328.081 287.941 328.112 288.075 328.112C288.209 328.112 288.341 328.081 288.46 328.02L294.4 324.59C294.61 324.47 294.59 324.27 294.4 324.15L288.82 320.93ZM314.06 306.36C313.941 306.299 313.809 306.268 313.675 306.268C313.541 306.268 313.409 306.299 313.29 306.36L308.47 309.15C308.26 309.27 308.28 309.47 308.47 309.59L314.05 312.81C314.169 312.871 314.301 312.902 314.435 312.902C314.569 312.902 314.701 312.871 314.82 312.81L319.64 310.02C319.85 309.9 319.83 309.7 319.64 309.58L314.06 306.36ZM329.51 295.14L334.33 292.35C334.54 292.23 334.52 292.03 334.33 291.91L328.75 288.69C328.631 288.629 328.499 288.598 328.365 288.598C328.231 288.598 328.099 288.629 327.98 288.69L323.16 291.48C322.96 291.6 322.97 291.8 323.16 291.92L328.74 295.14C328.857 295.201 328.987 295.233 329.119 295.235C329.251 295.236 329.381 295.207 329.5 295.15L329.51 295.14ZM297.98 294.94L302.8 292.15C303.01 292.03 302.99 291.83 302.8 291.71L297.22 288.49C297.101 288.429 296.969 288.398 296.835 288.398C296.701 288.398 296.569 288.429 296.45 288.49L291.63 291.28C291.42 291.4 291.44 291.6 291.63 291.72L297.21 294.94C297.331 295.005 297.466 295.041 297.604 295.042C297.741 295.044 297.877 295.012 298 294.95L297.98 294.94ZM281.98 322.57L296.08 314.43C296.29 314.31 296.27 314.11 296.08 313.99L290.5 310.77C290.381 310.709 290.249 310.678 290.115 310.678C289.981 310.678 289.849 310.709 289.73 310.77L275.63 318.91C275.42 319.03 275.44 319.23 275.63 319.35L281.21 322.57C281.331 322.636 281.466 322.671 281.604 322.672C281.741 322.674 281.877 322.642 282 322.58L281.98 322.57ZM321.66 299.2C321.779 299.261 321.911 299.292 322.045 299.292C322.179 299.292 322.311 299.261 322.43 299.2L327.25 296.41C327.46 296.29 327.44 296.09 327.25 295.97L321.67 292.75C321.551 292.689 321.419 292.658 321.285 292.658C321.151 292.658 321.019 292.689 320.9 292.75L316.08 295.54C315.88 295.66 315.89 295.86 316.08 295.98L321.66 299.2ZM314.46 294.61L319.28 291.82C319.48 291.7 319.47 291.5 319.28 291.38L313.7 288.16C313.581 288.099 313.449 288.068 313.315 288.068C313.181 288.068 313.049 288.099 312.93 288.16L308.11 290.95C307.9 291.07 307.92 291.27 308.11 291.39L313.69 294.61C313.811 294.675 313.946 294.711 314.084 294.712C314.221 294.714 314.357 294.682 314.48 294.62L314.46 294.61ZM274.93 326.61L279.75 323.82C279.96 323.7 279.94 323.5 279.75 323.38L274.17 320.16C274.051 320.099 273.919 320.068 273.785 320.068C273.651 320.068 273.519 320.099 273.4 320.16L268.57 323C268.37 323.12 268.38 323.32 268.57 323.44L274.15 326.66C274.274 326.724 274.412 326.757 274.551 326.755C274.691 326.753 274.828 326.717 274.95 326.65L274.93 326.61ZM306.08 308.17C306.199 308.231 306.331 308.262 306.465 308.262C306.599 308.262 306.731 308.231 306.85 308.17L311.67 305.38C311.88 305.26 311.86 305.06 311.67 304.94L306.09 301.72C305.971 301.659 305.839 301.628 305.705 301.628C305.571 301.628 305.439 301.659 305.32 301.72L300.5 304.51C300.29 304.63 300.31 304.83 300.5 304.95L306.08 308.17ZM239.69 347L244.51 344.21C244.71 344.09 244.7 343.89 244.51 343.77L238.93 340.55C238.811 340.489 238.679 340.458 238.545 340.458C238.411 340.458 238.279 340.489 238.16 340.55L233.34 343.34C233.13 343.46 233.15 343.66 233.34 343.78L238.92 347C239.039 347.061 239.171 347.092 239.305 347.092C239.439 347.092 239.571 347.061 239.69 347ZM246.74 342.93L251.56 340.14C251.76 340.02 251.75 339.82 251.56 339.7L246 336.48C245.881 336.419 245.749 336.388 245.615 336.388C245.481 336.388 245.349 336.419 245.23 336.48L240.41 339.27C240.2 339.39 240.22 339.59 240.41 339.71L245.99 342.93C246.107 342.987 246.235 343.017 246.365 343.017C246.495 343.017 246.623 342.987 246.74 342.93ZM232.64 351.07L237.46 348.28C237.67 348.16 237.65 347.96 237.46 347.84L231.88 344.62C231.761 344.559 231.629 344.528 231.495 344.528C231.361 344.528 231.229 344.559 231.11 344.62L226.29 347.41C226.08 347.53 226.1 347.73 226.29 347.85L231.87 351.07C231.989 351.131 232.121 351.162 232.255 351.162C232.389 351.162 232.521 351.131 232.64 351.07V351.07ZM260.84 334.79L265.66 332C265.87 331.88 265.85 331.68 265.66 331.56L260.08 328.34C259.961 328.279 259.829 328.248 259.695 328.248C259.561 328.248 259.429 328.279 259.31 328.34L254.49 331.13C254.29 331.25 254.3 331.45 254.49 331.57L260.07 334.79C260.189 334.851 260.321 334.882 260.455 334.882C260.589 334.882 260.721 334.851 260.84 334.79V334.79ZM253.79 338.86L258.61 336.07C258.82 335.95 258.8 335.75 258.61 335.63L253 332.41C252.881 332.349 252.749 332.318 252.615 332.318C252.481 332.318 252.349 332.349 252.23 332.41L247.41 335.2C247.21 335.32 247.22 335.52 247.41 335.64L252.99 338.86C253.113 338.926 253.25 338.96 253.39 338.96C253.529 338.96 253.667 338.926 253.79 338.86V338.86ZM267.89 330.72L272.71 327.93C272.91 327.81 272.9 327.61 272.71 327.49L267.13 324.27C267.011 324.209 266.879 324.178 266.745 324.178C266.611 324.178 266.479 324.209 266.36 324.27L261.52 327C261.32 327.12 261.33 327.32 261.52 327.44L267.1 330.66C267.217 330.733 267.35 330.777 267.488 330.788C267.625 330.798 267.763 330.775 267.89 330.72V330.72ZM300.15 270.5C300.269 270.561 300.401 270.592 300.535 270.592C300.669 270.592 300.801 270.561 300.92 270.5L305.74 267.71C305.95 267.59 305.93 267.39 305.74 267.27L304.26 266.41C304.141 266.349 304.009 266.318 303.875 266.318C303.741 266.318 303.609 266.349 303.49 266.41L298.67 269.2C298.47 269.32 298.48 269.52 298.67 269.64L300.15 270.5ZM265.46 292.89C265.579 292.951 265.711 292.982 265.845 292.982C265.979 292.982 266.111 292.951 266.23 292.89L271.05 290.1C271.25 289.98 271.24 289.78 271.05 289.66L265.47 286.44C265.351 286.379 265.219 286.348 265.085 286.348C264.951 286.348 264.819 286.379 264.7 286.44L259.88 289.23C259.67 289.35 259.69 289.55 259.88 289.67L265.46 292.89ZM279.56 284.75C279.679 284.811 279.811 284.842 279.945 284.842C280.079 284.842 280.211 284.811 280.33 284.75L285.15 281.96C285.36 281.84 285.34 281.64 285.15 281.52L279.57 278.3C279.451 278.239 279.319 278.208 279.185 278.208C279.051 278.208 278.919 278.239 278.8 278.3L274 281.08C273.8 281.2 273.81 281.4 274 281.52L279.56 284.75ZM256.85 297.86C256.969 297.921 257.101 297.952 257.235 297.952C257.369 297.952 257.501 297.921 257.62 297.86L262.44 295.07C262.64 294.95 262.63 294.75 262.44 294.63L256.86 291.41C256.741 291.349 256.609 291.318 256.475 291.318C256.341 291.318 256.209 291.349 256.09 291.41L251.27 294.2C251.06 294.32 251.08 294.52 251.27 294.64L256.85 297.86ZM272.51 288.86C272.629 288.921 272.761 288.952 272.895 288.952C273.029 288.952 273.161 288.921 273.28 288.86L278.1 286.07C278.3 285.95 278.29 285.75 278.1 285.63L272.52 282.41C272.401 282.349 272.269 282.318 272.135 282.318C272.001 282.318 271.869 282.349 271.75 282.41L266.93 285.2C266.72 285.32 266.74 285.52 266.93 285.64L272.51 288.86ZM242.75 306C242.869 306.061 243.001 306.092 243.135 306.092C243.269 306.092 243.401 306.061 243.52 306L248.34 303.21C248.55 303.09 248.53 302.89 248.34 302.77L242.76 299.55C242.641 299.489 242.509 299.458 242.375 299.458C242.241 299.458 242.109 299.489 241.99 299.55L237.17 302.34C236.96 302.46 236.98 302.66 237.17 302.78L242.75 306ZM249.8 301.93C249.919 301.991 250.051 302.022 250.185 302.022C250.319 302.022 250.451 301.991 250.57 301.93L255.39 299.14C255.6 299.02 255.58 298.82 255.39 298.7L249.81 295.48C249.691 295.419 249.559 295.388 249.425 295.388C249.291 295.388 249.159 295.419 249.04 295.48L244.22 298.27C244.01 298.39 244.03 298.59 244.22 298.71L249.8 301.93ZM286.05 278.64C286.169 278.701 286.301 278.732 286.435 278.732C286.569 278.732 286.701 278.701 286.82 278.64L291.64 275.85C291.84 275.73 291.83 275.53 291.64 275.41L290.15 274.55C290.031 274.489 289.899 274.458 289.765 274.458C289.631 274.458 289.499 274.489 289.38 274.55L284.56 277.34C284.35 277.46 284.37 277.66 284.56 277.78L286.05 278.64ZM307.2 266.43C307.319 266.491 307.451 266.522 307.585 266.522C307.719 266.522 307.851 266.491 307.97 266.43L312.79 263.64C312.99 263.52 312.98 263.32 312.79 263.2L311.3 262.34C311.181 262.279 311.049 262.248 310.915 262.248C310.781 262.248 310.649 262.279 310.53 262.34L305.71 265.13C305.51 265.25 305.52 265.45 305.71 265.57L307.2 266.43ZM318.92 273.2C319.039 273.261 319.171 273.292 319.305 273.292C319.439 273.292 319.571 273.261 319.69 273.2L324.51 270.41C324.72 270.29 324.7 270.09 324.51 269.97L318.93 266.75C318.811 266.689 318.679 266.658 318.545 266.658C318.411 266.658 318.279 266.689 318.16 266.75L313.34 269.54C313.13 269.66 313.15 269.86 313.34 269.98L318.92 273.2ZM336.55 291.09L341.37 288.3C341.58 288.18 341.56 287.98 341.37 287.86L335.79 284.64C335.671 284.579 335.539 284.548 335.405 284.548C335.271 284.548 335.139 284.579 335.02 284.64L330.2 287.43C330 287.55 330.01 287.75 330.2 287.87L335.78 291.09C335.9 291.149 336.032 291.179 336.166 291.177C336.3 291.175 336.431 291.142 336.55 291.08V291.09ZM293.1 274.57C293.219 274.631 293.351 274.662 293.485 274.662C293.619 274.662 293.751 274.631 293.87 274.57L298.69 271.78C298.9 271.66 298.88 271.46 298.69 271.34L297.2 270.48C297.081 270.419 296.949 270.388 296.815 270.388C296.681 270.388 296.549 270.419 296.43 270.48L291.61 273.27C291.41 273.39 291.42 273.59 291.61 273.71L293.1 274.57ZM235.7 310.07C235.819 310.131 235.951 310.162 236.085 310.162C236.219 310.162 236.351 310.131 236.47 310.07L241.29 307.28C241.5 307.16 241.48 306.96 241.29 306.84L235.71 303.62C235.591 303.559 235.459 303.528 235.325 303.528C235.191 303.528 235.059 303.559 234.94 303.62L230.12 306.41C229.92 306.53 229.93 306.73 230.12 306.85L235.7 310.07Z" fill="#455A64"/>
<path d="M264.37 353.9L317.17 323.41L349.67 342.17L296.86 372.66L264.37 353.9Z" fill="#263238"/>
<path d="M147 200.26L304.35 109.41C307.43 107.63 309.95 109.09 309.95 112.64V234.51C309.9 235.411 309.638 236.288 309.186 237.07C308.735 237.852 308.106 238.516 307.35 239.01L146 332.17C144.57 332.99 143.4 332.32 143.4 330.67V206.49C143.472 205.243 143.835 204.029 144.46 202.947C145.085 201.866 145.955 200.945 147 200.26Z" fill="#F5F5F5"/>
<path d="M310 115.56V112.64C310 109.09 307.48 107.64 304.41 109.41L147 200.26C145.954 200.946 145.083 201.868 144.458 202.952C143.833 204.036 143.47 205.251 143.4 206.5V211.72L310 115.56Z" fill="#8C503A"/>
<path d="M286.52 122.21C285.958 122.576 285.491 123.069 285.155 123.649C284.82 124.229 284.626 124.881 284.59 125.55C284.59 126.78 285.45 127.28 286.52 126.66C287.082 126.294 287.549 125.801 287.885 125.221C288.22 124.641 288.414 123.989 288.45 123.32C288.44 122.1 287.58 121.6 286.52 122.21Z" fill="white"/>
<path d="M294.16 117.8C293.598 118.166 293.131 118.659 292.795 119.239C292.46 119.819 292.266 120.471 292.23 121.14C292.23 122.37 293.09 122.87 294.16 122.25C294.722 121.884 295.189 121.391 295.525 120.811C295.86 120.231 296.054 119.579 296.09 118.91C296.09 117.68 295.23 117.18 294.16 117.8Z" fill="white"/>
<path d="M301.81 113.38C301.248 113.746 300.781 114.239 300.445 114.819C300.11 115.399 299.916 116.051 299.88 116.72C299.88 117.95 300.74 118.45 301.81 117.83C302.372 117.464 302.839 116.971 303.175 116.391C303.51 115.811 303.704 115.159 303.74 114.49C303.74 113.27 302.87 112.77 301.81 113.38Z" fill="white"/>
<path d="M182.257 271.387L176.134 267.852L161.139 293.824L167.262 297.359L182.257 271.387Z" fill="#37474F"/>
<path d="M182.269 271.379L179.212 269.614L164.217 295.586L167.274 297.351L182.269 271.379Z" fill="#263238"/>
<path d="M144.7 344.54C141.91 349.38 128.7 341.69 131.47 336.9L165.92 283.17C166.013 283.025 166.158 282.92 166.326 282.879C166.494 282.838 166.671 282.864 166.82 282.95L173.74 286.95C173.89 287.036 174 287.177 174.049 287.343C174.097 287.509 174.08 287.687 174 287.84L144.7 344.54Z" fill="#8C503A"/>
<path opacity="0.1" d="M144.7 344.54L174 287.84C174.08 287.687 174.097 287.509 174.049 287.343C174 287.177 173.89 287.036 173.74 286.95L170.59 285.13L137 344.85C140.06 346.36 143.44 346.73 144.7 344.54Z" fill="black"/>
<path d="M246 218C246 217.59 246 217.19 245.94 216.79C245.88 216.39 245.89 216 245.85 215.61C245.81 215.22 245.85 215.09 245.77 214.83C245.7 214.15 245.6 213.48 245.49 212.83C245.44 212.54 245.39 212.24 245.33 211.95C245.27 211.66 245.22 211.4 245.16 211.13C244.99 210.39 244.81 209.67 244.6 208.98C244.49 208.65 244.39 208.32 244.28 207.98C244.259 207.932 244.242 207.881 244.23 207.83C244.11 207.51 244 207.2 243.88 206.9C243.76 206.6 243.6 206.2 243.44 205.9C243.28 205.6 243.22 205.41 243.09 205.17C243.018 204.99 242.931 204.816 242.83 204.65C242.73 204.44 242.62 204.23 242.5 204.03C242.38 203.83 242.5 203.93 242.42 203.89C242.34 203.85 242.21 203.53 242.1 203.35C241.99 203.17 241.95 203.12 241.88 203.01C241.368 202.203 240.793 201.437 240.16 200.72L239.84 200.36L239.57 200.08L239.22 199.73C238.906 199.4 238.572 199.089 238.22 198.8C238.05 198.65 237.87 198.51 237.69 198.38L237.14 197.98C236.854 197.77 236.557 197.577 236.25 197.4L236.01 197.25L221.84 189.07L221.76 189.02C219.041 187.504 215.973 186.728 212.86 186.77C208.22 186.77 202.98 188.29 197.43 191.49C178.37 202.49 162.91 229.27 162.91 251.29C162.91 262.29 166.75 269.99 172.91 273.61H172.97L187 281.83H187.06L187.23 281.92C187.496 282.077 187.77 282.221 188.05 282.35C188.39 282.52 188.74 282.67 189.05 282.81C189.36 282.95 189.68 283.06 190 283.16L190.51 283.31C190.689 283.378 190.873 283.432 191.06 283.47C191.244 283.526 191.431 283.573 191.62 283.61C191.754 283.65 191.891 283.68 192.03 283.7C192.27 283.75 192.53 283.8 192.78 283.83C192.836 283.839 192.894 283.839 192.95 283.83C193.25 283.877 193.55 283.917 193.85 283.95C198.99 284.49 204.97 283.04 211.37 279.35C230.44 268.35 245.9 241.56 245.9 219.55C246 219.09 246 218.57 246 218ZM222.87 202.43C223.619 205.166 223.986 207.993 223.96 210.83C223.96 230.25 209.75 254.83 192.96 264.57C190.506 266.029 187.856 267.13 185.09 267.84C184.345 265.099 183.979 262.27 184 259.43C184 240.01 198.21 215.43 215 205.69C217.448 204.254 220.088 203.173 222.84 202.48L222.87 202.43Z" fill="#8C503A"/>
<path opacity="0.1" d="M186.57 281.55L172.81 273.61C166.6 269.98 162.76 262.26 162.76 251.3C162.76 241.48 165.84 230.72 170.93 220.84L185.1 229C180 238.88 176.93 249.64 176.93 259.46C176.93 270.22 180.59 277.83 186.57 281.55Z" fill="black"/>
<path opacity="0.4" d="M246 218C246 217.59 246 217.19 245.94 216.79C245.88 216.39 245.89 216 245.85 215.61C245.81 215.22 245.85 215.09 245.77 214.83C245.7 214.15 245.6 213.48 245.49 212.83C245.44 212.54 245.39 212.24 245.33 211.95C245.27 211.66 245.22 211.4 245.16 211.13C244.99 210.39 244.81 209.67 244.6 208.98C244.49 208.65 244.39 208.32 244.28 207.98C244.259 207.932 244.242 207.881 244.23 207.83C244.11 207.51 244 207.2 243.88 206.9C243.76 206.6 243.6 206.2 243.44 205.9C243.28 205.6 243.22 205.41 243.09 205.17C243.018 204.99 242.931 204.816 242.83 204.65C242.73 204.44 242.62 204.23 242.5 204.03C242.38 203.83 242.5 203.93 242.42 203.89C242.34 203.85 242.21 203.53 242.1 203.35C241.99 203.17 241.95 203.12 241.88 203.01C241.368 202.203 240.793 201.437 240.16 200.72L239.84 200.36L239.57 200.08L239.22 199.73C238.906 199.4 238.572 199.089 238.22 198.8C238.05 198.65 237.87 198.51 237.69 198.38L237.14 197.98C236.854 197.77 236.557 197.577 236.25 197.4C229.98 193.59 221.25 194.04 211.54 199.63C192.47 210.63 177.01 237.41 177.01 259.43C177.01 270.58 181.01 278.37 187.36 281.91C187.626 282.067 187.9 282.211 188.18 282.34C188.52 282.51 188.87 282.66 189.18 282.8C189.49 282.94 189.81 283.05 190.13 283.15L190.64 283.3C190.819 283.368 191.003 283.422 191.19 283.46C191.374 283.516 191.561 283.563 191.75 283.6C191.884 283.64 192.021 283.67 192.16 283.69C192.4 283.74 192.66 283.79 192.91 283.82C192.966 283.83 193.024 283.83 193.08 283.82C193.38 283.867 193.68 283.907 193.98 283.94C199.12 284.48 205.1 283.03 211.5 279.34C230.57 268.34 246.03 241.55 246.03 219.54C246 219.09 246 218.57 246 218ZM208 273.31C203.72 275.78 199.6 277.08 196.08 277.08C189.47 277.08 186.43 272.57 185.08 267.84C184.335 265.099 183.969 262.27 183.99 259.43C183.99 240.01 198.2 215.43 214.99 205.69C217.445 204.234 220.095 203.136 222.86 202.43C224.169 202.106 225.511 201.934 226.86 201.92C237.79 201.92 238.96 214.26 238.96 219.57C239 239 224.79 263.65 208 273.36V273.31Z" fill="white"/>
<path opacity="0.1" d="M239 219.62C239 239.04 224.8 263.62 208 273.36C203.72 275.83 199.6 277.13 196.08 277.13C189.47 277.13 186.43 272.62 185.08 267.89C187.846 267.18 190.496 266.079 192.95 264.62C209.77 254.91 223.95 230.3 223.95 210.88C223.976 208.043 223.609 205.216 222.86 202.48C224.169 202.156 225.511 201.984 226.86 201.97C237.82 202 239 214.31 239 219.62Z" fill="black"/>
<path opacity="0.7" d="M232.95 216.23C232.95 235.65 218.75 260.23 201.95 269.97C197.67 272.44 193.55 273.74 190.03 273.74C189.33 273.742 188.631 273.685 187.94 273.57C186.589 271.901 185.604 269.965 185.05 267.89C184.305 265.149 183.939 262.32 183.96 259.48C183.96 240.06 198.17 215.48 214.96 205.74C217.415 204.284 220.065 203.186 222.83 202.48C224.139 202.156 225.481 201.984 226.83 201.97C227.533 201.968 228.236 202.025 228.93 202.14C232.44 206.21 232.95 212.74 232.95 216.23Z" fill="white"/>
<path d="M257.17 196V218.14C257.17 219.8 258.33 220.47 259.77 219.64L404.87 135.87C405.627 135.377 406.257 134.713 406.708 133.931C407.16 133.149 407.421 132.272 407.47 131.37V109.2C407.47 107.54 406.31 106.87 404.87 107.7L259.77 191.47C259.009 191.966 258.377 192.635 257.925 193.422C257.473 194.21 257.214 195.093 257.17 196V196Z" fill="#E6E6E6"/>
<path d="M259.77 191.47L285.61 176.55V204.7L259.77 219.62C258.34 220.45 257.17 219.78 257.17 218.12V196C257.214 195.093 257.473 194.21 257.925 193.422C258.377 192.635 259.009 191.966 259.77 191.47V191.47Z" fill="#8C503A"/>
<path d="M277.06 188.84C275.43 187.9 273.36 188.05 271.25 189.27C269.247 190.556 267.581 192.303 266.392 194.365C265.202 196.426 264.522 198.742 264.41 201.12C264.339 202.662 264.825 204.178 265.78 205.39L263 210.15C262.801 210.495 262.747 210.904 262.85 211.289C262.954 211.673 263.205 212.001 263.55 212.2C263.895 212.399 264.304 212.453 264.689 212.35C265.073 212.246 265.401 211.995 265.6 211.65L268.35 206.89C268.647 206.948 268.948 206.978 269.25 206.98C270.474 206.956 271.671 206.611 272.72 205.98C274.723 204.694 276.389 202.947 277.578 200.885C278.768 198.824 279.448 196.508 279.56 194.13C279.6 191.65 278.7 189.79 277.06 188.84ZM271.25 203.34C270.897 203.712 270.43 203.955 269.922 204.028C269.415 204.102 268.898 204.002 268.454 203.746C268.01 203.489 267.665 203.091 267.476 202.614C267.287 202.138 267.263 201.611 267.41 201.12C267.525 199.271 268.068 197.473 268.994 195.868C269.921 194.263 271.206 192.895 272.75 191.87C273.351 191.49 274.04 191.273 274.75 191.24C275.043 191.231 275.333 191.3 275.59 191.44C275.962 191.765 276.248 192.177 276.422 192.64C276.597 193.102 276.654 193.6 276.59 194.09C276.476 195.939 275.935 197.736 275.01 199.34C274.086 200.945 272.802 202.314 271.26 203.34H271.25Z" fill="white"/>
</svg>
