<svg width="650" height="500" viewBox="0 0 650 500" fill="none" xmlns="http://www.w3.org/2000/svg">
<path d="M625.2 88H24.8C17.2 88 11 81.8 11 74.2V26.2C11 18.6 17.2 12.4 24.8 12.4H625.1C632.7 12.4 638.9 18.6 638.9 26.2V74.2C639 81.8 632.8 88 625.2 88Z" fill="#8C503A"/>
<g filter="url(#filter0_d_20_20)">
<path d="M625.2 405H24.8C17.2 405 11 398.8 11 391.2V165.2C11 157.6 17.2 151.4 24.8 151.4H625.1C632.7 151.4 638.9 157.6 638.9 165.2V391.2C639 398.8 632.8 405 625.2 405Z" fill="#D9CCC1"/>
</g>
<path d="M630 144H20C15.1 144 11 140 11 135V104.3C11 99.4 15 95.3 20 95.3H630C634.9 95.3 639 99.3 639 104.3V135C639 140 635 144 630 144Z" fill="#BF6415"/>
<path d="M289.614 119.721V118.13L302.421 111.607V114.153L292.597 118.886L292.676 118.727V119.124L292.597 118.965L302.421 123.698V126.244L289.614 119.721ZM309.741 117.693V126.88H307.395V111.607H309.662V113.994H309.861C310.219 113.218 310.762 112.595 311.491 112.124C312.221 111.647 313.162 111.408 314.315 111.408C315.349 111.408 316.254 111.621 317.03 112.045C317.805 112.462 318.409 113.099 318.839 113.954C319.27 114.802 319.486 115.876 319.486 117.175V126.88H317.139V117.335C317.139 116.135 316.828 115.2 316.204 114.531C315.581 113.854 314.726 113.516 313.639 113.516C312.89 113.516 312.221 113.679 311.631 114.004C311.047 114.328 310.587 114.802 310.248 115.425C309.91 116.049 309.741 116.804 309.741 117.693ZM328.268 127.238C327.3 127.238 326.422 127.056 325.633 126.691C324.844 126.32 324.218 125.786 323.754 125.09C323.29 124.388 323.058 123.539 323.058 122.545C323.058 121.67 323.23 120.96 323.575 120.417C323.92 119.867 324.38 119.436 324.957 119.124C325.534 118.813 326.17 118.581 326.866 118.428C327.569 118.269 328.275 118.143 328.984 118.05C329.912 117.931 330.664 117.842 331.241 117.782C331.824 117.716 332.249 117.606 332.514 117.454C332.786 117.301 332.921 117.036 332.921 116.658V116.579C332.921 115.598 332.653 114.835 332.116 114.292C331.586 113.748 330.78 113.477 329.7 113.477C328.58 113.477 327.701 113.722 327.065 114.212C326.429 114.703 325.981 115.227 325.723 115.783L323.495 114.988C323.893 114.06 324.423 113.337 325.086 112.82C325.756 112.297 326.485 111.932 327.274 111.727C328.069 111.514 328.851 111.408 329.62 111.408C330.111 111.408 330.674 111.468 331.311 111.587C331.954 111.7 332.573 111.935 333.17 112.293C333.773 112.651 334.274 113.192 334.671 113.914C335.069 114.637 335.268 115.604 335.268 116.818V126.88H332.921V124.812H332.802C332.643 125.143 332.378 125.498 332.007 125.876C331.635 126.254 331.142 126.575 330.525 126.84C329.909 127.105 329.156 127.238 328.268 127.238ZM328.626 125.13C329.554 125.13 330.336 124.948 330.973 124.583C331.616 124.219 332.099 123.748 332.424 123.171C332.756 122.594 332.921 121.988 332.921 121.352V119.204C332.822 119.323 332.603 119.433 332.265 119.532C331.934 119.625 331.549 119.708 331.112 119.781C330.681 119.847 330.26 119.907 329.849 119.96C329.445 120.006 329.117 120.046 328.865 120.079C328.255 120.158 327.685 120.288 327.154 120.467C326.631 120.639 326.206 120.901 325.882 121.252C325.563 121.597 325.404 122.068 325.404 122.664C325.404 123.479 325.706 124.096 326.309 124.514C326.919 124.925 327.691 125.13 328.626 125.13ZM351.493 111.607L345.845 126.88H343.459L337.811 111.607H340.356L344.572 123.778H344.731L348.947 111.607H351.493ZM368.073 119.721L355.266 126.244V123.698L365.09 118.965L365.011 119.124V118.727L365.09 118.886L355.266 114.153V111.607L368.073 118.13V119.721Z" fill="#F2F2F2"/>
<path d="M281.614 279.721V278.13L294.421 271.607V274.153L284.597 278.886L284.676 278.727V279.124L284.597 278.965L294.421 283.698V286.244L281.614 279.721ZM299.395 286.88V271.607H301.662V273.994H301.861C302.179 273.178 302.693 272.545 303.402 272.094C304.111 271.637 304.963 271.408 305.957 271.408C306.965 271.408 307.803 271.637 308.473 272.094C309.149 272.545 309.676 273.178 310.054 273.994H310.213C310.604 273.205 311.191 272.578 311.973 272.114C312.755 271.644 313.693 271.408 314.787 271.408C316.152 271.408 317.269 271.836 318.138 272.691C319.006 273.54 319.44 274.862 319.44 276.658V286.88H317.094V276.658C317.094 275.532 316.785 274.726 316.169 274.242C315.552 273.758 314.827 273.516 313.991 273.516C312.918 273.516 312.086 273.841 311.496 274.491C310.906 275.134 310.611 275.949 310.611 276.937V286.88H308.224V276.42C308.224 275.551 307.943 274.852 307.379 274.322C306.816 273.785 306.09 273.516 305.202 273.516C304.592 273.516 304.022 273.679 303.491 274.004C302.968 274.328 302.543 274.779 302.219 275.356C301.9 275.926 301.741 276.585 301.741 277.335V286.88H299.395ZM328.225 287.238C327.257 287.238 326.379 287.056 325.59 286.691C324.801 286.32 324.175 285.786 323.711 285.09C323.247 284.388 323.015 283.539 323.015 282.545C323.015 281.67 323.187 280.96 323.532 280.417C323.877 279.867 324.337 279.436 324.914 279.124C325.491 278.813 326.127 278.581 326.823 278.428C327.526 278.269 328.232 278.143 328.941 278.05C329.869 277.931 330.621 277.842 331.198 277.782C331.781 277.716 332.206 277.606 332.471 277.454C332.743 277.301 332.878 277.036 332.878 276.658V276.579C332.878 275.598 332.61 274.835 332.073 274.292C331.543 273.748 330.737 273.477 329.657 273.477C328.537 273.477 327.658 273.722 327.022 274.212C326.386 274.703 325.938 275.227 325.68 275.783L323.452 274.988C323.85 274.06 324.38 273.337 325.043 272.82C325.713 272.297 326.442 271.932 327.231 271.727C328.026 271.514 328.808 271.408 329.577 271.408C330.068 271.408 330.631 271.468 331.268 271.587C331.911 271.7 332.53 271.935 333.127 272.293C333.73 272.651 334.231 273.192 334.628 273.914C335.026 274.637 335.225 275.604 335.225 276.818V286.88H332.878V284.812H332.759C332.6 285.143 332.335 285.498 331.964 285.876C331.592 286.254 331.099 286.575 330.482 286.84C329.866 287.105 329.113 287.238 328.225 287.238ZM328.583 285.13C329.511 285.13 330.293 284.948 330.93 284.583C331.573 284.219 332.056 283.748 332.381 283.171C332.713 282.594 332.878 281.988 332.878 281.352V279.204C332.779 279.323 332.56 279.433 332.222 279.532C331.891 279.625 331.506 279.708 331.069 279.781C330.638 279.847 330.217 279.907 329.806 279.96C329.402 280.006 329.074 280.046 328.822 280.079C328.212 280.158 327.642 280.288 327.111 280.467C326.588 280.639 326.164 280.901 325.839 281.252C325.521 281.597 325.361 282.068 325.361 282.664C325.361 283.479 325.663 284.096 326.266 284.514C326.876 284.925 327.648 285.13 328.583 285.13ZM339.508 286.88V271.607H341.855V286.88H339.508ZM340.701 269.062C340.244 269.062 339.849 268.906 339.518 268.594C339.193 268.283 339.031 267.908 339.031 267.471C339.031 267.033 339.193 266.659 339.518 266.347C339.849 266.036 340.244 265.88 340.701 265.88C341.159 265.88 341.55 266.036 341.875 266.347C342.206 266.659 342.372 267.033 342.372 267.471C342.372 267.908 342.206 268.283 341.875 268.594C341.55 268.906 341.159 269.062 340.701 269.062ZM348.499 277.693V286.88H346.153V271.607H348.42V273.994H348.619C348.976 273.218 349.52 272.595 350.249 272.124C350.978 271.647 351.92 271.408 353.073 271.408C354.107 271.408 355.012 271.621 355.788 272.045C356.563 272.462 357.166 273.099 357.597 273.954C358.028 274.802 358.244 275.876 358.244 277.175V286.88H355.897V277.335C355.897 276.135 355.585 275.2 354.962 274.531C354.339 273.854 353.484 273.516 352.397 273.516C351.648 273.516 350.978 273.679 350.388 274.004C349.805 274.328 349.344 274.802 349.006 275.425C348.668 276.049 348.499 276.804 348.499 277.693ZM376.014 279.721L363.208 286.244V283.698L373.032 278.965L372.952 279.124V278.727L373.032 278.886L363.208 274.153V271.607L376.014 278.13V279.721Z" fill="#F2F2F2"/>
<path d="M625.2 488H24.8C17.2 488 11 481.8 11 474.2V426.2C11 418.6 17.2 412.4 24.8 412.4H625.1C632.7 412.4 638.9 418.6 638.9 426.2V474.2C639 481.8 632.8 488 625.2 488Z" fill="#8C503A"/>
<path d="M269.614 451.721V450.13L282.421 443.607V446.153L272.597 450.886L272.676 450.727V451.124L272.597 450.965L282.421 455.698V458.244L269.614 451.721ZM294.196 443.607V445.596H285.963V443.607H294.196ZM288.429 458.88V441.499C288.429 440.624 288.634 439.895 289.045 439.312C289.456 438.728 289.99 438.291 290.646 437.999C291.302 437.708 291.995 437.562 292.724 437.562C293.301 437.562 293.772 437.608 294.136 437.701C294.501 437.794 294.773 437.88 294.952 437.96L294.275 439.988C294.156 439.948 293.99 439.898 293.778 439.839C293.573 439.779 293.301 439.749 292.963 439.749C292.187 439.749 291.627 439.945 291.283 440.336C290.945 440.727 290.775 441.3 290.775 442.056V458.88H288.429ZM303.06 459.198C301.681 459.198 300.472 458.87 299.431 458.214C298.397 457.558 297.588 456.639 297.005 455.46C296.428 454.28 296.14 452.901 296.14 451.323C296.14 449.732 296.428 448.344 297.005 447.157C297.588 445.97 298.397 445.049 299.431 444.393C300.472 443.737 301.681 443.408 303.06 443.408C304.439 443.408 305.646 443.737 306.68 444.393C307.72 445.049 308.529 445.97 309.106 447.157C309.689 448.344 309.981 449.732 309.981 451.323C309.981 452.901 309.689 454.28 309.106 455.46C308.529 456.639 307.72 457.558 306.68 458.214C305.646 458.87 304.439 459.198 303.06 459.198ZM303.06 457.09C304.108 457.09 304.969 456.822 305.646 456.285C306.322 455.748 306.822 455.042 307.147 454.167C307.472 453.292 307.634 452.344 307.634 451.323C307.634 450.302 307.472 449.351 307.147 448.469C306.822 447.588 306.322 446.875 305.646 446.332C304.969 445.788 304.108 445.516 303.06 445.516C302.013 445.516 301.151 445.788 300.475 446.332C299.799 446.875 299.298 447.588 298.974 448.469C298.649 449.351 298.486 450.302 298.486 451.323C298.486 452.344 298.649 453.292 298.974 454.167C299.298 455.042 299.799 455.748 300.475 456.285C301.151 456.822 302.013 457.09 303.06 457.09ZM319.767 459.198C318.389 459.198 317.179 458.87 316.138 458.214C315.104 457.558 314.295 456.639 313.712 455.46C313.135 454.28 312.847 452.901 312.847 451.323C312.847 449.732 313.135 448.344 313.712 447.157C314.295 445.97 315.104 445.049 316.138 444.393C317.179 443.737 318.389 443.408 319.767 443.408C321.146 443.408 322.353 443.737 323.387 444.393C324.427 445.049 325.236 445.97 325.813 447.157C326.396 448.344 326.688 449.732 326.688 451.323C326.688 452.901 326.396 454.28 325.813 455.46C325.236 456.639 324.427 457.558 323.387 458.214C322.353 458.87 321.146 459.198 319.767 459.198ZM319.767 457.09C320.815 457.09 321.676 456.822 322.353 456.285C323.029 455.748 323.529 455.042 323.854 454.167C324.179 453.292 324.341 452.344 324.341 451.323C324.341 450.302 324.179 449.351 323.854 448.469C323.529 447.588 323.029 446.875 322.353 446.332C321.676 445.788 320.815 445.516 319.767 445.516C318.72 445.516 317.858 445.788 317.182 446.332C316.506 446.875 316.005 447.588 315.681 448.469C315.356 449.351 315.193 450.302 315.193 451.323C315.193 452.344 315.356 453.292 315.681 454.167C316.005 455.042 316.506 455.748 317.182 456.285C317.858 456.822 318.72 457.09 319.767 457.09ZM336.912 443.607V445.596H328.997V443.607H336.912ZM331.304 439.948H333.65V454.505C333.65 455.168 333.747 455.665 333.939 455.996C334.138 456.321 334.39 456.54 334.695 456.653C335.006 456.759 335.334 456.812 335.679 456.812C335.937 456.812 336.15 456.799 336.315 456.772C336.481 456.739 336.614 456.712 336.713 456.693L337.19 458.8C337.031 458.86 336.809 458.92 336.524 458.979C336.239 459.046 335.878 459.079 335.44 459.079C334.777 459.079 334.128 458.936 333.491 458.651C332.862 458.366 332.338 457.932 331.92 457.349C331.509 456.765 331.304 456.03 331.304 455.141V439.948ZM346.681 459.198C345.209 459.198 343.94 458.873 342.873 458.224C341.812 457.568 340.994 456.653 340.417 455.479C339.847 454.3 339.562 452.927 339.562 451.363C339.562 449.799 339.847 448.42 340.417 447.227C340.994 446.027 341.796 445.092 342.823 444.423C343.857 443.746 345.064 443.408 346.442 443.408C347.238 443.408 348.023 443.541 348.799 443.806C349.574 444.071 350.28 444.502 350.917 445.099C351.553 445.689 352.06 446.471 352.438 447.445C352.816 448.42 353.005 449.62 353.005 451.045V452.039H341.232V450.011H350.619C350.619 449.149 350.446 448.38 350.101 447.704C349.763 447.028 349.28 446.494 348.65 446.103C348.027 445.712 347.291 445.516 346.442 445.516C345.508 445.516 344.699 445.748 344.016 446.212C343.34 446.67 342.82 447.266 342.455 448.002C342.091 448.738 341.908 449.527 341.908 450.369V451.721C341.908 452.874 342.107 453.852 342.505 454.654C342.909 455.45 343.469 456.056 344.185 456.474C344.901 456.885 345.733 457.09 346.681 457.09C347.297 457.09 347.854 457.004 348.351 456.832C348.855 456.653 349.289 456.388 349.654 456.036C350.019 455.678 350.3 455.234 350.499 454.704L352.766 455.34C352.528 456.109 352.127 456.785 351.563 457.369C351 457.945 350.304 458.396 349.475 458.721C348.646 459.039 347.715 459.198 346.681 459.198ZM356.574 458.88V443.607H358.842V445.914H359.001C359.279 445.158 359.783 444.545 360.512 444.075C361.241 443.604 362.063 443.369 362.978 443.369C363.15 443.369 363.366 443.372 363.624 443.379C363.883 443.385 364.078 443.395 364.211 443.408V445.795C364.131 445.775 363.949 445.745 363.664 445.705C363.386 445.659 363.091 445.636 362.779 445.636C362.037 445.636 361.374 445.791 360.79 446.103C360.214 446.408 359.756 446.832 359.418 447.376C359.087 447.913 358.921 448.526 358.921 449.215V458.88H356.574ZM380.475 451.721L367.669 458.244V455.698L377.492 450.965L377.413 451.124V450.727L377.492 450.886L367.669 446.153V443.607L380.475 450.13V451.721Z" fill="#F2F2F2"/>
<path d="M266.614 51.721V50.1301L279.421 43.6074V46.1529L269.597 50.8858L269.677 50.7267V51.1244L269.597 50.9654L279.421 55.6983V58.2438L266.614 51.721ZM286.742 49.6926V58.8801H284.395V38.5165H286.742V45.9938H286.94C287.298 45.2049 287.835 44.5785 288.551 44.1145C289.274 43.6439 290.235 43.4085 291.435 43.4085C292.475 43.4085 293.387 43.6173 294.169 44.035C294.951 44.4459 295.558 45.079 295.989 45.9341C296.426 46.7826 296.645 47.8631 296.645 49.1756V58.8801H294.298V49.3347C294.298 48.1216 293.983 47.1836 293.354 46.5208C292.731 45.8512 291.866 45.5165 290.759 45.5165C289.99 45.5165 289.3 45.6789 288.69 46.0037C288.087 46.3285 287.61 46.8025 287.259 47.4256C286.914 48.0487 286.742 48.8044 286.742 49.6926ZM307.341 59.1983C305.87 59.1983 304.6 58.8735 303.533 58.2239C302.472 57.5676 301.654 56.6529 301.077 55.4796C300.507 54.2996 300.222 52.9275 300.222 51.3631C300.222 49.7987 300.507 48.4199 301.077 47.2267C301.654 46.0269 302.456 45.0922 303.483 44.4227C304.517 43.7466 305.724 43.4085 307.103 43.4085C307.898 43.4085 308.684 43.5411 309.459 43.8063C310.235 44.0714 310.941 44.5023 311.577 45.0989C312.213 45.6888 312.721 46.471 313.098 47.4455C313.476 48.4199 313.665 49.6197 313.665 51.0449V52.0392H301.892V50.0108H311.279C311.279 49.1491 311.106 48.3801 310.762 47.704C310.424 47.0279 309.94 46.4942 309.31 46.1031C308.687 45.712 307.951 45.5165 307.103 45.5165C306.168 45.5165 305.359 45.7485 304.677 46.2125C304 46.6699 303.48 47.2665 303.115 48.0023C302.751 48.7381 302.569 49.5269 302.569 50.3688V51.721C302.569 52.8744 302.767 53.8522 303.165 54.6543C303.57 55.4497 304.13 56.0563 304.846 56.4739C305.561 56.8849 306.393 57.0904 307.341 57.0904C307.958 57.0904 308.515 57.0042 309.012 56.8318C309.516 56.6529 309.95 56.3877 310.314 56.0364C310.679 55.6784 310.961 55.2343 311.159 54.704L313.427 55.3404C313.188 56.1093 312.787 56.7854 312.223 57.3688C311.66 57.9455 310.964 58.3962 310.135 58.721C309.307 59.0392 308.375 59.1983 307.341 59.1983ZM321.729 59.2381C320.761 59.2381 319.883 59.0558 319.094 58.6912C318.305 58.32 317.679 57.7864 317.215 57.0904C316.751 56.3877 316.519 55.5392 316.519 54.5449C316.519 53.6699 316.691 52.9606 317.036 52.4171C317.381 51.8669 317.841 51.436 318.418 51.1244C318.995 50.8129 319.631 50.5809 320.327 50.4284C321.03 50.2693 321.736 50.1434 322.445 50.0506C323.373 49.9313 324.125 49.8418 324.702 49.7821C325.285 49.7158 325.71 49.6065 325.975 49.454C326.247 49.3015 326.382 49.0364 326.382 48.6585V48.579C326.382 47.5979 326.114 46.8356 325.577 46.2921C325.047 45.7485 324.241 45.4767 323.161 45.4767C322.041 45.4767 321.162 45.722 320.526 46.2125C319.89 46.703 319.442 47.2267 319.184 47.7835L316.956 46.9881C317.354 46.0601 317.884 45.3375 318.547 44.8205C319.217 44.2968 319.946 43.9322 320.735 43.7267C321.53 43.5146 322.312 43.4085 323.081 43.4085C323.572 43.4085 324.135 43.4682 324.772 43.5875C325.415 43.7002 326.034 43.9355 326.631 44.2935C327.234 44.6514 327.735 45.1917 328.132 45.9142C328.53 46.6368 328.729 47.6046 328.729 48.8176V58.8801H326.382V56.8119H326.263C326.104 57.1434 325.839 57.498 325.468 57.8759C325.097 58.2537 324.603 58.5752 323.986 58.8404C323.37 59.1055 322.617 59.2381 321.729 59.2381ZM322.087 57.1301C323.015 57.1301 323.797 56.9478 324.434 56.5833C325.077 56.2187 325.561 55.748 325.885 55.1713C326.217 54.5946 326.382 53.9881 326.382 53.3517V51.204C326.283 51.3233 326.064 51.4327 325.726 51.5321C325.395 51.6249 325.01 51.7078 324.573 51.7807C324.142 51.847 323.721 51.9066 323.31 51.9597C322.906 52.0061 322.578 52.0458 322.326 52.079C321.716 52.1585 321.146 52.2878 320.615 52.4668C320.092 52.6391 319.668 52.901 319.343 53.2523C319.025 53.597 318.865 54.0676 318.865 54.6642C318.865 55.4796 319.167 56.096 319.77 56.5136C320.38 56.9246 321.152 57.1301 322.087 57.1301ZM338.779 59.1983C337.506 59.1983 336.383 58.8768 335.408 58.2338C334.434 57.5842 333.672 56.6694 333.121 55.4895C332.571 54.3029 332.296 52.901 332.296 51.2835C332.296 49.6794 332.571 48.2873 333.121 47.1074C333.672 45.9275 334.437 45.016 335.418 44.373C336.399 43.73 337.533 43.4085 338.819 43.4085C339.813 43.4085 340.599 43.5743 341.175 43.9057C341.759 44.2305 342.203 44.6017 342.508 45.0193C342.819 45.4303 343.061 45.7684 343.234 46.0335H343.433V38.5165H345.779V58.8801H343.512V56.5335H343.234C343.061 56.8119 342.816 57.1633 342.498 57.5875C342.18 58.0051 341.726 58.3797 341.136 58.7111C340.546 59.0359 339.76 59.1983 338.779 59.1983ZM339.097 57.0904C340.039 57.0904 340.834 56.8451 341.484 56.3546C342.133 55.8574 342.627 55.1713 342.965 54.2963C343.303 53.4147 343.472 52.3972 343.472 51.2438C343.472 50.1036 343.307 49.106 342.975 48.2509C342.644 47.3891 342.153 46.7196 341.504 46.2423C340.854 45.7584 340.052 45.5165 339.097 45.5165C338.103 45.5165 337.274 45.7717 336.612 46.2821C335.955 46.7859 335.461 47.472 335.13 48.3404C334.805 49.2021 334.643 50.1699 334.643 51.2438C334.643 52.3309 334.809 53.3186 335.14 54.2068C335.478 55.0885 335.975 55.7911 336.631 56.3148C337.294 56.8318 338.116 57.0904 339.097 57.0904ZM356.806 59.1983C355.335 59.1983 354.065 58.8735 352.998 58.2239C351.937 57.5676 351.119 56.6529 350.542 55.4796C349.972 54.2996 349.687 52.9275 349.687 51.3631C349.687 49.7987 349.972 48.4199 350.542 47.2267C351.119 46.0269 351.921 45.0922 352.948 44.4227C353.982 43.7466 355.189 43.4085 356.568 43.4085C357.363 43.4085 358.148 43.5411 358.924 43.8063C359.7 44.0714 360.406 44.5023 361.042 45.0989C361.678 45.6888 362.185 46.471 362.563 47.4455C362.941 48.4199 363.13 49.6197 363.13 51.0449V52.0392H351.357V50.0108H360.744C360.744 49.1491 360.571 48.3801 360.227 47.704C359.889 47.0279 359.405 46.4942 358.775 46.1031C358.152 45.712 357.416 45.5165 356.568 45.5165C355.633 45.5165 354.824 45.7485 354.141 46.2125C353.465 46.6699 352.945 47.2665 352.58 48.0023C352.216 48.7381 352.033 49.5269 352.033 50.3688V51.721C352.033 52.8744 352.232 53.8522 352.63 54.6543C353.034 55.4497 353.594 56.0563 354.31 56.4739C355.026 56.8849 355.858 57.0904 356.806 57.0904C357.423 57.0904 357.979 57.0042 358.477 56.8318C358.98 56.6529 359.415 56.3877 359.779 56.0364C360.144 55.6784 360.425 55.2343 360.624 54.704L362.891 55.3404C362.653 56.1093 362.252 56.7854 361.688 57.3688C361.125 57.9455 360.429 58.3962 359.6 58.721C358.772 59.0392 357.84 59.1983 356.806 59.1983ZM366.7 58.8801V43.6074H368.967V45.9142H369.126C369.404 45.1585 369.908 44.5454 370.637 44.0747C371.366 43.6041 372.188 43.3688 373.103 43.3688C373.275 43.3688 373.491 43.3721 373.749 43.3787C374.008 43.3853 374.203 43.3953 374.336 43.4085V45.7949C374.256 45.775 374.074 45.7452 373.789 45.7054C373.511 45.659 373.216 45.6358 372.904 45.6358C372.162 45.6358 371.499 45.7916 370.916 46.1031C370.339 46.4081 369.881 46.8323 369.543 47.3759C369.212 47.9128 369.046 48.526 369.046 49.2154V58.8801H366.7ZM390.601 51.721L377.794 58.2438V55.6983L387.618 50.9654L387.538 51.1244V50.7267L387.618 50.8858L377.794 46.1529V43.6074L390.601 50.1301V51.721Z" fill="#F2F2F2"/>
<defs>
<filter id="filter0_d_20_20" x="7" y="151.4" width="635.901" height="261.6" filterUnits="userSpaceOnUse" color-interpolation-filters="sRGB">
<feFlood flood-opacity="0" result="BackgroundImageFix"/>
<feColorMatrix in="SourceAlpha" type="matrix" values="0 0 0 0 0 0 0 0 0 0 0 0 0 0 0 0 0 0 127 0" result="hardAlpha"/>
<feOffset dy="4"/>
<feGaussianBlur stdDeviation="2"/>
<feComposite in2="hardAlpha" operator="out"/>
<feColorMatrix type="matrix" values="0 0 0 0 0 0 0 0 0 0 0 0 0 0 0 0 0 0 0.25 0"/>
<feBlend mode="normal" in2="BackgroundImageFix" result="effect1_dropShadow_20_20"/>
<feBlend mode="normal" in="SourceGraphic" in2="effect1_dropShadow_20_20" result="shape"/>
</filter>
</defs>
</svg>
