<svg width="650" height="500" viewBox="0 0 650 500" fill="none" xmlns="http://www.w3.org/2000/svg">
<path d="M625.2 88H24.8C17.2 88 11 81.8 11 74.2V26.2C11 18.6 17.2 12.4 24.8 12.4H625.1C632.7 12.4 638.9 18.6 638.9 26.2V74.2C639 81.8 632.8 88 625.2 88Z" fill="#8C503A"/>
<path d="M625.2 405H24.8C17.2 405 11 398.8 11 391.2V165.2C11 157.6 17.2 151.4 24.8 151.4H625.1C632.7 151.4 638.9 157.6 638.9 165.2V391.2C639 398.8 632.8 405 625.2 405Z" fill="#D9CCC1"/>
<path d="M611.2 391H35.8C28.2 391 22 384.8 22 377.2V208.8C22 201.2 28.2 195 35.8 195H611.1C618.7 195 624.9 201.2 624.9 208.8V377.1C625 384.8 618.8 391 611.2 391Z" fill="#905F4D"/>
<path d="M597.2 306H47.8C40.2 306 34 299.8 34 292.2V261.9C34 254.3 40.2 248.1 47.8 248.1H597.1C604.7 248.1 610.9 254.3 610.9 261.9V292.2C611 299.8 604.8 306 597.2 306Z" fill="#BF6415"/>
<path d="M596.2 374H46.8C39.2 374 33 367.8 33 360.2V329.9C33 322.3 39.2 316.1 46.8 316.1H596.1C603.7 316.1 609.9 322.3 609.9 329.9V360.2C610 367.8 603.8 374 596.2 374Z" fill="#BF6415"/>
<path d="M630 144H20C15.1 144 11 140 11 135V104.3C11 99.4 15 95.3 20 95.3H630C634.9 95.3 639 99.3 639 104.3V135C639 140 635 144 630 144Z" fill="#BF6415"/>
<path d="M289.614 119.721V118.13L302.421 111.607V114.153L292.597 118.886L292.676 118.727V119.124L292.597 118.965L302.421 123.698V126.244L289.614 119.721ZM309.741 117.693V126.88H307.395V111.607H309.662V113.994H309.861C310.219 113.218 310.762 112.595 311.491 112.124C312.221 111.647 313.162 111.408 314.315 111.408C315.349 111.408 316.254 111.621 317.03 112.045C317.805 112.462 318.409 113.099 318.839 113.954C319.27 114.802 319.486 115.876 319.486 117.175V126.88H317.139V117.335C317.139 116.135 316.828 115.2 316.204 114.531C315.581 113.854 314.726 113.516 313.639 113.516C312.89 113.516 312.221 113.679 311.631 114.004C311.047 114.328 310.587 114.802 310.248 115.425C309.91 116.049 309.741 116.804 309.741 117.693ZM328.268 127.238C327.3 127.238 326.422 127.056 325.633 126.691C324.844 126.32 324.218 125.786 323.754 125.09C323.29 124.388 323.058 123.539 323.058 122.545C323.058 121.67 323.23 120.96 323.575 120.417C323.92 119.867 324.38 119.436 324.957 119.124C325.534 118.813 326.17 118.581 326.866 118.428C327.569 118.269 328.275 118.143 328.984 118.05C329.912 117.931 330.664 117.842 331.241 117.782C331.824 117.716 332.249 117.606 332.514 117.454C332.786 117.301 332.921 117.036 332.921 116.658V116.579C332.921 115.598 332.653 114.835 332.116 114.292C331.586 113.748 330.78 113.477 329.7 113.477C328.58 113.477 327.701 113.722 327.065 114.212C326.429 114.703 325.981 115.227 325.723 115.783L323.495 114.988C323.893 114.06 324.423 113.337 325.086 112.82C325.756 112.297 326.485 111.932 327.274 111.727C328.069 111.514 328.851 111.408 329.62 111.408C330.111 111.408 330.674 111.468 331.311 111.587C331.954 111.7 332.573 111.935 333.17 112.293C333.773 112.651 334.274 113.192 334.671 113.914C335.069 114.637 335.268 115.604 335.268 116.818V126.88H332.921V124.812H332.802C332.643 125.143 332.378 125.498 332.007 125.876C331.635 126.254 331.142 126.575 330.525 126.84C329.909 127.105 329.156 127.238 328.268 127.238ZM328.626 125.13C329.554 125.13 330.336 124.948 330.973 124.583C331.616 124.219 332.099 123.748 332.424 123.171C332.756 122.594 332.921 121.988 332.921 121.352V119.204C332.822 119.323 332.603 119.433 332.265 119.532C331.934 119.625 331.549 119.708 331.112 119.781C330.681 119.847 330.26 119.907 329.849 119.96C329.445 120.006 329.117 120.046 328.865 120.079C328.255 120.158 327.685 120.288 327.154 120.467C326.631 120.639 326.206 120.901 325.882 121.252C325.563 121.597 325.404 122.068 325.404 122.664C325.404 123.479 325.706 124.096 326.309 124.514C326.919 124.925 327.691 125.13 328.626 125.13ZM351.493 111.607L345.845 126.88H343.459L337.811 111.607H340.356L344.572 123.778H344.731L348.947 111.607H351.493ZM368.073 119.721L355.266 126.244V123.698L365.09 118.965L365.011 119.124V118.727L365.09 118.886L355.266 114.153V111.607L368.073 118.13V119.721Z" fill="#F2F2F2"/>
<path d="M278.614 173.721V172.13L291.421 165.607V168.153L281.597 172.886L281.676 172.727V173.124L281.597 172.965L291.421 177.698V180.244L278.614 173.721ZM296.395 180.88V165.607H298.662V167.994H298.861C299.179 167.178 299.693 166.545 300.402 166.094C301.111 165.637 301.963 165.408 302.957 165.408C303.965 165.408 304.803 165.637 305.473 166.094C306.149 166.545 306.676 167.178 307.054 167.994H307.213C307.604 167.205 308.191 166.578 308.973 166.114C309.755 165.644 310.693 165.408 311.787 165.408C313.152 165.408 314.269 165.836 315.138 166.691C316.006 167.54 316.44 168.862 316.44 170.658V180.88H314.094V170.658C314.094 169.532 313.785 168.726 313.169 168.242C312.552 167.758 311.827 167.516 310.991 167.516C309.918 167.516 309.086 167.841 308.496 168.491C307.906 169.134 307.611 169.949 307.611 170.937V180.88H305.224V170.42C305.224 169.551 304.943 168.852 304.379 168.322C303.816 167.785 303.09 167.516 302.202 167.516C301.592 167.516 301.022 167.679 300.491 168.004C299.968 168.328 299.543 168.779 299.219 169.356C298.9 169.926 298.741 170.585 298.741 171.335V180.88H296.395ZM325.225 181.238C324.257 181.238 323.379 181.056 322.59 180.691C321.801 180.32 321.175 179.786 320.711 179.09C320.247 178.388 320.015 177.539 320.015 176.545C320.015 175.67 320.187 174.96 320.532 174.417C320.877 173.867 321.337 173.436 321.914 173.124C322.491 172.813 323.127 172.581 323.823 172.428C324.526 172.269 325.232 172.143 325.941 172.05C326.869 171.931 327.621 171.842 328.198 171.782C328.781 171.716 329.206 171.606 329.471 171.454C329.743 171.301 329.878 171.036 329.878 170.658V170.579C329.878 169.598 329.61 168.835 329.073 168.292C328.543 167.748 327.737 167.477 326.657 167.477C325.537 167.477 324.658 167.722 324.022 168.212C323.386 168.703 322.938 169.227 322.68 169.783L320.452 168.988C320.85 168.06 321.38 167.337 322.043 166.82C322.713 166.297 323.442 165.932 324.231 165.727C325.026 165.514 325.808 165.408 326.577 165.408C327.068 165.408 327.631 165.468 328.268 165.587C328.911 165.7 329.53 165.935 330.127 166.293C330.73 166.651 331.231 167.192 331.628 167.914C332.026 168.637 332.225 169.604 332.225 170.818V180.88H329.878V178.812H329.759C329.6 179.143 329.335 179.498 328.964 179.876C328.592 180.254 328.099 180.575 327.482 180.84C326.866 181.105 326.113 181.238 325.225 181.238ZM325.583 179.13C326.511 179.13 327.293 178.948 327.93 178.583C328.573 178.219 329.056 177.748 329.381 177.171C329.713 176.594 329.878 175.988 329.878 175.352V173.204C329.779 173.323 329.56 173.433 329.222 173.532C328.891 173.625 328.506 173.708 328.069 173.781C327.638 173.847 327.217 173.907 326.806 173.96C326.402 174.006 326.074 174.046 325.822 174.079C325.212 174.158 324.642 174.288 324.111 174.467C323.588 174.639 323.164 174.901 322.839 175.252C322.521 175.597 322.361 176.068 322.361 176.664C322.361 177.479 322.663 178.096 323.266 178.514C323.876 178.925 324.648 179.13 325.583 179.13ZM336.508 180.88V165.607H338.855V180.88H336.508ZM337.701 163.062C337.244 163.062 336.849 162.906 336.518 162.594C336.193 162.283 336.031 161.908 336.031 161.471C336.031 161.033 336.193 160.659 336.518 160.347C336.849 160.036 337.244 159.88 337.701 159.88C338.159 159.88 338.55 160.036 338.875 160.347C339.206 160.659 339.372 161.033 339.372 161.471C339.372 161.908 339.206 162.283 338.875 162.594C338.55 162.906 338.159 163.062 337.701 163.062ZM345.499 171.693V180.88H343.153V165.607H345.42V167.994H345.619C345.976 167.218 346.52 166.595 347.249 166.124C347.978 165.647 348.92 165.408 350.073 165.408C351.107 165.408 352.012 165.621 352.788 166.045C353.563 166.462 354.166 167.099 354.597 167.954C355.028 168.802 355.244 169.876 355.244 171.175V180.88H352.897V171.335C352.897 170.135 352.585 169.2 351.962 168.531C351.339 167.854 350.484 167.516 349.397 167.516C348.648 167.516 347.978 167.679 347.388 168.004C346.805 168.328 346.344 168.802 346.006 169.425C345.668 170.049 345.499 170.804 345.499 171.693ZM373.014 173.721L360.208 180.244V177.698L370.032 172.965L369.952 173.124V172.727L370.032 172.886L360.208 168.153V165.607L373.014 172.13V173.721Z" fill="#F2F2F2"/>
<path d="M40.6138 221.721V220.13L53.4207 213.607V216.153L43.5968 220.886L43.6763 220.727V221.124L43.5968 220.965L53.4207 225.698V228.244L40.6138 221.721ZM62.8891 229.238C61.9213 229.238 61.0429 229.056 60.2541 228.691C59.4653 228.32 58.8389 227.786 58.3749 227.09C57.9108 226.388 57.6788 225.539 57.6788 224.545C57.6788 223.67 57.8512 222.96 58.1959 222.417C58.5406 221.867 59.0013 221.436 59.578 221.124C60.1547 220.813 60.791 220.581 61.4871 220.428C62.1897 220.269 62.8957 220.143 63.605 220.05C64.533 219.931 65.2854 219.842 65.8621 219.782C66.4454 219.716 66.8696 219.606 67.1348 219.454C67.4066 219.301 67.5425 219.036 67.5425 218.658V218.579C67.5425 217.598 67.274 216.835 66.7371 216.292C66.2068 215.748 65.4014 215.477 64.3209 215.477C63.2006 215.477 62.3223 215.722 61.6859 216.212C61.0496 216.703 60.6021 217.227 60.3436 217.783L58.1163 216.988C58.5141 216.06 59.0444 215.337 59.7072 214.82C60.3767 214.297 61.1059 213.932 61.8947 213.727C62.6902 213.514 63.4724 213.408 64.2413 213.408C64.7319 213.408 65.2953 213.468 65.9317 213.587C66.5747 213.7 67.1945 213.935 67.791 214.293C68.3943 214.651 68.8947 215.192 69.2925 215.914C69.6902 216.637 69.8891 217.604 69.8891 218.818V228.88H67.5425V226.812H67.4231C67.2641 227.143 66.9989 227.498 66.6277 227.876C66.2565 228.254 65.7626 228.575 65.1462 228.84C64.5297 229.105 63.7773 229.238 62.8891 229.238ZM63.247 227.13C64.175 227.13 64.9572 226.948 65.5936 226.583C66.2366 226.219 66.7205 225.748 67.0453 225.171C67.3767 224.594 67.5425 223.988 67.5425 223.352V221.204C67.443 221.323 67.2243 221.433 66.8862 221.532C66.5548 221.625 66.1703 221.708 65.7328 221.781C65.3019 221.847 64.881 221.907 64.47 221.96C64.0657 222.006 63.7375 222.046 63.4856 222.079C62.8758 222.158 62.3057 222.288 61.7754 222.467C61.2517 222.639 60.8275 222.901 60.5027 223.252C60.1845 223.597 60.0254 224.068 60.0254 224.664C60.0254 225.479 60.327 226.096 60.9302 226.514C61.5401 226.925 62.3124 227.13 63.247 227.13ZM74.1721 228.88V213.607H76.4391V215.914H76.5982C76.8766 215.158 77.3804 214.545 78.1096 214.075C78.8387 213.604 79.6607 213.369 80.5755 213.369C80.7478 213.369 80.9633 213.372 81.2218 213.379C81.4803 213.385 81.6759 213.395 81.8084 213.408V215.795C81.7289 215.775 81.5466 215.745 81.2616 215.705C80.9832 215.659 80.6882 215.636 80.3766 215.636C79.6342 215.636 78.9713 215.791 78.388 216.103C77.8113 216.408 77.3539 216.832 77.0158 217.376C76.6844 217.913 76.5187 218.526 76.5187 219.215V228.88H74.1721ZM92.1891 213.607V215.596H84.2744V213.607H92.1891ZM86.5812 209.948H88.9278V224.505C88.9278 225.168 89.0239 225.665 89.2161 225.996C89.415 226.321 89.6669 226.54 89.9718 226.653C90.2833 226.759 90.6115 226.812 90.9562 226.812C91.2147 226.812 91.4268 226.799 91.5925 226.772C91.7583 226.739 91.8908 226.712 91.9903 226.693L92.4675 228.8C92.3084 228.86 92.0864 228.92 91.8013 228.979C91.5163 229.046 91.155 229.079 90.7175 229.079C90.0547 229.079 89.405 228.936 88.7687 228.651C88.1389 228.366 87.6153 227.932 87.1976 227.349C86.7867 226.765 86.5812 226.03 86.5812 225.141V209.948ZM95.719 228.88V213.607H98.0655V228.88H95.719ZM96.9121 211.062C96.4548 211.062 96.0603 210.906 95.7289 210.594C95.4041 210.283 95.2417 209.908 95.2417 209.471C95.2417 209.033 95.4041 208.659 95.7289 208.347C96.0603 208.036 96.4548 207.88 96.9121 207.88C97.3695 207.88 97.7606 208.036 98.0854 208.347C98.4169 208.659 98.5826 209.033 98.5826 209.471C98.5826 209.908 98.4169 210.283 98.0854 210.594C97.7606 210.906 97.3695 211.062 96.9121 211.062ZM108.568 229.198C107.136 229.198 105.903 228.86 104.869 228.184C103.835 227.508 103.04 226.577 102.483 225.39C101.926 224.203 101.648 222.848 101.648 221.323C101.648 219.772 101.933 218.403 102.503 217.217C103.079 216.023 103.881 215.092 104.909 214.423C105.943 213.746 107.149 213.408 108.528 213.408C109.602 213.408 110.57 213.607 111.432 214.005C112.293 214.403 112.999 214.96 113.55 215.675C114.1 216.391 114.441 217.227 114.574 218.181H112.227C112.048 217.485 111.65 216.869 111.034 216.332C110.424 215.788 109.602 215.516 108.568 215.516C107.653 215.516 106.851 215.755 106.162 216.232C105.479 216.703 104.945 217.369 104.561 218.231C104.183 219.086 103.994 220.09 103.994 221.244C103.994 222.424 104.18 223.451 104.551 224.326C104.929 225.201 105.459 225.88 106.142 226.364C106.831 226.848 107.64 227.09 108.568 227.09C109.178 227.09 109.731 226.984 110.229 226.772C110.726 226.56 111.147 226.255 111.491 225.857C111.836 225.46 112.081 224.982 112.227 224.425H114.574C114.441 225.327 114.113 226.139 113.589 226.862C113.072 227.577 112.386 228.148 111.531 228.572C110.683 228.989 109.695 229.198 108.568 229.198ZM120.351 208.516V228.88H118.004V208.516H120.351ZM131.052 229.198C129.58 229.198 128.311 228.873 127.244 228.224C126.183 227.568 125.365 226.653 124.788 225.479C124.218 224.3 123.933 222.927 123.933 221.363C123.933 219.799 124.218 218.42 124.788 217.227C125.365 216.027 126.167 215.092 127.194 214.423C128.228 213.746 129.435 213.408 130.813 213.408C131.609 213.408 132.394 213.541 133.17 213.806C133.946 214.071 134.651 214.502 135.288 215.099C135.924 215.689 136.431 216.471 136.809 217.445C137.187 218.42 137.376 219.62 137.376 221.045V222.039H125.603V220.011H134.99C134.99 219.149 134.817 218.38 134.473 217.704C134.134 217.028 133.651 216.494 133.021 216.103C132.398 215.712 131.662 215.516 130.813 215.516C129.879 215.516 129.07 215.748 128.387 216.212C127.711 216.67 127.191 217.266 126.826 218.002C126.462 218.738 126.279 219.527 126.279 220.369V221.721C126.279 222.874 126.478 223.852 126.876 224.654C127.28 225.45 127.84 226.056 128.556 226.474C129.272 226.885 130.104 227.09 131.052 227.09C131.669 227.09 132.225 227.004 132.723 226.832C133.226 226.653 133.66 226.388 134.025 226.036C134.39 225.678 134.671 225.234 134.87 224.704L137.137 225.34C136.899 226.109 136.498 226.785 135.934 227.369C135.371 227.945 134.675 228.396 133.846 228.721C133.017 229.039 132.086 229.198 131.052 229.198ZM154.428 221.721L141.622 228.244V225.698L151.446 220.965L151.366 221.124V220.727L151.446 220.886L141.622 216.153V213.607L154.428 220.13V221.721Z" fill="#F2F2F2"/>
<path d="M79.6138 279.721V278.13L92.4207 271.607V274.153L82.5968 278.886L82.6763 278.727V279.124L82.5968 278.965L92.4207 283.698V286.244L79.6138 279.721ZM108.213 275.028L106.105 275.624C105.972 275.273 105.777 274.932 105.518 274.6C105.266 274.262 104.922 273.984 104.484 273.765C104.047 273.546 103.487 273.437 102.804 273.437C101.869 273.437 101.09 273.652 100.467 274.083C99.8507 274.507 99.5425 275.048 99.5425 275.704C99.5425 276.287 99.7546 276.748 100.179 277.086C100.603 277.424 101.266 277.706 102.167 277.931L104.435 278.488C105.8 278.819 106.818 279.327 107.487 280.009C108.157 280.685 108.491 281.557 108.491 282.624C108.491 283.499 108.239 284.282 107.736 284.971C107.238 285.66 106.542 286.204 105.648 286.602C104.753 286.999 103.712 287.198 102.525 287.198C100.968 287.198 99.6784 286.86 98.6575 286.184C97.6367 285.508 96.9904 284.52 96.7186 283.221L98.9459 282.664C99.158 283.486 99.559 284.103 100.149 284.514C100.746 284.925 101.524 285.13 102.486 285.13C103.579 285.13 104.448 284.898 105.091 284.434C105.74 283.963 106.065 283.4 106.065 282.744C106.065 282.213 105.88 281.769 105.508 281.411C105.137 281.047 104.567 280.775 103.798 280.596L101.253 279.999C99.854 279.668 98.8266 279.154 98.1703 278.458C97.5207 277.755 97.1959 276.877 97.1959 275.823C97.1959 274.961 97.4378 274.199 97.9217 273.536C98.4123 272.873 99.0784 272.353 99.9203 271.975C100.769 271.597 101.73 271.408 102.804 271.408C104.315 271.408 105.502 271.74 106.363 272.403C107.232 273.066 107.848 273.941 108.213 275.028ZM118.427 287.198C116.955 287.198 115.686 286.873 114.619 286.224C113.558 285.568 112.74 284.653 112.163 283.479C111.593 282.3 111.308 280.927 111.308 279.363C111.308 277.799 111.593 276.42 112.163 275.227C112.74 274.027 113.542 273.092 114.569 272.423C115.603 271.746 116.81 271.408 118.188 271.408C118.984 271.408 119.769 271.541 120.545 271.806C121.321 272.071 122.026 272.502 122.663 273.099C123.299 273.689 123.806 274.471 124.184 275.445C124.562 276.42 124.751 277.62 124.751 279.045V280.039H112.978V278.011H122.365C122.365 277.149 122.192 276.38 121.848 275.704C121.509 275.028 121.026 274.494 120.396 274.103C119.773 273.712 119.037 273.516 118.188 273.516C117.254 273.516 116.445 273.748 115.762 274.212C115.086 274.67 114.566 275.266 114.201 276.002C113.837 276.738 113.654 277.527 113.654 278.369V279.721C113.654 280.874 113.853 281.852 114.251 282.654C114.655 283.45 115.215 284.056 115.931 284.474C116.647 284.885 117.479 285.09 118.427 285.09C119.044 285.09 119.6 285.004 120.098 284.832C120.601 284.653 121.035 284.388 121.4 284.036C121.765 283.678 122.046 283.234 122.245 282.704L124.512 283.34C124.274 284.109 123.873 284.785 123.309 285.369C122.746 285.945 122.05 286.396 121.221 286.721C120.392 287.039 119.461 287.198 118.427 287.198ZM134.525 287.198C133.093 287.198 131.86 286.86 130.826 286.184C129.792 285.508 128.997 284.577 128.44 283.39C127.883 282.203 127.605 280.848 127.605 279.323C127.605 277.772 127.89 276.403 128.46 275.217C129.036 274.023 129.839 273.092 130.866 272.423C131.9 271.746 133.107 271.408 134.485 271.408C135.559 271.408 136.527 271.607 137.389 272.005C138.25 272.403 138.956 272.96 139.507 273.675C140.057 274.391 140.398 275.227 140.531 276.181H138.184C138.005 275.485 137.607 274.869 136.991 274.332C136.381 273.788 135.559 273.516 134.525 273.516C133.61 273.516 132.808 273.755 132.119 274.232C131.436 274.703 130.902 275.369 130.518 276.231C130.14 277.086 129.951 278.09 129.951 279.244C129.951 280.424 130.137 281.451 130.508 282.326C130.886 283.201 131.416 283.88 132.099 284.364C132.788 284.848 133.597 285.09 134.525 285.09C135.135 285.09 135.688 284.984 136.186 284.772C136.683 284.56 137.104 284.255 137.448 283.857C137.793 283.46 138.038 282.982 138.184 282.425H140.531C140.398 283.327 140.07 284.139 139.546 284.862C139.029 285.577 138.343 286.148 137.488 286.572C136.64 286.989 135.652 287.198 134.525 287.198ZM150.603 271.607V273.596H142.688V271.607H150.603ZM144.995 267.948H147.342V282.505C147.342 283.168 147.438 283.665 147.63 283.996C147.829 284.321 148.081 284.54 148.386 284.653C148.697 284.759 149.026 284.812 149.37 284.812C149.629 284.812 149.841 284.799 150.007 284.772C150.172 284.739 150.305 284.712 150.404 284.693L150.882 286.8C150.723 286.86 150.5 286.92 150.215 286.979C149.93 287.046 149.569 287.079 149.132 287.079C148.469 287.079 147.819 286.936 147.183 286.651C146.553 286.366 146.029 285.932 145.612 285.349C145.201 284.765 144.995 284.03 144.995 283.141V267.948ZM154.133 286.88V271.607H156.48V286.88H154.133ZM155.326 269.062C154.869 269.062 154.474 268.906 154.143 268.594C153.818 268.283 153.656 267.908 153.656 267.471C153.656 267.033 153.818 266.659 154.143 266.347C154.474 266.036 154.869 265.88 155.326 265.88C155.784 265.88 156.175 266.036 156.499 266.347C156.831 266.659 156.997 267.033 156.997 267.471C156.997 267.908 156.831 268.283 156.499 268.594C156.175 268.906 155.784 269.062 155.326 269.062ZM166.982 287.198C165.603 287.198 164.394 286.87 163.353 286.214C162.319 285.558 161.51 284.639 160.927 283.46C160.35 282.28 160.062 280.901 160.062 279.323C160.062 277.732 160.35 276.344 160.927 275.157C161.51 273.97 162.319 273.049 163.353 272.393C164.394 271.737 165.603 271.408 166.982 271.408C168.361 271.408 169.567 271.737 170.601 272.393C171.642 273.049 172.451 273.97 173.028 275.157C173.611 276.344 173.903 277.732 173.903 279.323C173.903 280.901 173.611 282.28 173.028 283.46C172.451 284.639 171.642 285.558 170.601 286.214C169.567 286.87 168.361 287.198 166.982 287.198ZM166.982 285.09C168.029 285.09 168.891 284.822 169.567 284.285C170.243 283.748 170.744 283.042 171.069 282.167C171.394 281.292 171.556 280.344 171.556 279.323C171.556 278.302 171.394 277.351 171.069 276.469C170.744 275.588 170.243 274.875 169.567 274.332C168.891 273.788 168.029 273.516 166.982 273.516C165.935 273.516 165.073 273.788 164.397 274.332C163.721 274.875 163.22 275.588 162.895 276.469C162.571 277.351 162.408 278.302 162.408 279.323C162.408 280.344 162.571 281.292 162.895 282.167C163.22 283.042 163.721 283.748 164.397 284.285C165.073 284.822 165.935 285.09 166.982 285.09ZM179.831 277.693V286.88H177.485V271.607H179.752V273.994H179.95C180.308 273.218 180.852 272.595 181.581 272.124C182.31 271.647 183.252 271.408 184.405 271.408C185.439 271.408 186.344 271.621 187.12 272.045C187.895 272.462 188.498 273.099 188.929 273.954C189.36 274.802 189.575 275.876 189.575 277.175V286.88H187.229V277.335C187.229 276.135 186.917 275.2 186.294 274.531C185.671 273.854 184.816 273.516 183.729 273.516C182.98 273.516 182.31 273.679 181.72 274.004C181.137 274.328 180.676 274.802 180.338 275.425C180 276.049 179.831 276.804 179.831 277.693ZM207.346 279.721L194.54 286.244V283.698L204.363 278.965L204.284 279.124V278.727L204.363 278.886L194.54 274.153V271.607L207.346 278.13V279.721Z" fill="#F2F2F2"/>
<path d="M79.6138 345.721V344.13L92.4207 337.607V340.153L82.5968 344.886L82.6763 344.727V345.124L82.5968 344.965L92.4207 349.698V352.244L79.6138 345.721ZM108.213 341.028L106.105 341.624C105.972 341.273 105.777 340.932 105.518 340.6C105.266 340.262 104.922 339.984 104.484 339.765C104.047 339.546 103.487 339.437 102.804 339.437C101.869 339.437 101.09 339.652 100.467 340.083C99.8507 340.507 99.5425 341.048 99.5425 341.704C99.5425 342.287 99.7546 342.748 100.179 343.086C100.603 343.424 101.266 343.706 102.167 343.931L104.435 344.488C105.8 344.819 106.818 345.327 107.487 346.009C108.157 346.685 108.491 347.557 108.491 348.624C108.491 349.499 108.239 350.282 107.736 350.971C107.238 351.66 106.542 352.204 105.648 352.602C104.753 352.999 103.712 353.198 102.525 353.198C100.968 353.198 99.6784 352.86 98.6575 352.184C97.6367 351.508 96.9904 350.52 96.7186 349.221L98.9459 348.664C99.158 349.486 99.559 350.103 100.149 350.514C100.746 350.925 101.524 351.13 102.486 351.13C103.579 351.13 104.448 350.898 105.091 350.434C105.74 349.963 106.065 349.4 106.065 348.744C106.065 348.213 105.88 347.769 105.508 347.411C105.137 347.047 104.567 346.775 103.798 346.596L101.253 345.999C99.854 345.668 98.8266 345.154 98.1703 344.458C97.5207 343.755 97.1959 342.877 97.1959 341.823C97.1959 340.961 97.4378 340.199 97.9217 339.536C98.4123 338.873 99.0784 338.353 99.9203 337.975C100.769 337.597 101.73 337.408 102.804 337.408C104.315 337.408 105.502 337.74 106.363 338.403C107.232 339.066 107.848 339.941 108.213 341.028ZM118.427 353.198C116.955 353.198 115.686 352.873 114.619 352.224C113.558 351.568 112.74 350.653 112.163 349.479C111.593 348.3 111.308 346.927 111.308 345.363C111.308 343.799 111.593 342.42 112.163 341.227C112.74 340.027 113.542 339.092 114.569 338.423C115.603 337.746 116.81 337.408 118.188 337.408C118.984 337.408 119.769 337.541 120.545 337.806C121.321 338.071 122.026 338.502 122.663 339.099C123.299 339.689 123.806 340.471 124.184 341.445C124.562 342.42 124.751 343.62 124.751 345.045V346.039H112.978V344.011H122.365C122.365 343.149 122.192 342.38 121.848 341.704C121.509 341.028 121.026 340.494 120.396 340.103C119.773 339.712 119.037 339.516 118.188 339.516C117.254 339.516 116.445 339.748 115.762 340.212C115.086 340.67 114.566 341.266 114.201 342.002C113.837 342.738 113.654 343.527 113.654 344.369V345.721C113.654 346.874 113.853 347.852 114.251 348.654C114.655 349.45 115.215 350.056 115.931 350.474C116.647 350.885 117.479 351.09 118.427 351.09C119.044 351.09 119.6 351.004 120.098 350.832C120.601 350.653 121.035 350.388 121.4 350.036C121.765 349.678 122.046 349.234 122.245 348.704L124.512 349.34C124.274 350.109 123.873 350.785 123.309 351.369C122.746 351.945 122.05 352.396 121.221 352.721C120.392 353.039 119.461 353.198 118.427 353.198ZM134.525 353.198C133.093 353.198 131.86 352.86 130.826 352.184C129.792 351.508 128.997 350.577 128.44 349.39C127.883 348.203 127.605 346.848 127.605 345.323C127.605 343.772 127.89 342.403 128.46 341.217C129.036 340.023 129.839 339.092 130.866 338.423C131.9 337.746 133.107 337.408 134.485 337.408C135.559 337.408 136.527 337.607 137.389 338.005C138.25 338.403 138.956 338.96 139.507 339.675C140.057 340.391 140.398 341.227 140.531 342.181H138.184C138.005 341.485 137.607 340.869 136.991 340.332C136.381 339.788 135.559 339.516 134.525 339.516C133.61 339.516 132.808 339.755 132.119 340.232C131.436 340.703 130.902 341.369 130.518 342.231C130.14 343.086 129.951 344.09 129.951 345.244C129.951 346.424 130.137 347.451 130.508 348.326C130.886 349.201 131.416 349.88 132.099 350.364C132.788 350.848 133.597 351.09 134.525 351.09C135.135 351.09 135.688 350.984 136.186 350.772C136.683 350.56 137.104 350.255 137.448 349.857C137.793 349.46 138.038 348.982 138.184 348.425H140.531C140.398 349.327 140.07 350.139 139.546 350.862C139.029 351.577 138.343 352.148 137.488 352.572C136.64 352.989 135.652 353.198 134.525 353.198ZM150.603 337.607V339.596H142.688V337.607H150.603ZM144.995 333.948H147.342V348.505C147.342 349.168 147.438 349.665 147.63 349.996C147.829 350.321 148.081 350.54 148.386 350.653C148.697 350.759 149.026 350.812 149.37 350.812C149.629 350.812 149.841 350.799 150.007 350.772C150.172 350.739 150.305 350.712 150.404 350.693L150.882 352.8C150.723 352.86 150.5 352.92 150.215 352.979C149.93 353.046 149.569 353.079 149.132 353.079C148.469 353.079 147.819 352.936 147.183 352.651C146.553 352.366 146.029 351.932 145.612 351.349C145.201 350.765 144.995 350.03 144.995 349.141V333.948ZM154.133 352.88V337.607H156.48V352.88H154.133ZM155.326 335.062C154.869 335.062 154.474 334.906 154.143 334.594C153.818 334.283 153.656 333.908 153.656 333.471C153.656 333.033 153.818 332.659 154.143 332.347C154.474 332.036 154.869 331.88 155.326 331.88C155.784 331.88 156.175 332.036 156.499 332.347C156.831 332.659 156.997 333.033 156.997 333.471C156.997 333.908 156.831 334.283 156.499 334.594C156.175 334.906 155.784 335.062 155.326 335.062ZM166.982 353.198C165.603 353.198 164.394 352.87 163.353 352.214C162.319 351.558 161.51 350.639 160.927 349.46C160.35 348.28 160.062 346.901 160.062 345.323C160.062 343.732 160.35 342.344 160.927 341.157C161.51 339.97 162.319 339.049 163.353 338.393C164.394 337.737 165.603 337.408 166.982 337.408C168.361 337.408 169.567 337.737 170.601 338.393C171.642 339.049 172.451 339.97 173.028 341.157C173.611 342.344 173.903 343.732 173.903 345.323C173.903 346.901 173.611 348.28 173.028 349.46C172.451 350.639 171.642 351.558 170.601 352.214C169.567 352.87 168.361 353.198 166.982 353.198ZM166.982 351.09C168.029 351.09 168.891 350.822 169.567 350.285C170.243 349.748 170.744 349.042 171.069 348.167C171.394 347.292 171.556 346.344 171.556 345.323C171.556 344.302 171.394 343.351 171.069 342.469C170.744 341.588 170.243 340.875 169.567 340.332C168.891 339.788 168.029 339.516 166.982 339.516C165.935 339.516 165.073 339.788 164.397 340.332C163.721 340.875 163.22 341.588 162.895 342.469C162.571 343.351 162.408 344.302 162.408 345.323C162.408 346.344 162.571 347.292 162.895 348.167C163.22 349.042 163.721 349.748 164.397 350.285C165.073 350.822 165.935 351.09 166.982 351.09ZM179.831 343.693V352.88H177.485V337.607H179.752V339.994H179.95C180.308 339.218 180.852 338.595 181.581 338.124C182.31 337.647 183.252 337.408 184.405 337.408C185.439 337.408 186.344 337.621 187.12 338.045C187.895 338.462 188.498 339.099 188.929 339.954C189.36 340.802 189.575 341.876 189.575 343.175V352.88H187.229V343.335C187.229 342.135 186.917 341.2 186.294 340.531C185.671 339.854 184.816 339.516 183.729 339.516C182.98 339.516 182.31 339.679 181.72 340.004C181.137 340.328 180.676 340.802 180.338 341.425C180 342.049 179.831 342.804 179.831 343.693ZM207.346 345.721L194.54 352.244V349.698L204.363 344.965L204.284 345.124V344.727L204.363 344.886L194.54 340.153V337.607L207.346 344.13V345.721Z" fill="#F2F2F2"/>
<path d="M625.2 488H24.8C17.2 488 11 481.8 11 474.2V426.2C11 418.6 17.2 412.4 24.8 412.4H625.1C632.7 412.4 638.9 418.6 638.9 426.2V474.2C639 481.8 632.8 488 625.2 488Z" fill="#8C503A"/>
<path d="M269.614 451.721V450.13L282.421 443.607V446.153L272.597 450.886L272.676 450.727V451.124L272.597 450.965L282.421 455.698V458.244L269.614 451.721ZM294.196 443.607V445.596H285.963V443.607H294.196ZM288.429 458.88V441.499C288.429 440.624 288.634 439.895 289.045 439.312C289.456 438.728 289.99 438.291 290.646 437.999C291.302 437.708 291.995 437.562 292.724 437.562C293.301 437.562 293.772 437.608 294.136 437.701C294.501 437.794 294.773 437.88 294.952 437.96L294.275 439.988C294.156 439.948 293.99 439.898 293.778 439.839C293.573 439.779 293.301 439.749 292.963 439.749C292.187 439.749 291.627 439.945 291.283 440.336C290.945 440.727 290.775 441.3 290.775 442.056V458.88H288.429ZM303.06 459.198C301.681 459.198 300.472 458.87 299.431 458.214C298.397 457.558 297.588 456.639 297.005 455.46C296.428 454.28 296.14 452.901 296.14 451.323C296.14 449.732 296.428 448.344 297.005 447.157C297.588 445.97 298.397 445.049 299.431 444.393C300.472 443.737 301.681 443.408 303.06 443.408C304.439 443.408 305.646 443.737 306.68 444.393C307.72 445.049 308.529 445.97 309.106 447.157C309.689 448.344 309.981 449.732 309.981 451.323C309.981 452.901 309.689 454.28 309.106 455.46C308.529 456.639 307.72 457.558 306.68 458.214C305.646 458.87 304.439 459.198 303.06 459.198ZM303.06 457.09C304.108 457.09 304.969 456.822 305.646 456.285C306.322 455.748 306.822 455.042 307.147 454.167C307.472 453.292 307.634 452.344 307.634 451.323C307.634 450.302 307.472 449.351 307.147 448.469C306.822 447.588 306.322 446.875 305.646 446.332C304.969 445.788 304.108 445.516 303.06 445.516C302.013 445.516 301.151 445.788 300.475 446.332C299.799 446.875 299.298 447.588 298.974 448.469C298.649 449.351 298.486 450.302 298.486 451.323C298.486 452.344 298.649 453.292 298.974 454.167C299.298 455.042 299.799 455.748 300.475 456.285C301.151 456.822 302.013 457.09 303.06 457.09ZM319.767 459.198C318.389 459.198 317.179 458.87 316.138 458.214C315.104 457.558 314.295 456.639 313.712 455.46C313.135 454.28 312.847 452.901 312.847 451.323C312.847 449.732 313.135 448.344 313.712 447.157C314.295 445.97 315.104 445.049 316.138 444.393C317.179 443.737 318.389 443.408 319.767 443.408C321.146 443.408 322.353 443.737 323.387 444.393C324.427 445.049 325.236 445.97 325.813 447.157C326.396 448.344 326.688 449.732 326.688 451.323C326.688 452.901 326.396 454.28 325.813 455.46C325.236 456.639 324.427 457.558 323.387 458.214C322.353 458.87 321.146 459.198 319.767 459.198ZM319.767 457.09C320.815 457.09 321.676 456.822 322.353 456.285C323.029 455.748 323.529 455.042 323.854 454.167C324.179 453.292 324.341 452.344 324.341 451.323C324.341 450.302 324.179 449.351 323.854 448.469C323.529 447.588 323.029 446.875 322.353 446.332C321.676 445.788 320.815 445.516 319.767 445.516C318.72 445.516 317.858 445.788 317.182 446.332C316.506 446.875 316.005 447.588 315.681 448.469C315.356 449.351 315.193 450.302 315.193 451.323C315.193 452.344 315.356 453.292 315.681 454.167C316.005 455.042 316.506 455.748 317.182 456.285C317.858 456.822 318.72 457.09 319.767 457.09ZM336.912 443.607V445.596H328.997V443.607H336.912ZM331.304 439.948H333.65V454.505C333.65 455.168 333.747 455.665 333.939 455.996C334.138 456.321 334.39 456.54 334.695 456.653C335.006 456.759 335.334 456.812 335.679 456.812C335.937 456.812 336.15 456.799 336.315 456.772C336.481 456.739 336.614 456.712 336.713 456.693L337.19 458.8C337.031 458.86 336.809 458.92 336.524 458.979C336.239 459.046 335.878 459.079 335.44 459.079C334.777 459.079 334.128 458.936 333.491 458.651C332.862 458.366 332.338 457.932 331.92 457.349C331.509 456.765 331.304 456.03 331.304 455.141V439.948ZM346.681 459.198C345.209 459.198 343.94 458.873 342.873 458.224C341.812 457.568 340.994 456.653 340.417 455.479C339.847 454.3 339.562 452.927 339.562 451.363C339.562 449.799 339.847 448.42 340.417 447.227C340.994 446.027 341.796 445.092 342.823 444.423C343.857 443.746 345.064 443.408 346.442 443.408C347.238 443.408 348.023 443.541 348.799 443.806C349.574 444.071 350.28 444.502 350.917 445.099C351.553 445.689 352.06 446.471 352.438 447.445C352.816 448.42 353.005 449.62 353.005 451.045V452.039H341.232V450.011H350.619C350.619 449.149 350.446 448.38 350.101 447.704C349.763 447.028 349.28 446.494 348.65 446.103C348.027 445.712 347.291 445.516 346.442 445.516C345.508 445.516 344.699 445.748 344.016 446.212C343.34 446.67 342.82 447.266 342.455 448.002C342.091 448.738 341.908 449.527 341.908 450.369V451.721C341.908 452.874 342.107 453.852 342.505 454.654C342.909 455.45 343.469 456.056 344.185 456.474C344.901 456.885 345.733 457.09 346.681 457.09C347.297 457.09 347.854 457.004 348.351 456.832C348.855 456.653 349.289 456.388 349.654 456.036C350.019 455.678 350.3 455.234 350.499 454.704L352.766 455.34C352.528 456.109 352.127 456.785 351.563 457.369C351 457.945 350.304 458.396 349.475 458.721C348.646 459.039 347.715 459.198 346.681 459.198ZM356.574 458.88V443.607H358.842V445.914H359.001C359.279 445.158 359.783 444.545 360.512 444.075C361.241 443.604 362.063 443.369 362.978 443.369C363.15 443.369 363.366 443.372 363.624 443.379C363.883 443.385 364.078 443.395 364.211 443.408V445.795C364.131 445.775 363.949 445.745 363.664 445.705C363.386 445.659 363.091 445.636 362.779 445.636C362.037 445.636 361.374 445.791 360.79 446.103C360.214 446.408 359.756 446.832 359.418 447.376C359.087 447.913 358.921 448.526 358.921 449.215V458.88H356.574ZM380.475 451.721L367.669 458.244V455.698L377.492 450.965L377.413 451.124V450.727L377.492 450.886L367.669 446.153V443.607L380.475 450.13V451.721Z" fill="#F2F2F2"/>
<path d="M269.614 51.721V50.1301L282.421 43.6074V46.1529L272.597 50.8858L272.676 50.7267V51.1244L272.597 50.9654L282.421 55.6983V58.2438L269.614 51.721ZM289.741 49.6926V58.8801H287.395V38.5165H289.741V45.9938H289.94C290.298 45.2049 290.835 44.5785 291.551 44.1145C292.273 43.6439 293.235 43.4085 294.434 43.4085C295.475 43.4085 296.387 43.6173 297.169 44.035C297.951 44.4459 298.558 45.079 298.988 45.9341C299.426 46.7826 299.645 47.8631 299.645 49.1756V58.8801H297.298V49.3347C297.298 48.1216 296.983 47.1836 296.353 46.5208C295.73 45.8512 294.865 45.5165 293.758 45.5165C292.989 45.5165 292.3 45.6789 291.69 46.0037C291.087 46.3285 290.61 46.8025 290.258 47.4256C289.914 48.0487 289.741 48.8044 289.741 49.6926ZM310.341 59.1983C308.869 59.1983 307.6 58.8735 306.533 58.2239C305.472 57.5676 304.654 56.6529 304.077 55.4796C303.507 54.2996 303.222 52.9275 303.222 51.3631C303.222 49.7987 303.507 48.4199 304.077 47.2267C304.654 46.0269 305.456 45.0922 306.483 44.4227C307.517 43.7466 308.724 43.4085 310.102 43.4085C310.898 43.4085 311.683 43.5411 312.459 43.8063C313.235 44.0714 313.94 44.5023 314.577 45.0989C315.213 45.6888 315.72 46.471 316.098 47.4455C316.476 48.4199 316.665 49.6197 316.665 51.0449V52.0392H304.892V50.0108H314.279C314.279 49.1491 314.106 48.3801 313.762 47.704C313.423 47.0279 312.94 46.4942 312.31 46.1031C311.687 45.712 310.951 45.5165 310.102 45.5165C309.168 45.5165 308.359 45.7485 307.676 46.2125C307 46.6699 306.48 47.2665 306.115 48.0023C305.751 48.7381 305.568 49.5269 305.568 50.3688V51.721C305.568 52.8744 305.767 53.8522 306.165 54.6543C306.569 55.4497 307.129 56.0563 307.845 56.4739C308.561 56.8849 309.393 57.0904 310.341 57.0904C310.958 57.0904 311.514 57.0042 312.012 56.8318C312.515 56.6529 312.949 56.3877 313.314 56.0364C313.679 55.6784 313.96 55.2343 314.159 54.704L316.426 55.3404C316.188 56.1093 315.787 56.7854 315.223 57.3688C314.66 57.9455 313.964 58.3962 313.135 58.721C312.306 59.0392 311.375 59.1983 310.341 59.1983ZM324.729 59.2381C323.761 59.2381 322.883 59.0558 322.094 58.6912C321.305 58.32 320.679 57.7864 320.215 57.0904C319.751 56.3877 319.519 55.5392 319.519 54.5449C319.519 53.6699 319.691 52.9606 320.036 52.4171C320.38 51.8669 320.841 51.436 321.418 51.1244C321.994 50.8129 322.631 50.5809 323.327 50.4284C324.03 50.2693 324.735 50.1434 325.445 50.0506C326.373 49.9313 327.125 49.8418 327.702 49.7821C328.285 49.7158 328.709 49.6065 328.975 49.454C329.246 49.3015 329.382 49.0364 329.382 48.6585V48.579C329.382 47.5979 329.114 46.8356 328.577 46.2921C328.047 45.7485 327.241 45.4767 326.161 45.4767C325.04 45.4767 324.162 45.722 323.526 46.2125C322.889 46.703 322.442 47.2267 322.183 47.7835L319.956 46.9881C320.354 46.0601 320.884 45.3375 321.547 44.8205C322.217 44.2968 322.946 43.9322 323.735 43.7267C324.53 43.5146 325.312 43.4085 326.081 43.4085C326.572 43.4085 327.135 43.4682 327.771 43.5875C328.414 43.7002 329.034 43.9355 329.631 44.2935C330.234 44.6514 330.735 45.1917 331.132 45.9142C331.53 46.6368 331.729 47.6046 331.729 48.8176V58.8801H329.382V56.8119H329.263C329.104 57.1434 328.839 57.498 328.467 57.8759C328.096 58.2537 327.602 58.5752 326.986 58.8404C326.369 59.1055 325.617 59.2381 324.729 59.2381ZM325.087 57.1301C326.015 57.1301 326.797 56.9478 327.433 56.5833C328.076 56.2187 328.56 55.748 328.885 55.1713C329.217 54.5946 329.382 53.9881 329.382 53.3517V51.204C329.283 51.3233 329.064 51.4327 328.726 51.5321C328.395 51.6249 328.01 51.7078 327.573 51.7807C327.142 51.847 326.721 51.9066 326.31 51.9597C325.905 52.0061 325.577 52.0458 325.325 52.079C324.716 52.1585 324.146 52.2878 323.615 52.4668C323.092 52.6391 322.667 52.901 322.342 53.2523C322.024 53.597 321.865 54.0676 321.865 54.6642C321.865 55.4796 322.167 56.096 322.77 56.5136C323.38 56.9246 324.152 57.1301 325.087 57.1301ZM341.779 59.1983C340.506 59.1983 339.383 58.8768 338.408 58.2338C337.434 57.5842 336.671 56.6694 336.121 55.4895C335.571 54.3029 335.296 52.901 335.296 51.2835C335.296 49.6794 335.571 48.2873 336.121 47.1074C336.671 45.9275 337.437 45.016 338.418 44.373C339.399 43.73 340.533 43.4085 341.819 43.4085C342.813 43.4085 343.599 43.5743 344.175 43.9057C344.759 44.2305 345.203 44.6017 345.508 45.0193C345.819 45.4303 346.061 45.7684 346.233 46.0335H346.432V38.5165H348.779V58.8801H346.512V56.5335H346.233C346.061 56.8119 345.816 57.1633 345.498 57.5875C345.179 58.0051 344.725 58.3797 344.135 58.7111C343.545 59.0359 342.76 59.1983 341.779 59.1983ZM342.097 57.0904C343.038 57.0904 343.834 56.8451 344.483 56.3546C345.133 55.8574 345.627 55.1713 345.965 54.2963C346.303 53.4147 346.472 52.3972 346.472 51.2438C346.472 50.1036 346.306 49.106 345.975 48.2509C345.643 47.3891 345.153 46.7196 344.503 46.2423C343.854 45.7584 343.052 45.5165 342.097 45.5165C341.103 45.5165 340.274 45.7717 339.611 46.2821C338.955 46.7859 338.461 47.472 338.13 48.3404C337.805 49.2021 337.643 50.1699 337.643 51.2438C337.643 52.3309 337.808 53.3186 338.14 54.2068C338.478 55.0885 338.975 55.7911 339.631 56.3148C340.294 56.8318 341.116 57.0904 342.097 57.0904ZM359.806 59.1983C358.334 59.1983 357.065 58.8735 355.998 58.2239C354.937 57.5676 354.118 56.6529 353.542 55.4796C352.972 54.2996 352.687 52.9275 352.687 51.3631C352.687 49.7987 352.972 48.4199 353.542 47.2267C354.118 46.0269 354.92 45.0922 355.948 44.4227C356.982 43.7466 358.188 43.4085 359.567 43.4085C360.363 43.4085 361.148 43.5411 361.924 43.8063C362.699 44.0714 363.405 44.5023 364.042 45.0989C364.678 45.6888 365.185 46.471 365.563 47.4455C365.941 48.4199 366.13 49.6197 366.13 51.0449V52.0392H354.357V50.0108H363.743C363.743 49.1491 363.571 48.3801 363.226 47.704C362.888 47.0279 362.404 46.4942 361.775 46.1031C361.152 45.712 360.416 45.5165 359.567 45.5165C358.633 45.5165 357.824 45.7485 357.141 46.2125C356.465 46.6699 355.945 47.2665 355.58 48.0023C355.215 48.7381 355.033 49.5269 355.033 50.3688V51.721C355.033 52.8744 355.232 53.8522 355.63 54.6543C356.034 55.4497 356.594 56.0563 357.31 56.4739C358.026 56.8849 358.858 57.0904 359.806 57.0904C360.422 57.0904 360.979 57.0042 361.476 56.8318C361.98 56.6529 362.414 56.3877 362.779 56.0364C363.143 55.6784 363.425 55.2343 363.624 54.704L365.891 55.3404C365.652 56.1093 365.251 56.7854 364.688 57.3688C364.125 57.9455 363.429 58.3962 362.6 58.721C361.771 59.0392 360.84 59.1983 359.806 59.1983ZM369.699 58.8801V43.6074H371.966V45.9142H372.125C372.404 45.1585 372.908 44.5454 373.637 44.0747C374.366 43.6041 375.188 43.3688 376.103 43.3688C376.275 43.3688 376.491 43.3721 376.749 43.3787C377.008 43.3853 377.203 43.3953 377.336 43.4085V45.7949C377.256 45.775 377.074 45.7452 376.789 45.7054C376.51 45.659 376.215 45.6358 375.904 45.6358C375.161 45.6358 374.499 45.7916 373.915 46.1031C373.339 46.4081 372.881 46.8323 372.543 47.3759C372.212 47.9128 372.046 48.526 372.046 49.2154V58.8801H369.699ZM393.6 51.721L380.793 58.2438V55.6983L390.617 50.9654L390.538 51.1244V50.7267L390.617 50.8858L380.793 46.1529V43.6074L393.6 50.1301V51.721Z" fill="#F2F2F2"/>
</svg>
