<svg width="650" height="500" viewBox="0 0 650 500" fill="none" xmlns="http://www.w3.org/2000/svg">
<path d="M625.2 88H24.8C17.2 88 11 81.8 11 74.2V26.2C11 18.6 17.2 12.4 24.8 12.4H625.1C632.7 12.4 638.9 18.6 638.9 26.2V74.2C639 81.8 632.8 88 625.2 88Z" fill="#8C503A"/>
<path d="M625.2 405H24.8C17.2 405 11 398.8 11 391.2V165.2C11 157.6 17.2 151.4 24.8 151.4H625.1C632.7 151.4 638.9 157.6 638.9 165.2V391.2C639 398.8 632.8 405 625.2 405Z" fill="#D9CCC1"/>
<path d="M611.2 391H35.8C28.2 391 22 384.8 22 377.2V208.8C22 201.2 28.2 195 35.8 195H611.1C618.7 195 624.9 201.2 624.9 208.8V377.1C625 384.8 618.8 391 611.2 391Z" fill="#905F4D"/>
<path d="M378.2 307H47.5C39.9 307 33.7 300.8 33.7 293.2V262.9C33.7 255.3 39.9 249.1 47.5 249.1H378.2C385.8 249.1 392 255.3 392 262.9V293.2C392 300.8 385.8 307 378.2 307Z" fill="#BF6415"/>
<path d="M589.2 375H429.5C421.9 375 415.7 368.8 415.7 361.2V262.9C415.7 255.3 421.9 249.1 429.5 249.1H589.2C596.8 249.1 603 255.3 603 262.9V361.2C603 368.8 596.8 375 589.2 375Z" fill="#D99050"/>
<path d="M377.5 375H46.8C39.2 375 33 368.8 33 361.2V330.9C33 323.3 39.2 317.1 46.8 317.1H377.5C385.1 317.1 391.3 323.3 391.3 330.9V361.2C391.4 368.8 385.2 375 377.5 375Z" fill="#BF6415"/>
<path d="M630 144H20C15.1 144 11 140 11 135V104.3C11 99.4 15 95.3 20 95.3H630C634.9 95.3 639 99.3 639 104.3V135C639 140 635 144 630 144Z" fill="#BF6415"/>
<path d="M289.614 119.721V118.13L302.421 111.607V114.153L292.597 118.886L292.676 118.727V119.124L292.597 118.965L302.421 123.698V126.244L289.614 119.721ZM309.741 117.693V126.88H307.395V111.607H309.662V113.994H309.861C310.219 113.218 310.762 112.595 311.491 112.124C312.221 111.647 313.162 111.408 314.315 111.408C315.349 111.408 316.254 111.621 317.03 112.045C317.805 112.462 318.409 113.099 318.839 113.954C319.27 114.802 319.486 115.876 319.486 117.175V126.88H317.139V117.335C317.139 116.135 316.828 115.2 316.204 114.531C315.581 113.854 314.726 113.516 313.639 113.516C312.89 113.516 312.221 113.679 311.631 114.004C311.047 114.328 310.587 114.802 310.248 115.425C309.91 116.049 309.741 116.804 309.741 117.693ZM328.268 127.238C327.3 127.238 326.422 127.056 325.633 126.691C324.844 126.32 324.218 125.786 323.754 125.09C323.29 124.388 323.058 123.539 323.058 122.545C323.058 121.67 323.23 120.96 323.575 120.417C323.92 119.867 324.38 119.436 324.957 119.124C325.534 118.813 326.17 118.581 326.866 118.428C327.569 118.269 328.275 118.143 328.984 118.05C329.912 117.931 330.664 117.842 331.241 117.782C331.824 117.716 332.249 117.606 332.514 117.454C332.786 117.301 332.921 117.036 332.921 116.658V116.579C332.921 115.598 332.653 114.835 332.116 114.292C331.586 113.748 330.78 113.477 329.7 113.477C328.58 113.477 327.701 113.722 327.065 114.212C326.429 114.703 325.981 115.227 325.723 115.783L323.495 114.988C323.893 114.06 324.423 113.337 325.086 112.82C325.756 112.297 326.485 111.932 327.274 111.727C328.069 111.514 328.851 111.408 329.62 111.408C330.111 111.408 330.674 111.468 331.311 111.587C331.954 111.7 332.573 111.935 333.17 112.293C333.773 112.651 334.274 113.192 334.671 113.914C335.069 114.637 335.268 115.604 335.268 116.818V126.88H332.921V124.812H332.802C332.643 125.143 332.378 125.498 332.007 125.876C331.635 126.254 331.142 126.575 330.525 126.84C329.909 127.105 329.156 127.238 328.268 127.238ZM328.626 125.13C329.554 125.13 330.336 124.948 330.973 124.583C331.616 124.219 332.099 123.748 332.424 123.171C332.756 122.594 332.921 121.988 332.921 121.352V119.204C332.822 119.323 332.603 119.433 332.265 119.532C331.934 119.625 331.549 119.708 331.112 119.781C330.681 119.847 330.26 119.907 329.849 119.96C329.445 120.006 329.117 120.046 328.865 120.079C328.255 120.158 327.685 120.288 327.154 120.467C326.631 120.639 326.206 120.901 325.882 121.252C325.563 121.597 325.404 122.068 325.404 122.664C325.404 123.479 325.706 124.096 326.309 124.514C326.919 124.925 327.691 125.13 328.626 125.13ZM351.493 111.607L345.845 126.88H343.459L337.811 111.607H340.356L344.572 123.778H344.731L348.947 111.607H351.493ZM368.073 119.721L355.266 126.244V123.698L365.09 118.965L365.011 119.124V118.727L365.09 118.886L355.266 114.153V111.607L368.073 118.13V119.721Z" fill="#F2F2F2"/>
<path d="M278.614 173.721V172.13L291.421 165.607V168.153L281.597 172.886L281.676 172.727V173.124L281.597 172.965L291.421 177.698V180.244L278.614 173.721ZM296.395 180.88V165.607H298.662V167.994H298.861C299.179 167.178 299.693 166.545 300.402 166.094C301.111 165.637 301.963 165.408 302.957 165.408C303.965 165.408 304.803 165.637 305.473 166.094C306.149 166.545 306.676 167.178 307.054 167.994H307.213C307.604 167.205 308.191 166.578 308.973 166.114C309.755 165.644 310.693 165.408 311.787 165.408C313.152 165.408 314.269 165.836 315.138 166.691C316.006 167.54 316.44 168.862 316.44 170.658V180.88H314.094V170.658C314.094 169.532 313.785 168.726 313.169 168.242C312.552 167.758 311.827 167.516 310.991 167.516C309.918 167.516 309.086 167.841 308.496 168.491C307.906 169.134 307.611 169.949 307.611 170.937V180.88H305.224V170.42C305.224 169.551 304.943 168.852 304.379 168.322C303.816 167.785 303.09 167.516 302.202 167.516C301.592 167.516 301.022 167.679 300.491 168.004C299.968 168.328 299.543 168.779 299.219 169.356C298.9 169.926 298.741 170.585 298.741 171.335V180.88H296.395ZM325.225 181.238C324.257 181.238 323.379 181.056 322.59 180.691C321.801 180.32 321.175 179.786 320.711 179.09C320.247 178.388 320.015 177.539 320.015 176.545C320.015 175.67 320.187 174.96 320.532 174.417C320.877 173.867 321.337 173.436 321.914 173.124C322.491 172.813 323.127 172.581 323.823 172.428C324.526 172.269 325.232 172.143 325.941 172.05C326.869 171.931 327.621 171.842 328.198 171.782C328.781 171.716 329.206 171.606 329.471 171.454C329.743 171.301 329.878 171.036 329.878 170.658V170.579C329.878 169.598 329.61 168.835 329.073 168.292C328.543 167.748 327.737 167.477 326.657 167.477C325.537 167.477 324.658 167.722 324.022 168.212C323.386 168.703 322.938 169.227 322.68 169.783L320.452 168.988C320.85 168.06 321.38 167.337 322.043 166.82C322.713 166.297 323.442 165.932 324.231 165.727C325.026 165.514 325.808 165.408 326.577 165.408C327.068 165.408 327.631 165.468 328.268 165.587C328.911 165.7 329.53 165.935 330.127 166.293C330.73 166.651 331.231 167.192 331.628 167.914C332.026 168.637 332.225 169.604 332.225 170.818V180.88H329.878V178.812H329.759C329.6 179.143 329.335 179.498 328.964 179.876C328.592 180.254 328.099 180.575 327.482 180.84C326.866 181.105 326.113 181.238 325.225 181.238ZM325.583 179.13C326.511 179.13 327.293 178.948 327.93 178.583C328.573 178.219 329.056 177.748 329.381 177.171C329.713 176.594 329.878 175.988 329.878 175.352V173.204C329.779 173.323 329.56 173.433 329.222 173.532C328.891 173.625 328.506 173.708 328.069 173.781C327.638 173.847 327.217 173.907 326.806 173.96C326.402 174.006 326.074 174.046 325.822 174.079C325.212 174.158 324.642 174.288 324.111 174.467C323.588 174.639 323.164 174.901 322.839 175.252C322.521 175.597 322.361 176.068 322.361 176.664C322.361 177.479 322.663 178.096 323.266 178.514C323.876 178.925 324.648 179.13 325.583 179.13ZM336.508 180.88V165.607H338.855V180.88H336.508ZM337.701 163.062C337.244 163.062 336.849 162.906 336.518 162.594C336.193 162.283 336.031 161.908 336.031 161.471C336.031 161.033 336.193 160.659 336.518 160.347C336.849 160.036 337.244 159.88 337.701 159.88C338.159 159.88 338.55 160.036 338.875 160.347C339.206 160.659 339.372 161.033 339.372 161.471C339.372 161.908 339.206 162.283 338.875 162.594C338.55 162.906 338.159 163.062 337.701 163.062ZM345.499 171.693V180.88H343.153V165.607H345.42V167.994H345.619C345.976 167.218 346.52 166.595 347.249 166.124C347.978 165.647 348.92 165.408 350.073 165.408C351.107 165.408 352.012 165.621 352.788 166.045C353.563 166.462 354.166 167.099 354.597 167.954C355.028 168.802 355.244 169.876 355.244 171.175V180.88H352.897V171.335C352.897 170.135 352.585 169.2 351.962 168.531C351.339 167.854 350.484 167.516 349.397 167.516C348.648 167.516 347.978 167.679 347.388 168.004C346.805 168.328 346.344 168.802 346.006 169.425C345.668 170.049 345.499 170.804 345.499 171.693ZM373.014 173.721L360.208 180.244V177.698L370.032 172.965L369.952 173.124V172.727L370.032 172.886L360.208 168.153V165.607L373.014 172.13V173.721Z" fill="#F2F2F2"/>
<path d="M40.6139 221.721V220.13L53.4207 213.607V216.153L43.5969 220.886L43.6764 220.727V221.124L43.5969 220.965L53.4207 225.698V228.244L40.6139 221.721ZM62.8891 229.238C61.9213 229.238 61.043 229.056 60.2542 228.691C59.4653 228.32 58.8389 227.786 58.3749 227.09C57.9109 226.388 57.6789 225.539 57.6789 224.545C57.6789 223.67 57.8512 222.96 58.1959 222.417C58.5406 221.867 59.0013 221.436 59.578 221.124C60.1547 220.813 60.7911 220.581 61.4871 220.428C62.1898 220.269 62.8957 220.143 63.605 220.05C64.5331 219.931 65.2854 219.842 65.8621 219.782C66.4455 219.716 66.8697 219.606 67.1349 219.454C67.4066 219.301 67.5425 219.036 67.5425 218.658V218.579C67.5425 217.598 67.2741 216.835 66.7371 216.292C66.2068 215.748 65.4014 215.477 64.3209 215.477C63.2007 215.477 62.3224 215.722 61.686 216.212C61.0496 216.703 60.6022 217.227 60.3437 217.783L58.1164 216.988C58.5141 216.06 59.0444 215.337 59.7073 214.82C60.3768 214.297 61.106 213.932 61.8948 213.727C62.6903 213.514 63.4724 213.408 64.2414 213.408C64.7319 213.408 65.2954 213.468 65.9317 213.587C66.5747 213.7 67.1945 213.935 67.7911 214.293C68.3943 214.651 68.8948 215.192 69.2925 215.914C69.6903 216.637 69.8891 217.604 69.8891 218.818V228.88H67.5425V226.812H67.4232C67.2641 227.143 66.999 227.498 66.6278 227.876C66.2565 228.254 65.7627 228.575 65.1462 228.84C64.5297 229.105 63.7774 229.238 62.8891 229.238ZM63.2471 227.13C64.1751 227.13 64.9573 226.948 65.5937 226.583C66.2367 226.219 66.7206 225.748 67.0454 225.171C67.3768 224.594 67.5425 223.988 67.5425 223.352V221.204C67.4431 221.323 67.2243 221.433 66.8863 221.532C66.5548 221.625 66.1704 221.708 65.7329 221.781C65.302 221.847 64.8811 221.907 64.4701 221.96C64.0657 222.006 63.7376 222.046 63.4857 222.079C62.8759 222.158 62.3058 222.288 61.7755 222.467C61.2518 222.639 60.8276 222.901 60.5028 223.252C60.1846 223.597 60.0255 224.068 60.0255 224.664C60.0255 225.479 60.3271 226.096 60.9303 226.514C61.5402 226.925 62.3124 227.13 63.2471 227.13ZM74.1721 228.88V213.607H76.4392V215.914H76.5983C76.8767 215.158 77.3805 214.545 78.1096 214.075C78.8388 213.604 79.6608 213.369 80.5756 213.369C80.7479 213.369 80.9633 213.372 81.2219 213.379C81.4804 213.385 81.6759 213.395 81.8085 213.408V215.795C81.729 215.775 81.5467 215.745 81.2616 215.705C80.9832 215.659 80.6882 215.636 80.3767 215.636C79.6343 215.636 78.9714 215.791 78.3881 216.103C77.8113 216.408 77.354 216.832 77.0159 217.376C76.6845 217.913 76.5187 218.526 76.5187 219.215V228.88H74.1721ZM92.1892 213.607V215.596H84.2744V213.607H92.1892ZM86.5812 209.948H88.9278V224.505C88.9278 225.168 89.0239 225.665 89.2162 225.996C89.415 226.321 89.6669 226.54 89.9719 226.653C90.2834 226.759 90.6115 226.812 90.9562 226.812C91.2148 226.812 91.4269 226.799 91.5926 226.772C91.7583 226.739 91.8909 226.712 91.9903 226.693L92.4676 228.8C92.3085 228.86 92.0864 228.92 91.8014 228.979C91.5164 229.046 91.1551 229.079 90.7176 229.079C90.0547 229.079 89.4051 228.936 88.7687 228.651C88.139 228.366 87.6153 227.932 87.1977 227.349C86.7867 226.765 86.5812 226.03 86.5812 225.141V209.948ZM95.719 228.88V213.607H98.0656V228.88H95.719ZM96.9122 211.062C96.4548 211.062 96.0604 210.906 95.729 210.594C95.4041 210.283 95.2417 209.908 95.2417 209.471C95.2417 209.033 95.4041 208.659 95.729 208.347C96.0604 208.036 96.4548 207.88 96.9122 207.88C97.3696 207.88 97.7607 208.036 98.0855 208.347C98.4169 208.659 98.5827 209.033 98.5827 209.471C98.5827 209.908 98.4169 210.283 98.0855 210.594C97.7607 210.906 97.3696 211.062 96.9122 211.062ZM108.568 229.198C107.136 229.198 105.903 228.86 104.869 228.184C103.835 227.508 103.04 226.577 102.483 225.39C101.926 224.203 101.648 222.848 101.648 221.323C101.648 219.772 101.933 218.403 102.503 217.217C103.079 216.023 103.882 215.092 104.909 214.423C105.943 213.746 107.15 213.408 108.528 213.408C109.602 213.408 110.57 213.607 111.432 214.005C112.293 214.403 112.999 214.96 113.55 215.675C114.1 216.391 114.441 217.227 114.574 218.181H112.227C112.048 217.485 111.65 216.869 111.034 216.332C110.424 215.788 109.602 215.516 108.568 215.516C107.653 215.516 106.851 215.755 106.162 216.232C105.479 216.703 104.945 217.369 104.561 218.231C104.183 219.086 103.994 220.09 103.994 221.244C103.994 222.424 104.18 223.451 104.551 224.326C104.929 225.201 105.459 225.88 106.142 226.364C106.831 226.848 107.64 227.09 108.568 227.09C109.178 227.09 109.731 226.984 110.229 226.772C110.726 226.56 111.147 226.255 111.491 225.857C111.836 225.46 112.081 224.982 112.227 224.425H114.574C114.441 225.327 114.113 226.139 113.589 226.862C113.072 227.577 112.386 228.148 111.531 228.572C110.683 228.989 109.695 229.198 108.568 229.198ZM120.351 208.516V228.88H118.004V208.516H120.351ZM131.052 229.198C129.581 229.198 128.311 228.873 127.244 228.224C126.183 227.568 125.365 226.653 124.788 225.479C124.218 224.3 123.933 222.927 123.933 221.363C123.933 219.799 124.218 218.42 124.788 217.227C125.365 216.027 126.167 215.092 127.194 214.423C128.228 213.746 129.435 213.408 130.813 213.408C131.609 213.408 132.394 213.541 133.17 213.806C133.946 214.071 134.652 214.502 135.288 215.099C135.924 215.689 136.431 216.471 136.809 217.445C137.187 218.42 137.376 219.62 137.376 221.045V222.039H125.603V220.011H134.99C134.99 219.149 134.817 218.38 134.473 217.704C134.134 217.028 133.651 216.494 133.021 216.103C132.398 215.712 131.662 215.516 130.813 215.516C129.879 215.516 129.07 215.748 128.387 216.212C127.711 216.67 127.191 217.266 126.826 218.002C126.462 218.738 126.279 219.527 126.279 220.369V221.721C126.279 222.874 126.478 223.852 126.876 224.654C127.28 225.45 127.84 226.056 128.556 226.474C129.272 226.885 130.104 227.09 131.052 227.09C131.669 227.09 132.225 227.004 132.723 226.832C133.226 226.653 133.661 226.388 134.025 226.036C134.39 225.678 134.671 225.234 134.87 224.704L137.137 225.34C136.899 226.109 136.498 226.785 135.934 227.369C135.371 227.945 134.675 228.396 133.846 228.721C133.018 229.039 132.086 229.198 131.052 229.198ZM154.429 221.721L141.622 228.244V225.698L151.446 220.965L151.366 221.124V220.727L151.446 220.886L141.622 216.153V213.607L154.429 220.13V221.721Z" fill="#F2F2F2"/>
<path d="M460.614 314.721V313.13L473.421 306.607V309.153L463.597 313.886L463.676 313.727V314.124L463.597 313.965L473.421 318.698V321.244L460.614 314.721ZM482.889 322.238C481.921 322.238 481.043 322.056 480.254 321.691C479.465 321.32 478.839 320.786 478.375 320.09C477.911 319.388 477.679 318.539 477.679 317.545C477.679 316.67 477.851 315.96 478.196 315.417C478.541 314.867 479.001 314.436 479.578 314.124C480.155 313.813 480.791 313.581 481.487 313.428C482.19 313.269 482.896 313.143 483.605 313.05C484.533 312.931 485.285 312.842 485.862 312.782C486.445 312.716 486.87 312.606 487.135 312.454C487.407 312.301 487.543 312.036 487.543 311.658V311.579C487.543 310.598 487.274 309.835 486.737 309.292C486.207 308.748 485.401 308.477 484.321 308.477C483.201 308.477 482.322 308.722 481.686 309.212C481.05 309.703 480.602 310.227 480.344 310.783L478.116 309.988C478.514 309.06 479.044 308.337 479.707 307.82C480.377 307.297 481.106 306.932 481.895 306.727C482.69 306.514 483.472 306.408 484.241 306.408C484.732 306.408 485.295 306.468 485.932 306.587C486.575 306.7 487.195 306.935 487.791 307.293C488.394 307.651 488.895 308.192 489.293 308.914C489.69 309.637 489.889 310.604 489.889 311.818V321.88H487.543V319.812H487.423C487.264 320.143 486.999 320.498 486.628 320.876C486.257 321.254 485.763 321.575 485.146 321.84C484.53 322.105 483.777 322.238 482.889 322.238ZM483.247 320.13C484.175 320.13 484.957 319.948 485.594 319.583C486.237 319.219 486.721 318.748 487.045 318.171C487.377 317.594 487.543 316.988 487.543 316.352V314.204C487.443 314.323 487.224 314.433 486.886 314.532C486.555 314.625 486.17 314.708 485.733 314.781C485.302 314.847 484.881 314.907 484.47 314.96C484.066 315.006 483.738 315.046 483.486 315.079C482.876 315.158 482.306 315.288 481.775 315.467C481.252 315.639 480.828 315.901 480.503 316.252C480.185 316.597 480.025 317.068 480.025 317.664C480.025 318.479 480.327 319.096 480.93 319.514C481.54 319.925 482.312 320.13 483.247 320.13ZM504.99 310.028L502.882 310.624C502.75 310.273 502.554 309.932 502.296 309.6C502.044 309.262 501.699 308.984 501.262 308.765C500.824 308.546 500.264 308.437 499.581 308.437C498.647 308.437 497.868 308.652 497.245 309.083C496.628 309.507 496.32 310.048 496.32 310.704C496.32 311.287 496.532 311.748 496.956 312.086C497.38 312.424 498.043 312.706 498.945 312.931L501.212 313.488C502.577 313.819 503.595 314.327 504.264 315.009C504.934 315.685 505.269 316.557 505.269 317.624C505.269 318.499 505.017 319.282 504.513 319.971C504.016 320.66 503.32 321.204 502.425 321.602C501.53 321.999 500.489 322.198 499.303 322.198C497.745 322.198 496.456 321.86 495.435 321.184C494.414 320.508 493.768 319.52 493.496 318.221L495.723 317.664C495.935 318.486 496.336 319.103 496.926 319.514C497.523 319.925 498.302 320.13 499.263 320.13C500.357 320.13 501.225 319.898 501.868 319.434C502.518 318.963 502.843 318.4 502.843 317.744C502.843 317.213 502.657 316.769 502.286 316.411C501.915 316.047 501.344 315.775 500.576 315.596L498.03 314.999C496.631 314.668 495.604 314.154 494.948 313.458C494.298 312.755 493.973 311.877 493.973 310.823C493.973 309.961 494.215 309.199 494.699 308.536C495.19 307.873 495.856 307.353 496.698 306.975C497.546 306.597 498.507 306.408 499.581 306.408C501.093 306.408 502.279 306.74 503.141 307.403C504.009 308.066 504.626 308.941 504.99 310.028ZM508.801 321.88V306.607H511.148V321.88H508.801ZM509.994 304.062C509.537 304.062 509.142 303.906 508.811 303.594C508.486 303.283 508.324 302.908 508.324 302.471C508.324 302.033 508.486 301.659 508.811 301.347C509.142 301.036 509.537 300.88 509.994 300.88C510.452 300.88 510.843 301.036 511.168 301.347C511.499 301.659 511.665 302.033 511.665 302.471C511.665 302.908 511.499 303.283 511.168 303.594C510.843 303.906 510.452 304.062 509.994 304.062ZM521.213 322.198C519.94 322.198 518.816 321.877 517.842 321.234C516.867 320.584 516.105 319.669 515.555 318.489C515.005 317.303 514.73 315.901 514.73 314.283C514.73 312.679 515.005 311.287 515.555 310.107C516.105 308.927 516.871 308.016 517.852 307.373C518.833 306.73 519.966 306.408 521.252 306.408C522.247 306.408 523.032 306.574 523.609 306.906C524.192 307.23 524.636 307.602 524.941 308.019C525.253 308.43 525.495 308.768 525.667 309.033H525.866V301.516H528.213V321.88H525.946V319.533H525.667C525.495 319.812 525.25 320.163 524.931 320.587C524.613 321.005 524.159 321.38 523.569 321.711C522.979 322.036 522.194 322.198 521.213 322.198ZM521.531 320.09C522.472 320.09 523.268 319.845 523.917 319.354C524.567 318.857 525.061 318.171 525.399 317.296C525.737 316.415 525.906 315.397 525.906 314.244C525.906 313.103 525.74 312.106 525.409 311.251C525.077 310.389 524.587 309.719 523.937 309.242C523.287 308.758 522.485 308.516 521.531 308.516C520.536 308.516 519.708 308.772 519.045 309.282C518.389 309.786 517.895 310.472 517.563 311.34C517.239 312.202 517.076 313.17 517.076 314.244C517.076 315.331 517.242 316.318 517.573 317.207C517.911 318.088 518.409 318.791 519.065 319.315C519.728 319.832 520.55 320.09 521.531 320.09ZM539.24 322.198C537.768 322.198 536.499 321.873 535.431 321.224C534.371 320.568 533.552 319.653 532.975 318.479C532.405 317.3 532.12 315.927 532.12 314.363C532.12 312.799 532.405 311.42 532.975 310.227C533.552 309.027 534.354 308.092 535.382 307.423C536.416 306.746 537.622 306.408 539.001 306.408C539.796 306.408 540.582 306.541 541.358 306.806C542.133 307.071 542.839 307.502 543.475 308.099C544.112 308.689 544.619 309.471 544.997 310.445C545.375 311.42 545.563 312.62 545.563 314.045V315.039H533.791V313.011H543.177C543.177 312.149 543.005 311.38 542.66 310.704C542.322 310.028 541.838 309.494 541.208 309.103C540.585 308.712 539.849 308.516 539.001 308.516C538.066 308.516 537.258 308.748 536.575 309.212C535.899 309.67 535.378 310.266 535.014 311.002C534.649 311.738 534.467 312.527 534.467 313.369V314.721C534.467 315.874 534.666 316.852 535.063 317.654C535.468 318.45 536.028 319.056 536.744 319.474C537.46 319.885 538.292 320.09 539.24 320.09C539.856 320.09 540.413 320.004 540.91 319.832C541.414 319.653 541.848 319.388 542.213 319.036C542.577 318.678 542.859 318.234 543.058 317.704L545.325 318.34C545.086 319.109 544.685 319.785 544.122 320.369C543.558 320.945 542.862 321.396 542.034 321.721C541.205 322.039 540.274 322.198 539.24 322.198ZM562.616 314.721L549.809 321.244V318.698L559.633 313.965L559.554 314.124V313.727L559.633 313.886L549.809 309.153V306.607L562.616 313.13V314.721Z" fill="#F2F2F2"/>
<path d="M79.6139 279.721V278.13L92.4207 271.607V274.153L82.5969 278.886L82.6764 278.727V279.124L82.5969 278.965L92.4207 283.698V286.244L79.6139 279.721ZM108.213 275.028L106.105 275.624C105.972 275.273 105.777 274.932 105.518 274.6C105.266 274.262 104.922 273.984 104.484 273.765C104.047 273.546 103.487 273.437 102.804 273.437C101.869 273.437 101.09 273.652 100.467 274.083C99.8508 274.507 99.5425 275.048 99.5425 275.704C99.5425 276.287 99.7546 276.748 100.179 277.086C100.603 277.424 101.266 277.706 102.168 277.931L104.435 278.488C105.8 278.819 106.818 279.327 107.487 280.009C108.157 280.685 108.491 281.557 108.491 282.624C108.491 283.499 108.239 284.282 107.736 284.971C107.239 285.66 106.543 286.204 105.648 286.602C104.753 286.999 103.712 287.198 102.525 287.198C100.968 287.198 99.6784 286.86 98.6576 286.184C97.6367 285.508 96.9904 284.52 96.7187 283.221L98.9459 282.664C99.1581 283.486 99.5591 284.103 100.149 284.514C100.746 284.925 101.525 285.13 102.486 285.13C103.579 285.13 104.448 284.898 105.091 284.434C105.74 283.963 106.065 283.4 106.065 282.744C106.065 282.213 105.88 281.769 105.508 281.411C105.137 281.047 104.567 280.775 103.798 280.596L101.253 279.999C99.8541 279.668 98.8266 279.154 98.1704 278.458C97.5207 277.755 97.1959 276.877 97.1959 275.823C97.1959 274.961 97.4379 274.199 97.9218 273.536C98.4123 272.873 99.0785 272.353 99.9204 271.975C100.769 271.597 101.73 271.408 102.804 271.408C104.315 271.408 105.502 271.74 106.364 272.403C107.232 273.066 107.848 273.941 108.213 275.028ZM118.427 287.198C116.956 287.198 115.686 286.873 114.619 286.224C113.558 285.568 112.74 284.653 112.163 283.479C111.593 282.3 111.308 280.927 111.308 279.363C111.308 277.799 111.593 276.42 112.163 275.227C112.74 274.027 113.542 273.092 114.569 272.423C115.603 271.746 116.81 271.408 118.188 271.408C118.984 271.408 119.769 271.541 120.545 271.806C121.321 272.071 122.027 272.502 122.663 273.099C123.299 273.689 123.806 274.471 124.184 275.445C124.562 276.42 124.751 277.62 124.751 279.045V280.039H112.978V278.011H122.365C122.365 277.149 122.192 276.38 121.848 275.704C121.509 275.028 121.026 274.494 120.396 274.103C119.773 273.712 119.037 273.516 118.188 273.516C117.254 273.516 116.445 273.748 115.762 274.212C115.086 274.67 114.566 275.266 114.201 276.002C113.837 276.738 113.654 277.527 113.654 278.369V279.721C113.654 280.874 113.853 281.852 114.251 282.654C114.655 283.45 115.215 284.056 115.931 284.474C116.647 284.885 117.479 285.09 118.427 285.09C119.044 285.09 119.6 285.004 120.098 284.832C120.601 284.653 121.036 284.388 121.4 284.036C121.765 283.678 122.046 283.234 122.245 282.704L124.512 283.34C124.274 284.109 123.873 284.785 123.309 285.369C122.746 285.945 122.05 286.396 121.221 286.721C120.393 287.039 119.461 287.198 118.427 287.198ZM134.525 287.198C133.093 287.198 131.86 286.86 130.826 286.184C129.792 285.508 128.997 284.577 128.44 283.39C127.883 282.203 127.605 280.848 127.605 279.323C127.605 277.772 127.89 276.403 128.46 275.217C129.036 274.023 129.839 273.092 130.866 272.423C131.9 271.746 133.107 271.408 134.485 271.408C135.559 271.408 136.527 271.607 137.389 272.005C138.251 272.403 138.956 272.96 139.507 273.675C140.057 274.391 140.398 275.227 140.531 276.181H138.184C138.005 275.485 137.608 274.869 136.991 274.332C136.381 273.788 135.559 273.516 134.525 273.516C133.61 273.516 132.808 273.755 132.119 274.232C131.436 274.703 130.902 275.369 130.518 276.231C130.14 277.086 129.951 278.09 129.951 279.244C129.951 280.424 130.137 281.451 130.508 282.326C130.886 283.201 131.416 283.88 132.099 284.364C132.788 284.848 133.597 285.09 134.525 285.09C135.135 285.09 135.688 284.984 136.186 284.772C136.683 284.56 137.104 284.255 137.448 283.857C137.793 283.46 138.038 282.982 138.184 282.425H140.531C140.398 283.327 140.07 284.139 139.546 284.862C139.029 285.577 138.343 286.148 137.488 286.572C136.64 286.989 135.652 287.198 134.525 287.198ZM150.603 271.607V273.596H142.688V271.607H150.603ZM144.995 267.948H147.342V282.505C147.342 283.168 147.438 283.665 147.63 283.996C147.829 284.321 148.081 284.54 148.386 284.653C148.697 284.759 149.026 284.812 149.37 284.812C149.629 284.812 149.841 284.799 150.007 284.772C150.172 284.739 150.305 284.712 150.404 284.693L150.882 286.8C150.723 286.86 150.501 286.92 150.215 286.979C149.93 287.046 149.569 287.079 149.132 287.079C148.469 287.079 147.819 286.936 147.183 286.651C146.553 286.366 146.029 285.932 145.612 285.349C145.201 284.765 144.995 284.03 144.995 283.141V267.948ZM154.133 286.88V271.607H156.48V286.88H154.133ZM155.326 269.062C154.869 269.062 154.474 268.906 154.143 268.594C153.818 268.283 153.656 267.908 153.656 267.471C153.656 267.033 153.818 266.659 154.143 266.347C154.474 266.036 154.869 265.88 155.326 265.88C155.784 265.88 156.175 266.036 156.5 266.347C156.831 266.659 156.997 267.033 156.997 267.471C156.997 267.908 156.831 268.283 156.5 268.594C156.175 268.906 155.784 269.062 155.326 269.062ZM166.982 287.198C165.603 287.198 164.394 286.87 163.353 286.214C162.319 285.558 161.51 284.639 160.927 283.46C160.35 282.28 160.062 280.901 160.062 279.323C160.062 277.732 160.35 276.344 160.927 275.157C161.51 273.97 162.319 273.049 163.353 272.393C164.394 271.737 165.603 271.408 166.982 271.408C168.361 271.408 169.567 271.737 170.601 272.393C171.642 273.049 172.451 273.97 173.028 275.157C173.611 276.344 173.903 277.732 173.903 279.323C173.903 280.901 173.611 282.28 173.028 283.46C172.451 284.639 171.642 285.558 170.601 286.214C169.567 286.87 168.361 287.198 166.982 287.198ZM166.982 285.09C168.03 285.09 168.891 284.822 169.567 284.285C170.244 283.748 170.744 283.042 171.069 282.167C171.394 281.292 171.556 280.344 171.556 279.323C171.556 278.302 171.394 277.351 171.069 276.469C170.744 275.588 170.244 274.875 169.567 274.332C168.891 273.788 168.03 273.516 166.982 273.516C165.935 273.516 165.073 273.788 164.397 274.332C163.721 274.875 163.22 275.588 162.896 276.469C162.571 277.351 162.408 278.302 162.408 279.323C162.408 280.344 162.571 281.292 162.896 282.167C163.22 283.042 163.721 283.748 164.397 284.285C165.073 284.822 165.935 285.09 166.982 285.09ZM179.831 277.693V286.88H177.485V271.607H179.752V273.994H179.951C180.309 273.218 180.852 272.595 181.581 272.124C182.31 271.647 183.252 271.408 184.405 271.408C185.439 271.408 186.344 271.621 187.12 272.045C187.895 272.462 188.498 273.099 188.929 273.954C189.36 274.802 189.576 275.876 189.576 277.175V286.88H187.229V277.335C187.229 276.135 186.917 275.2 186.294 274.531C185.671 273.854 184.816 273.516 183.729 273.516C182.98 273.516 182.31 273.679 181.72 274.004C181.137 274.328 180.676 274.802 180.338 275.425C180 276.049 179.831 276.804 179.831 277.693ZM207.347 279.721L194.54 286.244V283.698L204.364 278.965L204.284 279.124V278.727L204.364 278.886L194.54 274.153V271.607L207.347 278.13V279.721Z" fill="#F2F2F2"/>
<path d="M79.6139 345.721V344.13L92.4207 337.607V340.153L82.5969 344.886L82.6764 344.727V345.124L82.5969 344.965L92.4207 349.698V352.244L79.6139 345.721ZM108.213 341.028L106.105 341.624C105.972 341.273 105.777 340.932 105.518 340.6C105.266 340.262 104.922 339.984 104.484 339.765C104.047 339.546 103.487 339.437 102.804 339.437C101.869 339.437 101.09 339.652 100.467 340.083C99.8508 340.507 99.5425 341.048 99.5425 341.704C99.5425 342.287 99.7546 342.748 100.179 343.086C100.603 343.424 101.266 343.706 102.168 343.931L104.435 344.488C105.8 344.819 106.818 345.327 107.487 346.009C108.157 346.685 108.491 347.557 108.491 348.624C108.491 349.499 108.239 350.282 107.736 350.971C107.239 351.66 106.543 352.204 105.648 352.602C104.753 352.999 103.712 353.198 102.525 353.198C100.968 353.198 99.6784 352.86 98.6576 352.184C97.6367 351.508 96.9904 350.52 96.7187 349.221L98.9459 348.664C99.1581 349.486 99.5591 350.103 100.149 350.514C100.746 350.925 101.525 351.13 102.486 351.13C103.579 351.13 104.448 350.898 105.091 350.434C105.74 349.963 106.065 349.4 106.065 348.744C106.065 348.213 105.88 347.769 105.508 347.411C105.137 347.047 104.567 346.775 103.798 346.596L101.253 345.999C99.8541 345.668 98.8266 345.154 98.1704 344.458C97.5207 343.755 97.1959 342.877 97.1959 341.823C97.1959 340.961 97.4379 340.199 97.9218 339.536C98.4123 338.873 99.0785 338.353 99.9204 337.975C100.769 337.597 101.73 337.408 102.804 337.408C104.315 337.408 105.502 337.74 106.364 338.403C107.232 339.066 107.848 339.941 108.213 341.028ZM118.427 353.198C116.956 353.198 115.686 352.873 114.619 352.224C113.558 351.568 112.74 350.653 112.163 349.479C111.593 348.3 111.308 346.927 111.308 345.363C111.308 343.799 111.593 342.42 112.163 341.227C112.74 340.027 113.542 339.092 114.569 338.423C115.603 337.746 116.81 337.408 118.188 337.408C118.984 337.408 119.769 337.541 120.545 337.806C121.321 338.071 122.027 338.502 122.663 339.099C123.299 339.689 123.806 340.471 124.184 341.445C124.562 342.42 124.751 343.62 124.751 345.045V346.039H112.978V344.011H122.365C122.365 343.149 122.192 342.38 121.848 341.704C121.509 341.028 121.026 340.494 120.396 340.103C119.773 339.712 119.037 339.516 118.188 339.516C117.254 339.516 116.445 339.748 115.762 340.212C115.086 340.67 114.566 341.266 114.201 342.002C113.837 342.738 113.654 343.527 113.654 344.369V345.721C113.654 346.874 113.853 347.852 114.251 348.654C114.655 349.45 115.215 350.056 115.931 350.474C116.647 350.885 117.479 351.09 118.427 351.09C119.044 351.09 119.6 351.004 120.098 350.832C120.601 350.653 121.036 350.388 121.4 350.036C121.765 349.678 122.046 349.234 122.245 348.704L124.512 349.34C124.274 350.109 123.873 350.785 123.309 351.369C122.746 351.945 122.05 352.396 121.221 352.721C120.393 353.039 119.461 353.198 118.427 353.198ZM134.525 353.198C133.093 353.198 131.86 352.86 130.826 352.184C129.792 351.508 128.997 350.577 128.44 349.39C127.883 348.203 127.605 346.848 127.605 345.323C127.605 343.772 127.89 342.403 128.46 341.217C129.036 340.023 129.839 339.092 130.866 338.423C131.9 337.746 133.107 337.408 134.485 337.408C135.559 337.408 136.527 337.607 137.389 338.005C138.251 338.403 138.956 338.96 139.507 339.675C140.057 340.391 140.398 341.227 140.531 342.181H138.184C138.005 341.485 137.608 340.869 136.991 340.332C136.381 339.788 135.559 339.516 134.525 339.516C133.61 339.516 132.808 339.755 132.119 340.232C131.436 340.703 130.902 341.369 130.518 342.231C130.14 343.086 129.951 344.09 129.951 345.244C129.951 346.424 130.137 347.451 130.508 348.326C130.886 349.201 131.416 349.88 132.099 350.364C132.788 350.848 133.597 351.09 134.525 351.09C135.135 351.09 135.688 350.984 136.186 350.772C136.683 350.56 137.104 350.255 137.448 349.857C137.793 349.46 138.038 348.982 138.184 348.425H140.531C140.398 349.327 140.07 350.139 139.546 350.862C139.029 351.577 138.343 352.148 137.488 352.572C136.64 352.989 135.652 353.198 134.525 353.198ZM150.603 337.607V339.596H142.688V337.607H150.603ZM144.995 333.948H147.342V348.505C147.342 349.168 147.438 349.665 147.63 349.996C147.829 350.321 148.081 350.54 148.386 350.653C148.697 350.759 149.026 350.812 149.37 350.812C149.629 350.812 149.841 350.799 150.007 350.772C150.172 350.739 150.305 350.712 150.404 350.693L150.882 352.8C150.723 352.86 150.501 352.92 150.215 352.979C149.93 353.046 149.569 353.079 149.132 353.079C148.469 353.079 147.819 352.936 147.183 352.651C146.553 352.366 146.029 351.932 145.612 351.349C145.201 350.765 144.995 350.03 144.995 349.141V333.948ZM154.133 352.88V337.607H156.48V352.88H154.133ZM155.326 335.062C154.869 335.062 154.474 334.906 154.143 334.594C153.818 334.283 153.656 333.908 153.656 333.471C153.656 333.033 153.818 332.659 154.143 332.347C154.474 332.036 154.869 331.88 155.326 331.88C155.784 331.88 156.175 332.036 156.5 332.347C156.831 332.659 156.997 333.033 156.997 333.471C156.997 333.908 156.831 334.283 156.5 334.594C156.175 334.906 155.784 335.062 155.326 335.062ZM166.982 353.198C165.603 353.198 164.394 352.87 163.353 352.214C162.319 351.558 161.51 350.639 160.927 349.46C160.35 348.28 160.062 346.901 160.062 345.323C160.062 343.732 160.35 342.344 160.927 341.157C161.51 339.97 162.319 339.049 163.353 338.393C164.394 337.737 165.603 337.408 166.982 337.408C168.361 337.408 169.567 337.737 170.601 338.393C171.642 339.049 172.451 339.97 173.028 341.157C173.611 342.344 173.903 343.732 173.903 345.323C173.903 346.901 173.611 348.28 173.028 349.46C172.451 350.639 171.642 351.558 170.601 352.214C169.567 352.87 168.361 353.198 166.982 353.198ZM166.982 351.09C168.03 351.09 168.891 350.822 169.567 350.285C170.244 349.748 170.744 349.042 171.069 348.167C171.394 347.292 171.556 346.344 171.556 345.323C171.556 344.302 171.394 343.351 171.069 342.469C170.744 341.588 170.244 340.875 169.567 340.332C168.891 339.788 168.03 339.516 166.982 339.516C165.935 339.516 165.073 339.788 164.397 340.332C163.721 340.875 163.22 341.588 162.896 342.469C162.571 343.351 162.408 344.302 162.408 345.323C162.408 346.344 162.571 347.292 162.896 348.167C163.22 349.042 163.721 349.748 164.397 350.285C165.073 350.822 165.935 351.09 166.982 351.09ZM179.831 343.693V352.88H177.485V337.607H179.752V339.994H179.951C180.309 339.218 180.852 338.595 181.581 338.124C182.31 337.647 183.252 337.408 184.405 337.408C185.439 337.408 186.344 337.621 187.12 338.045C187.895 338.462 188.498 339.099 188.929 339.954C189.36 340.802 189.576 341.876 189.576 343.175V352.88H187.229V343.335C187.229 342.135 186.917 341.2 186.294 340.531C185.671 339.854 184.816 339.516 183.729 339.516C182.98 339.516 182.31 339.679 181.72 340.004C181.137 340.328 180.676 340.802 180.338 341.425C180 342.049 179.831 342.804 179.831 343.693ZM207.347 345.721L194.54 352.244V349.698L204.364 344.965L204.284 345.124V344.727L204.364 344.886L194.54 340.153V337.607L207.347 344.13V345.721Z" fill="#F2F2F2"/>
<path d="M625.2 488H24.8C17.2 488 11 481.8 11 474.2V426.2C11 418.6 17.2 412.4 24.8 412.4H625.1C632.7 412.4 638.9 418.6 638.9 426.2V474.2C639 481.8 632.8 488 625.2 488Z" fill="#8C503A"/>
<path d="M269.614 451.721V450.13L282.421 443.607V446.153L272.597 450.886L272.676 450.727V451.124L272.597 450.965L282.421 455.698V458.244L269.614 451.721ZM294.196 443.607V445.596H285.963V443.607H294.196ZM288.429 458.88V441.499C288.429 440.624 288.634 439.895 289.045 439.312C289.456 438.728 289.99 438.291 290.646 437.999C291.302 437.708 291.995 437.562 292.724 437.562C293.301 437.562 293.772 437.608 294.136 437.701C294.501 437.794 294.773 437.88 294.952 437.96L294.275 439.988C294.156 439.948 293.99 439.898 293.778 439.839C293.573 439.779 293.301 439.749 292.963 439.749C292.187 439.749 291.627 439.945 291.283 440.336C290.945 440.727 290.775 441.3 290.775 442.056V458.88H288.429ZM303.06 459.198C301.681 459.198 300.472 458.87 299.431 458.214C298.397 457.558 297.588 456.639 297.005 455.46C296.428 454.28 296.14 452.901 296.14 451.323C296.14 449.732 296.428 448.344 297.005 447.157C297.588 445.97 298.397 445.049 299.431 444.393C300.472 443.737 301.681 443.408 303.06 443.408C304.439 443.408 305.646 443.737 306.68 444.393C307.72 445.049 308.529 445.97 309.106 447.157C309.689 448.344 309.981 449.732 309.981 451.323C309.981 452.901 309.689 454.28 309.106 455.46C308.529 456.639 307.72 457.558 306.68 458.214C305.646 458.87 304.439 459.198 303.06 459.198ZM303.06 457.09C304.108 457.09 304.969 456.822 305.646 456.285C306.322 455.748 306.822 455.042 307.147 454.167C307.472 453.292 307.634 452.344 307.634 451.323C307.634 450.302 307.472 449.351 307.147 448.469C306.822 447.588 306.322 446.875 305.646 446.332C304.969 445.788 304.108 445.516 303.06 445.516C302.013 445.516 301.151 445.788 300.475 446.332C299.799 446.875 299.298 447.588 298.974 448.469C298.649 449.351 298.486 450.302 298.486 451.323C298.486 452.344 298.649 453.292 298.974 454.167C299.298 455.042 299.799 455.748 300.475 456.285C301.151 456.822 302.013 457.09 303.06 457.09ZM319.767 459.198C318.389 459.198 317.179 458.87 316.138 458.214C315.104 457.558 314.295 456.639 313.712 455.46C313.135 454.28 312.847 452.901 312.847 451.323C312.847 449.732 313.135 448.344 313.712 447.157C314.295 445.97 315.104 445.049 316.138 444.393C317.179 443.737 318.389 443.408 319.767 443.408C321.146 443.408 322.353 443.737 323.387 444.393C324.427 445.049 325.236 445.97 325.813 447.157C326.396 448.344 326.688 449.732 326.688 451.323C326.688 452.901 326.396 454.28 325.813 455.46C325.236 456.639 324.427 457.558 323.387 458.214C322.353 458.87 321.146 459.198 319.767 459.198ZM319.767 457.09C320.815 457.09 321.676 456.822 322.353 456.285C323.029 455.748 323.529 455.042 323.854 454.167C324.179 453.292 324.341 452.344 324.341 451.323C324.341 450.302 324.179 449.351 323.854 448.469C323.529 447.588 323.029 446.875 322.353 446.332C321.676 445.788 320.815 445.516 319.767 445.516C318.72 445.516 317.858 445.788 317.182 446.332C316.506 446.875 316.005 447.588 315.681 448.469C315.356 449.351 315.193 450.302 315.193 451.323C315.193 452.344 315.356 453.292 315.681 454.167C316.005 455.042 316.506 455.748 317.182 456.285C317.858 456.822 318.72 457.09 319.767 457.09ZM336.912 443.607V445.596H328.997V443.607H336.912ZM331.304 439.948H333.65V454.505C333.65 455.168 333.747 455.665 333.939 455.996C334.138 456.321 334.39 456.54 334.695 456.653C335.006 456.759 335.334 456.812 335.679 456.812C335.937 456.812 336.15 456.799 336.315 456.772C336.481 456.739 336.614 456.712 336.713 456.693L337.19 458.8C337.031 458.86 336.809 458.92 336.524 458.979C336.239 459.046 335.878 459.079 335.44 459.079C334.777 459.079 334.128 458.936 333.491 458.651C332.862 458.366 332.338 457.932 331.92 457.349C331.509 456.765 331.304 456.03 331.304 455.141V439.948ZM346.681 459.198C345.209 459.198 343.94 458.873 342.873 458.224C341.812 457.568 340.994 456.653 340.417 455.479C339.847 454.3 339.562 452.927 339.562 451.363C339.562 449.799 339.847 448.42 340.417 447.227C340.994 446.027 341.796 445.092 342.823 444.423C343.857 443.746 345.064 443.408 346.442 443.408C347.238 443.408 348.023 443.541 348.799 443.806C349.574 444.071 350.28 444.502 350.917 445.099C351.553 445.689 352.06 446.471 352.438 447.445C352.816 448.42 353.005 449.62 353.005 451.045V452.039H341.232V450.011H350.619C350.619 449.149 350.446 448.38 350.101 447.704C349.763 447.028 349.28 446.494 348.65 446.103C348.027 445.712 347.291 445.516 346.442 445.516C345.508 445.516 344.699 445.748 344.016 446.212C343.34 446.67 342.82 447.266 342.455 448.002C342.091 448.738 341.908 449.527 341.908 450.369V451.721C341.908 452.874 342.107 453.852 342.505 454.654C342.909 455.45 343.469 456.056 344.185 456.474C344.901 456.885 345.733 457.09 346.681 457.09C347.297 457.09 347.854 457.004 348.351 456.832C348.855 456.653 349.289 456.388 349.654 456.036C350.019 455.678 350.3 455.234 350.499 454.704L352.766 455.34C352.528 456.109 352.127 456.785 351.563 457.369C351 457.945 350.304 458.396 349.475 458.721C348.646 459.039 347.715 459.198 346.681 459.198ZM356.574 458.88V443.607H358.842V445.914H359.001C359.279 445.158 359.783 444.545 360.512 444.075C361.241 443.604 362.063 443.369 362.978 443.369C363.15 443.369 363.366 443.372 363.624 443.379C363.883 443.385 364.078 443.395 364.211 443.408V445.795C364.131 445.775 363.949 445.745 363.664 445.705C363.386 445.659 363.091 445.636 362.779 445.636C362.037 445.636 361.374 445.791 360.79 446.103C360.214 446.408 359.756 446.832 359.418 447.376C359.087 447.913 358.921 448.526 358.921 449.215V458.88H356.574ZM380.475 451.721L367.669 458.244V455.698L377.492 450.965L377.413 451.124V450.727L377.492 450.886L367.669 446.153V443.607L380.475 450.13V451.721Z" fill="#F2F2F2"/>
<path d="M269.614 52.721V51.1301L282.421 44.6074V47.1529L272.597 51.8858L272.676 51.7267V52.1244L272.597 51.9654L282.421 56.6983V59.2438L269.614 52.721ZM289.741 50.6926V59.8801H287.395V39.5165H289.741V46.9938H289.94C290.298 46.2049 290.835 45.5785 291.551 45.1145C292.273 44.6439 293.235 44.4085 294.434 44.4085C295.475 44.4085 296.387 44.6173 297.169 45.035C297.951 45.4459 298.558 46.079 298.988 46.9341C299.426 47.7826 299.645 48.8631 299.645 50.1756V59.8801H297.298V50.3347C297.298 49.1216 296.983 48.1836 296.353 47.5208C295.73 46.8512 294.865 46.5165 293.758 46.5165C292.989 46.5165 292.3 46.6789 291.69 47.0037C291.087 47.3285 290.61 47.8025 290.258 48.4256C289.914 49.0487 289.741 49.8044 289.741 50.6926ZM310.341 60.1983C308.869 60.1983 307.6 59.8735 306.533 59.2239C305.472 58.5676 304.654 57.6529 304.077 56.4796C303.507 55.2996 303.222 53.9275 303.222 52.3631C303.222 50.7987 303.507 49.4199 304.077 48.2267C304.654 47.0269 305.456 46.0922 306.483 45.4227C307.517 44.7466 308.724 44.4085 310.102 44.4085C310.898 44.4085 311.683 44.5411 312.459 44.8063C313.235 45.0714 313.94 45.5023 314.577 46.0989C315.213 46.6888 315.72 47.471 316.098 48.4455C316.476 49.4199 316.665 50.6197 316.665 52.0449V53.0392H304.892V51.0108H314.279C314.279 50.1491 314.106 49.3801 313.762 48.704C313.423 48.0279 312.94 47.4942 312.31 47.1031C311.687 46.712 310.951 46.5165 310.102 46.5165C309.168 46.5165 308.359 46.7485 307.676 47.2125C307 47.6699 306.48 48.2665 306.115 49.0023C305.751 49.7381 305.568 50.5269 305.568 51.3688V52.721C305.568 53.8744 305.767 54.8522 306.165 55.6543C306.569 56.4497 307.129 57.0563 307.845 57.4739C308.561 57.8849 309.393 58.0904 310.341 58.0904C310.958 58.0904 311.514 58.0042 312.012 57.8318C312.515 57.6529 312.949 57.3877 313.314 57.0364C313.679 56.6784 313.96 56.2343 314.159 55.704L316.426 56.3404C316.188 57.1093 315.787 57.7854 315.223 58.3688C314.66 58.9455 313.964 59.3962 313.135 59.721C312.306 60.0392 311.375 60.1983 310.341 60.1983ZM324.729 60.2381C323.761 60.2381 322.883 60.0558 322.094 59.6912C321.305 59.32 320.679 58.7864 320.215 58.0904C319.751 57.3877 319.519 56.5392 319.519 55.5449C319.519 54.6699 319.691 53.9606 320.036 53.4171C320.38 52.8669 320.841 52.436 321.418 52.1244C321.994 51.8129 322.631 51.5809 323.327 51.4284C324.03 51.2693 324.735 51.1434 325.445 51.0506C326.373 50.9313 327.125 50.8418 327.702 50.7821C328.285 50.7158 328.709 50.6065 328.975 50.454C329.246 50.3015 329.382 50.0364 329.382 49.6585V49.579C329.382 48.5979 329.114 47.8356 328.577 47.2921C328.047 46.7485 327.241 46.4767 326.161 46.4767C325.04 46.4767 324.162 46.722 323.526 47.2125C322.889 47.703 322.442 48.2267 322.183 48.7835L319.956 47.9881C320.354 47.0601 320.884 46.3375 321.547 45.8205C322.217 45.2968 322.946 44.9322 323.735 44.7267C324.53 44.5146 325.312 44.4085 326.081 44.4085C326.572 44.4085 327.135 44.4682 327.771 44.5875C328.414 44.7002 329.034 44.9355 329.631 45.2935C330.234 45.6514 330.735 46.1917 331.132 46.9142C331.53 47.6368 331.729 48.6046 331.729 49.8176V59.8801H329.382V57.8119H329.263C329.104 58.1434 328.839 58.498 328.467 58.8759C328.096 59.2537 327.602 59.5752 326.986 59.8404C326.369 60.1055 325.617 60.2381 324.729 60.2381ZM325.087 58.1301C326.015 58.1301 326.797 57.9478 327.433 57.5833C328.076 57.2187 328.56 56.748 328.885 56.1713C329.217 55.5946 329.382 54.9881 329.382 54.3517V52.204C329.283 52.3233 329.064 52.4327 328.726 52.5321C328.395 52.6249 328.01 52.7078 327.573 52.7807C327.142 52.847 326.721 52.9066 326.31 52.9597C325.905 53.0061 325.577 53.0458 325.325 53.079C324.716 53.1585 324.146 53.2878 323.615 53.4668C323.092 53.6391 322.667 53.901 322.342 54.2523C322.024 54.597 321.865 55.0676 321.865 55.6642C321.865 56.4796 322.167 57.096 322.77 57.5136C323.38 57.9246 324.152 58.1301 325.087 58.1301ZM341.779 60.1983C340.506 60.1983 339.383 59.8768 338.408 59.2338C337.434 58.5842 336.671 57.6694 336.121 56.4895C335.571 55.3029 335.296 53.901 335.296 52.2835C335.296 50.6794 335.571 49.2873 336.121 48.1074C336.671 46.9275 337.437 46.016 338.418 45.373C339.399 44.73 340.533 44.4085 341.819 44.4085C342.813 44.4085 343.599 44.5743 344.175 44.9057C344.759 45.2305 345.203 45.6017 345.508 46.0193C345.819 46.4303 346.061 46.7684 346.233 47.0335H346.432V39.5165H348.779V59.8801H346.512V57.5335H346.233C346.061 57.8119 345.816 58.1633 345.498 58.5875C345.179 59.0051 344.725 59.3797 344.135 59.7111C343.545 60.0359 342.76 60.1983 341.779 60.1983ZM342.097 58.0904C343.038 58.0904 343.834 57.8451 344.483 57.3546C345.133 56.8574 345.627 56.1713 345.965 55.2963C346.303 54.4147 346.472 53.3972 346.472 52.2438C346.472 51.1036 346.306 50.106 345.975 49.2509C345.643 48.3891 345.153 47.7196 344.503 47.2423C343.854 46.7584 343.052 46.5165 342.097 46.5165C341.103 46.5165 340.274 46.7717 339.611 47.2821C338.955 47.7859 338.461 48.472 338.13 49.3404C337.805 50.2021 337.643 51.1699 337.643 52.2438C337.643 53.3309 337.808 54.3186 338.14 55.2068C338.478 56.0885 338.975 56.7911 339.631 57.3148C340.294 57.8318 341.116 58.0904 342.097 58.0904ZM359.806 60.1983C358.334 60.1983 357.065 59.8735 355.998 59.2239C354.937 58.5676 354.118 57.6529 353.542 56.4796C352.972 55.2996 352.687 53.9275 352.687 52.3631C352.687 50.7987 352.972 49.4199 353.542 48.2267C354.118 47.0269 354.92 46.0922 355.948 45.4227C356.982 44.7466 358.188 44.4085 359.567 44.4085C360.363 44.4085 361.148 44.5411 361.924 44.8063C362.699 45.0714 363.405 45.5023 364.042 46.0989C364.678 46.6888 365.185 47.471 365.563 48.4455C365.941 49.4199 366.13 50.6197 366.13 52.0449V53.0392H354.357V51.0108H363.743C363.743 50.1491 363.571 49.3801 363.226 48.704C362.888 48.0279 362.404 47.4942 361.775 47.1031C361.152 46.712 360.416 46.5165 359.567 46.5165C358.633 46.5165 357.824 46.7485 357.141 47.2125C356.465 47.6699 355.945 48.2665 355.58 49.0023C355.215 49.7381 355.033 50.5269 355.033 51.3688V52.721C355.033 53.8744 355.232 54.8522 355.63 55.6543C356.034 56.4497 356.594 57.0563 357.31 57.4739C358.026 57.8849 358.858 58.0904 359.806 58.0904C360.422 58.0904 360.979 58.0042 361.476 57.8318C361.98 57.6529 362.414 57.3877 362.779 57.0364C363.143 56.6784 363.425 56.2343 363.624 55.704L365.891 56.3404C365.652 57.1093 365.251 57.7854 364.688 58.3688C364.125 58.9455 363.429 59.3962 362.6 59.721C361.771 60.0392 360.84 60.1983 359.806 60.1983ZM369.699 59.8801V44.6074H371.966V46.9142H372.125C372.404 46.1585 372.908 45.5454 373.637 45.0747C374.366 44.6041 375.188 44.3688 376.103 44.3688C376.275 44.3688 376.491 44.3721 376.749 44.3787C377.008 44.3853 377.203 44.3953 377.336 44.4085V46.7949C377.256 46.775 377.074 46.7452 376.789 46.7054C376.51 46.659 376.215 46.6358 375.904 46.6358C375.161 46.6358 374.499 46.7916 373.915 47.1031C373.339 47.4081 372.881 47.8323 372.543 48.3759C372.212 48.9128 372.046 49.526 372.046 50.2154V59.8801H369.699ZM393.6 52.721L380.793 59.2438V56.6983L390.617 51.9654L390.538 52.1244V51.7267L390.617 51.8858L380.793 47.1529V44.6074L393.6 51.1301V52.721Z" fill="#F2F2F2"/>
</svg>
